<svg width="22" height="22" viewBox="0 0 22 22" fill="none" xmlns="http://www.w3.org/2000/svg">
<path d="M15.3826 7.27344H14.2834C14.0444 7.27344 13.817 7.38828 13.6764 7.58516L9.99201 12.6945L8.32325 10.3789C8.18263 10.1844 7.95763 10.0672 7.71622 10.0672H6.617C6.46465 10.0672 6.37559 10.2406 6.46465 10.3648L9.38497 14.4148C9.45396 14.5111 9.54491 14.5896 9.65027 14.6437C9.75564 14.6978 9.87238 14.7261 9.99083 14.7261C10.1093 14.7261 10.226 14.6978 10.3314 14.6437C10.4368 14.5896 10.5277 14.5111 10.5967 14.4148L15.5326 7.57109C15.6241 7.44688 15.535 7.27344 15.3826 7.27344Z" fill="#FAB429"/>
<path d="M11 0.5C5.20156 0.5 0.5 5.20156 0.5 11C0.5 16.7984 5.20156 21.5 11 21.5C16.7984 21.5 21.5 16.7984 21.5 11C21.5 5.20156 16.7984 0.5 11 0.5ZM11 19.7188C6.18594 19.7188 2.28125 15.8141 2.28125 11C2.28125 6.18594 6.18594 2.28125 11 2.28125C15.8141 2.28125 19.7188 6.18594 19.7188 11C19.7188 15.8141 15.8141 19.7188 11 19.7188Z" fill="#FAB429"/>
</svg>
