<svg width="66" height="60" viewBox="0 0 66 60" fill="none" xmlns="http://www.w3.org/2000/svg">
<path d="M57.7119 12.2139H49.5763V7.37288C49.5763 3.3075 46.2688 0 42.2034 0H22.8814C18.816 0 15.5085 3.3075 15.5085 7.37288V12.2139H7.37288C3.3075 12.2139 0 15.5214 0 19.5868V52.6271C0 56.6925 3.3075 60 7.37288 60H57.7119C61.7772 60 65.0847 56.6925 65.0847 52.6271V19.5868C65.0847 15.5214 61.7772 12.2139 57.7119 12.2139V12.2139ZM22.8814 2.54237H42.2034C44.427 2.54237 46.3033 4.05305 46.8629 6.1017H18.2218C18.7814 4.05305 20.6578 2.54237 22.8814 2.54237V2.54237ZM2.54237 19.5868C2.54237 16.9233 4.70936 14.7563 7.37288 14.7563H26.8382C27.5401 14.7563 28.1094 14.1872 28.1094 13.4851C28.1094 12.7831 27.5401 12.2139 26.8382 12.2139H18.0508V8.64407H47.0339V12.2139H38.2789C37.5768 12.2139 37.0077 12.7832 37.0077 13.4851C37.0077 14.1871 37.5768 14.7563 38.2789 14.7563H57.7119C60.3754 14.7563 62.5424 16.9233 62.5424 19.5868V23.6406C62.5424 29.6492 57.654 34.5375 51.6454 34.5375H38.6602V31.8352C38.6602 30.2392 37.3617 28.9408 35.7657 28.9408H29.3512C27.7552 28.9408 26.4567 30.2394 26.4567 31.8352V34.5375H13.4394C7.43072 34.5374 2.54237 29.649 2.54237 23.6406V19.5868ZM28.9992 37.0797H36.1178V38.8983C36.1178 40.861 34.5211 42.4576 32.5585 42.4576C30.5958 42.4576 28.9992 40.861 28.9992 38.8983V37.0797ZM28.9992 34.5374V31.8351C28.9992 31.641 29.1571 31.483 29.3513 31.483H35.7658C35.96 31.483 36.118 31.6408 36.118 31.8351V34.5374H28.9992ZM62.5424 52.6271C62.5424 55.2906 60.3754 57.4576 57.7119 57.4576H7.37288C4.70936 57.4576 2.54237 55.2906 2.54237 52.6271V31.4968C4.98572 34.8763 8.9597 37.0797 13.4394 37.0797H26.4568V38.8983C26.4568 42.2629 29.1939 45 32.5585 45C35.9231 45 38.6602 42.2629 38.6602 38.8983V37.0797H51.6454C56.1249 37.0797 60.099 34.8763 62.5424 31.4968V52.6271Z" fill="#FAB429"/>
<path d="M32.5588 14.756C32.8931 14.756 33.2211 14.6211 33.4575 14.3834C33.6938 14.1471 33.83 13.8191 33.83 13.4848C33.83 13.1505 33.694 12.8225 33.4575 12.5861C33.2211 12.3496 32.8931 12.2136 32.5588 12.2136C32.2245 12.2136 31.8965 12.3495 31.6588 12.5861C31.4223 12.8225 31.2876 13.1505 31.2876 13.4848C31.2876 13.8191 31.4223 14.1471 31.6588 14.3834C31.8965 14.6213 32.2245 14.756 32.5588 14.756V14.756Z" fill="#FAB429"/>
</svg>
