<svg width="48" height="42" viewBox="0 0 48 42" fill="none" xmlns="http://www.w3.org/2000/svg">
<path d="M46.9216 17.6617C45.3924 14.5396 43.9644 11.3687 42.379 8.27286C41.5807 6.70618 40.7374 5.15824 39.8303 3.65153C39.1444 2.51213 38.3311 0.788037 36.9856 0.312037C36.2322 0.0421784 35.4151 -0.0327819 34.6206 0.0121945C33.0389 0.0946512 31.5284 0.619375 30.0105 1.02041C27.4356 1.70256 24.8794 2.45216 22.327 3.22051C19.7034 4.0076 17.0273 4.79094 14.4449 5.69046C11.4165 6.74741 8.29064 7.53449 5.29971 8.67764C3.96916 9.18738 2.4587 9.74958 1.29681 10.5929C0.65215 11.0614 0.243614 11.9759 0.0637085 12.7293C-0.0824648 13.3664 0.0599605 13.9549 0.123677 14.5883C0.247362 15.7577 0.712118 16.7284 1.1319 17.8153C2.62361 21.6796 4.49763 25.4051 6.12053 29.2169C6.96758 31.1958 7.82588 33.1785 8.8341 35.0825C9.27262 35.9108 9.77861 36.6717 10.2209 37.5038C10.7568 38.5157 11.3265 39.3216 12.0087 40.2473C12.6121 41.0681 13.3692 41.8402 14.4187 41.9752C15.4494 42.1063 16.3939 41.6941 17.3159 41.2968C19.8233 40.2248 22.0309 38.7031 24.3097 37.2339C26.1238 36.0645 27.9903 34.9851 29.8531 33.8907C32.0082 32.6276 34.1371 31.3233 36.2322 29.9627C39.8603 27.6052 43.8257 25.5663 47.0191 22.6016C48.3571 21.3572 47.7912 19.4457 46.9216 17.6617Z" fill="#0A3229"/>
<path d="M42.1755 22.7515C40.9837 23.666 39.7393 24.5019 38.4612 25.2964C33.5401 28.3436 28.6039 31.2633 23.4241 33.8569C21.1866 34.9776 18.5554 36.7167 15.9918 36.8779C13.6792 37.0203 12.4911 35.2962 11.5241 33.4259C10.0212 30.5062 8.60441 27.4665 7.35257 24.4269C6.55799 22.5004 5.92457 20.5102 5.27241 18.535C5.1 18.0103 4.86388 17.4293 4.65399 16.8371C4.62775 16.5898 4.45534 16.2824 4.5453 16.1325C4.67648 15.9189 5.12249 15.9826 5.31364 16.0013C5.93582 16.0725 6.51301 16.3574 7.10895 16.5298C8.42826 16.9158 9.75506 17.2682 11.0781 17.6355C13.2295 18.2276 15.4033 18.7749 17.5435 19.4045C18.2069 19.5994 18.8628 19.8318 19.5487 19.9405C19.8035 19.9817 20.0584 20.023 20.3133 20.0529C20.5119 20.0792 20.793 20.0717 20.9242 19.8918C21.0779 19.6819 20.9279 19.2846 20.8717 19.071C20.7031 18.4563 20.1071 18.2127 19.5674 17.999C18.904 17.7404 18.2593 17.463 17.5884 17.2232C15.3471 16.4248 13.0571 15.8139 10.782 15.1055C9.37651 14.667 7.93726 14.2472 6.56923 13.7075C6.17194 13.5539 5.39235 13.4152 5.32489 12.9017C5.29115 12.6618 5.41484 12.4969 5.59474 12.3545C5.60974 12.3395 5.65096 12.3095 5.69594 12.2758C7.16142 11.41 8.75059 10.8478 10.3435 10.2556C14.1365 8.85007 18.0644 7.81562 21.9062 6.54503C23.694 5.95659 25.4518 5.2707 27.2621 4.77596C29.1136 4.26623 30.9877 3.8427 32.8317 3.30673C33.214 3.19429 33.6 3.12308 33.9861 3.06311C34.0386 3.07435 34.091 3.08185 34.136 3.10059C34.4621 3.25426 34.4996 3.69653 34.4958 4.00761C34.4883 4.45363 34.4808 4.90339 34.4508 5.35316C34.3871 6.31265 34.2972 7.27215 34.2597 8.23165C34.241 8.74138 34.181 9.24362 34.1997 9.7496C34.2185 10.2818 34.1135 10.8065 34.2484 11.3313C34.3609 11.7698 34.8182 12.317 35.3316 12.2383C35.9276 12.1483 36.0213 9.95949 36.07 9.54346C36.2199 8.39281 36.3773 7.24217 36.4973 6.08777C36.546 5.62302 36.591 5.15826 36.6247 4.6935C36.6397 4.5061 36.5985 4.04884 36.8608 4.00761C36.9545 3.99262 37.0482 4.06009 37.1344 4.14254C37.5505 4.66727 37.9253 5.25196 38.2776 5.81791C39.5219 7.81187 40.7176 9.86579 41.5609 12.0584C42.4416 14.3484 43.6748 16.4548 44.3644 18.8273C44.8779 20.6002 43.4311 21.7883 42.1755 22.7515Z" fill="white"/>
<path d="M33.9991 13.4189C32.8185 12.1595 30.5097 12.1558 29.4902 13.5988C29.2878 13.8836 29.0705 14.4309 28.7444 14.7007C28.6057 14.8169 28.4445 14.8806 28.2571 14.8506C27.9573 14.8019 27.665 14.7869 27.3651 14.7494C26.4393 14.6295 25.3899 14.607 24.5391 15.0193C23.1186 15.7127 22.4514 17.1594 22.5676 18.6849C22.7063 20.5102 23.9244 21.7957 25.5923 22.4816C26.7504 22.9576 27.9873 23.22 29.2241 23.3812C29.8463 23.4636 30.4722 23.5198 31.0981 23.5611C31.3605 23.5798 31.5966 23.5761 31.8552 23.5611C32.1551 23.5423 32.4512 23.6173 32.7548 23.5686C33.838 23.3961 34.1978 21.2673 34.4189 20.424C34.9249 18.4937 35.5021 15.574 34.2915 13.7787C34.2015 13.655 34.1041 13.5313 33.9991 13.4189Z" fill="#E1397C"/>
</svg>
