<svg width="166" height="215" viewBox="0 0 166 215" fill="none" xmlns="http://www.w3.org/2000/svg">
<path d="M47.29 47.7017C46.21 46.98 44.727 47.418 43.647 48.1396C42.5671 48.8612 41.6464 49.8466 40.437 50.3144C38.1677 51.1953 35.1866 50.1502 33.4199 51.8323C32.3001 52.8973 32.1856 54.6491 31.3296 55.9381C29.8864 58.108 26.4276 58.9241 26.129 61.512C25.9548 63.02 27.1492 64.4682 28.6124 64.8912C30.0705 65.3142 31.678 64.8663 32.9421 64.0253C34.4202 63.0449 35.5798 61.527 37.2669 60.9696C38.9888 60.3973 41.1139 60.875 42.4725 59.6756C43.8311 58.4713 43.6271 56.2616 44.6025 54.7288C45.1201 53.9126 45.9363 53.3403 46.6728 52.7082C47.4094 52.0762 48.1012 51.2948 48.2256 50.3343C48.345 49.3738 47.9519 47.7365 47.29 47.7017Z" fill="#F5F5F5"/>
<path d="M19.246 153.432C19.3058 153.397 19.5098 153.596 19.6989 153.88C19.888 154.164 19.9926 154.432 19.9328 154.472C19.8731 154.512 19.674 154.313 19.48 154.024C19.2908 153.736 19.1863 153.472 19.246 153.432Z" fill="#A4C7CB"/>
<path d="M17.116 148.943C17.1857 148.918 17.4494 149.416 17.7082 150.048C17.967 150.68 18.1263 151.218 18.0616 151.247C17.9969 151.277 17.7331 150.785 17.4693 150.143C17.2056 149.506 17.0463 148.968 17.116 148.943Z" fill="#A4C7CB"/>
<path d="M15.9613 144.106C16.031 144.096 16.1903 144.633 16.3147 145.305C16.4391 145.977 16.4839 146.534 16.4142 146.554C16.3445 146.569 16.1853 146.032 16.0609 145.355C15.9364 144.673 15.8917 144.116 15.9613 144.106Z" fill="#A4C7CB"/>
<path d="M15.7871 139.134C15.8568 139.139 15.9065 139.696 15.9016 140.378C15.8916 141.06 15.8269 141.617 15.7523 141.622C15.6826 141.627 15.6328 141.07 15.6378 140.373C15.6477 139.686 15.7124 139.129 15.7871 139.134Z" fill="#A4C7CB"/>
<path d="M16.5885 134.227C16.6582 134.247 16.5985 134.804 16.4541 135.471C16.3098 136.138 16.1356 136.671 16.0659 136.661C15.9963 136.651 16.056 136.093 16.2003 135.417C16.3496 134.74 16.5238 134.207 16.5885 134.227Z" fill="#A4C7CB"/>
<path d="M18.3801 129.589C18.4448 129.624 18.2707 130.156 17.987 130.778C17.7083 131.4 17.4246 131.888 17.3599 131.863C17.2952 131.838 17.4694 131.306 17.7531 130.674C18.0368 130.037 18.3154 129.554 18.3801 129.589Z" fill="#A4C7CB"/>
<path d="M21.1224 125.438C21.1771 125.483 20.8934 125.966 20.4854 126.513C20.0773 127.061 19.6941 127.474 19.6443 127.439C19.5746 127.394 19.8682 126.916 20.2763 126.359C20.6894 125.806 21.0676 125.393 21.1224 125.438Z" fill="#A4C7CB"/>
<path d="M24.4667 121.755C24.5165 121.805 24.1731 122.248 23.7003 122.746C23.2275 123.243 22.7995 123.607 22.7497 123.557C22.7 123.507 23.0384 123.064 23.5161 122.567C23.9889 122.064 24.4169 121.701 24.4667 121.755Z" fill="#A4C7CB"/>
<path d="M27.9703 118.212C28.0201 118.262 27.6717 118.7 27.189 119.187C26.7062 119.68 26.2732 120.033 26.2235 119.984C26.1737 119.934 26.5221 119.496 27.0048 119.008C27.4876 118.52 27.9205 118.162 27.9703 118.212Z" fill="#A4C7CB"/>
<path d="M31.245 114.459C31.3048 114.504 30.9962 114.972 30.5583 115.504C30.1203 116.037 29.7222 116.435 29.6674 116.385C29.6127 116.336 29.9212 115.868 30.3592 115.34C30.7872 114.813 31.1853 114.42 31.245 114.459Z" fill="#A4C7CB"/>
<path d="M33.7831 110.19C33.8478 110.214 33.6836 110.757 33.3651 111.374C33.0466 111.991 32.7032 112.439 32.6435 112.399C32.5838 112.359 32.8226 111.857 33.1362 111.255C33.4497 110.647 33.7184 110.16 33.7831 110.19Z" fill="#A4C7CB"/>
<path d="M34.9923 105.382C35.062 105.387 35.0819 105.954 34.9674 106.636C34.8529 107.323 34.6539 107.85 34.5842 107.835C34.5145 107.815 34.5991 107.268 34.7086 106.596C34.8231 105.924 34.9226 105.377 34.9923 105.382Z" fill="#A4C7CB"/>
<path d="M34.6242 100.435C34.6938 100.415 34.8879 100.948 34.9924 101.634C35.1019 102.321 35.077 102.889 35.0074 102.894C34.9327 102.899 34.8431 102.351 34.7386 101.674C34.6341 101.002 34.5545 100.45 34.6242 100.435Z" fill="#A4C7CB"/>
<path d="M32.6682 95.8814C32.7279 95.8416 33.0912 96.2746 33.4196 96.8867C33.7481 97.4989 33.9074 98.0413 33.8427 98.0712C33.773 98.1011 33.5142 97.6084 33.1907 97.0112C32.8722 96.409 32.6084 95.9213 32.6682 95.8814Z" fill="#A4C7CB"/>
<path d="M29.1995 92.348C29.2393 92.2883 29.742 92.552 30.2745 92.9999C30.812 93.4478 31.1603 93.8957 31.1056 93.9405C31.0509 93.9903 30.6278 93.632 30.1053 93.199C29.5827 92.766 29.1547 92.4077 29.1995 92.348Z" fill="#A4C7CB"/>
<path d="M24.6756 90.3274C24.6905 90.2577 25.2529 90.3274 25.9148 90.5514C26.5717 90.7753 27.0594 91.064 27.0296 91.1287C26.9997 91.1934 26.4722 91.0142 25.8302 90.7952C25.1832 90.5812 24.6557 90.4021 24.6756 90.3274Z" fill="#A4C7CB"/>
<path d="M19.7288 90.1034C19.7139 90.0337 20.2663 89.8795 20.9581 89.8446C21.6548 89.8098 22.2172 89.9043 22.2122 89.974C22.2072 90.0487 21.6548 90.0686 20.973 90.1034C20.2962 90.1383 19.7437 90.1781 19.7288 90.1034Z" fill="#A4C7CB"/>
<path d="M15.1403 91.935C15.1004 91.8802 15.5284 91.502 16.1406 91.1735C16.7527 90.8401 17.3051 90.6958 17.33 90.7605C17.3549 90.8301 16.8622 91.079 16.265 91.4024C15.6628 91.721 15.1801 91.9947 15.1403 91.935Z" fill="#A4C7CB"/>
<path d="M11.7213 95.5131C11.6616 95.4782 11.9055 94.9607 12.3335 94.4132C12.7615 93.8608 13.1994 93.4975 13.2492 93.5473C13.299 93.597 12.9556 94.03 12.5375 94.5725C12.1195 95.105 11.7811 95.5479 11.7213 95.5131Z" fill="#A4C7CB"/>
<path d="M10.0441 100.161C9.97445 100.156 9.97445 99.5841 10.1387 98.9073C10.3029 98.2304 10.5617 97.7228 10.6264 97.7477C10.6961 97.7726 10.5517 98.3101 10.3925 98.972C10.2332 99.6289 10.1188 100.171 10.0441 100.161Z" fill="#A4C7CB"/>
<path d="M10.6363 105.063C10.5716 105.088 10.3128 104.581 10.1486 103.904C9.98435 103.227 9.97937 102.655 10.049 102.65C10.1237 102.64 10.2382 103.182 10.4024 103.844C10.5616 104.501 10.701 105.034 10.6363 105.063Z" fill="#A4C7CB"/>
<path d="M13.1596 109.323C13.1048 109.368 12.6967 108.98 12.2887 108.418C11.8806 107.855 11.6467 107.338 11.7114 107.303C11.7761 107.268 12.1045 107.716 12.5027 108.268C12.8958 108.821 13.2143 109.279 13.1596 109.323Z" fill="#A4C7CB"/>
<path d="M16.8224 112.683C16.7826 112.743 16.2899 112.464 15.7524 112.031C15.2149 111.598 14.8417 111.17 14.8865 111.12C14.9362 111.065 15.3791 111.399 15.9117 111.832C16.4442 112.255 16.8672 112.623 16.8224 112.683Z" fill="#A4C7CB"/>
<path d="M21.1372 115.156C21.1073 115.221 20.5848 115.022 19.9677 114.708C19.3506 114.395 18.8828 114.091 18.9176 114.026C18.9524 113.967 19.475 114.166 20.0871 114.474C20.6943 114.783 21.1671 115.091 21.1372 115.156Z" fill="#A4C7CB"/>
<path d="M25.8752 116.664C25.8652 116.734 25.2979 116.689 24.626 116.515C23.9542 116.341 23.4416 116.112 23.4615 116.042C23.4864 115.972 24.0288 116.092 24.6907 116.261C25.3527 116.435 25.8852 116.589 25.8752 116.664Z" fill="#A4C7CB"/>
<path d="M30.8319 116.918C30.8418 116.988 30.2845 117.107 29.5927 117.117C28.9009 117.132 28.3386 117.037 28.3435 116.968C28.3485 116.893 28.9059 116.873 29.5877 116.858C30.2646 116.848 30.8219 116.843 30.8319 116.918Z" fill="#A4C7CB"/>
<path d="M35.6195 115.639C35.6493 115.704 35.1666 115.997 34.5097 116.231C33.8577 116.465 33.2954 116.55 33.2755 116.48C33.2555 116.41 33.7781 116.216 34.4201 115.987C35.0621 115.753 35.5896 115.569 35.6195 115.639Z" fill="#A4C7CB"/>
<path d="M39.77 112.917C39.8198 112.966 39.4416 113.389 38.8892 113.812C38.3368 114.235 37.8341 114.489 37.7943 114.43C37.7545 114.37 38.1875 114.021 38.7299 113.603C39.2724 113.195 39.7253 112.867 39.77 112.917Z" fill="#A4C7CB"/>
<path d="M43.0099 109.154C43.0696 109.194 42.8158 109.697 42.3978 110.254C41.9797 110.812 41.5667 111.195 41.5119 111.145C41.4572 111.095 41.7807 110.642 42.1888 110.095C42.6018 109.548 42.9502 109.115 43.0099 109.154Z" fill="#A4C7CB"/>
<path d="M45.1649 104.675C45.2345 104.695 45.1201 105.252 44.8563 105.894C44.5975 106.536 44.294 107.014 44.2342 106.984C44.1695 106.954 44.3636 106.432 44.6174 105.795C44.8762 105.168 45.0952 104.655 45.1649 104.675Z" fill="#A4C7CB"/>
<path d="M46.1303 99.803C46.1999 99.808 46.2199 100.37 46.1253 101.057C46.0307 101.744 45.8615 102.281 45.7919 102.266C45.7222 102.252 45.7769 101.699 45.8665 101.022C45.9611 100.345 46.0606 99.798 46.1303 99.803Z" fill="#A4C7CB"/>
<path d="M46.0009 94.8314C46.0706 94.8215 46.1751 95.3739 46.2249 96.0607C46.2796 96.7524 46.2647 97.3098 46.19 97.3098C46.1203 97.3098 46.0158 96.7574 45.9661 96.0806C45.9163 95.3988 45.9312 94.8414 46.0009 94.8314Z" fill="#A4C7CB"/>
<path d="M44.9209 89.9742C44.9905 89.9543 45.1896 90.4768 45.3737 91.1437C45.5529 91.8106 45.6425 92.363 45.5728 92.3779C45.5031 92.3929 45.2991 91.8703 45.1199 91.2084C44.9408 90.5465 44.8512 89.9941 44.9209 89.9742Z" fill="#A4C7CB"/>
<path d="M43.0149 85.3756C43.0796 85.3407 43.3782 85.8185 43.6768 86.4406C43.9555 87.0726 44.1297 87.6101 44.06 87.635C43.9953 87.6599 43.7166 87.1771 43.4379 86.5501C43.1493 85.933 42.9502 85.4054 43.0149 85.3756Z" fill="#A4C7CB"/>
<path d="M40.5662 81.0407C40.6259 81.0059 40.9594 81.4538 41.3077 82.051C41.6561 82.6432 41.89 83.1558 41.8253 83.1907C41.7656 83.2255 41.4322 82.7726 41.0838 82.1804C40.7404 81.5832 40.5065 81.0756 40.5662 81.0407Z" fill="#A4C7CB"/>
<path d="M38.0978 76.716C38.1625 76.6811 38.481 77.144 38.8144 77.7412C39.1478 78.3433 39.3668 78.8559 39.3021 78.8908C39.2424 78.9256 38.9189 78.4678 38.5855 77.8656C38.252 77.2634 38.0331 76.7458 38.0978 76.716Z" fill="#A4C7CB"/>
<path d="M36.1521 72.1375C36.2218 72.1176 36.4706 72.6203 36.7095 73.2573C36.9484 73.8993 37.0877 74.4368 37.023 74.4666C36.9583 74.4965 36.7095 73.9938 36.4656 73.3469C36.2267 72.6999 36.0824 72.1574 36.1521 72.1375Z" fill="#A4C7CB"/>
<path d="M35.3059 67.2454C35.3806 67.2454 35.4553 67.7928 35.5249 68.4746C35.5946 69.1514 35.6394 69.7088 35.5697 69.7238C35.5 69.7387 35.3408 69.1962 35.2711 68.5045C35.1965 67.8127 35.2363 67.2454 35.3059 67.2454Z" fill="#A4C7CB"/>
<path d="M35.7189 62.2935C35.7886 62.3084 35.7289 62.8609 35.6293 63.5377C35.5298 64.2145 35.4303 64.762 35.3606 64.757C35.2909 64.752 35.271 64.1847 35.3755 63.5029C35.4701 62.8161 35.6493 62.2786 35.7189 62.2935Z" fill="#A4C7CB"/>
<path d="M37.3415 57.5956C37.4062 57.6304 37.2071 58.148 36.9434 58.78C36.6796 59.4071 36.4507 59.9147 36.381 59.8948C36.3163 59.8749 36.4358 59.3225 36.7045 58.6805C36.9683 58.0385 37.2768 57.5657 37.3415 57.5956Z" fill="#A4C7CB"/>
<path d="M40.1133 53.4748C40.1681 53.5246 39.8396 53.9725 39.4215 54.5149C39.0035 55.0524 38.6502 55.4854 38.5904 55.4456C38.5307 55.4058 38.7945 54.9031 39.2175 54.3557C39.6405 53.8082 40.0635 53.43 40.1133 53.4748Z" fill="#A4C7CB"/>
<path d="M43.8511 50.2003C43.8909 50.26 43.4629 50.6134 42.9205 51.0314C42.378 51.4495 41.9301 51.7729 41.8803 51.7182C41.8355 51.6635 42.2138 51.2454 42.7612 50.8224C43.3086 50.4043 43.8113 50.1406 43.8511 50.2003Z" fill="#A4C7CB"/>
<path d="M48.2803 47.9507C48.3051 48.0203 47.8025 48.2542 47.1754 48.528C46.5484 48.7967 46.0308 49.0008 45.9959 48.941C45.9611 48.8763 46.4339 48.5678 47.0709 48.2941C47.7079 48.0104 48.2554 47.881 48.2803 47.9507Z" fill="#A4C7CB"/>
<path d="M51.8884 47.035C51.8984 47.1047 51.6346 47.2142 51.3012 47.2739C50.9678 47.3336 50.6791 47.3287 50.6642 47.259C50.6492 47.1893 50.913 47.0798 51.2514 47.0201C51.5948 46.9604 51.8785 46.9654 51.8884 47.035Z" fill="#A4C7CB"/>
<path d="M62.0459 32.3834C62.0459 32.3834 67.8935 28.2129 75.9807 30.9054C75.9807 30.9054 76.6476 37.604 70.1579 42.9291" fill="#0998A8"/>
<path d="M43.6169 44.7555C43.8658 45.1288 50.2111 55.3261 50.2111 55.3261L69.257 43.591C72.5814 41.5406 73.4424 37.0864 71.1183 33.9461C68.9982 31.0845 65.0019 30.3927 62.0457 32.3784L43.6169 44.7555Z" fill="#0998A8"/>
<path d="M50.2112 55.3261L49.7832 62.5025C49.7832 62.5025 62.1255 56.5255 59.0449 49.8816L50.2112 55.3261Z" fill="#263238"/>
<path d="M52.4407 38.8333C52.4407 38.8333 44.0699 35.1406 37.1821 40.5553L43.622 44.7556L52.4407 38.8333Z" fill="#263238"/>
<path d="M52.381 44.7604L40.4668 52.2106C40.4668 52.2106 40.8749 53.4896 41.1984 53.3851C41.4671 53.2955 50.4152 48.0102 53.3217 46.2932C53.7944 46.0145 53.9039 45.3775 53.5556 44.9495C53.2669 44.6012 52.7643 44.5215 52.381 44.7604Z" fill="#263238"/>
<path d="M67.0614 39.9888C67.5435 37.9394 66.273 35.8872 64.2236 35.4051C62.1742 34.9229 60.122 36.1935 59.6398 38.2429C59.1577 40.2922 60.4282 42.3445 62.4776 42.8266C64.527 43.3087 66.5792 42.0382 67.0614 39.9888Z" fill="#FAFAFA"/>
<path d="M67.1668 39.1119C67.137 39.1119 67.1519 38.7735 66.9976 38.1912C66.8433 37.6238 66.4601 36.7927 65.6041 36.1507C65.1811 35.8372 64.6486 35.5734 64.0365 35.4689C63.4293 35.3694 62.7425 35.3893 62.0955 35.6381C61.4436 35.872 60.8265 36.315 60.3836 36.9271C59.9307 37.5293 59.6769 38.3056 59.6669 39.1069C59.6719 39.9082 59.9307 40.6795 60.3836 41.2867C60.8215 41.8988 61.4436 42.3418 62.0955 42.5757C62.7475 42.8245 63.4293 42.8494 64.0365 42.7449C64.6486 42.6404 65.1811 42.3766 65.6041 42.0631C66.4601 41.4211 66.8433 40.59 66.9976 40.0226C67.1519 39.4553 67.137 39.1119 67.1668 39.1119C67.1768 39.1119 67.1817 39.1965 67.1817 39.3557C67.1867 39.515 67.1668 39.7539 67.0971 40.0525C66.9727 40.6447 66.5995 41.5206 65.7186 42.2124C65.2806 42.5508 64.7232 42.8394 64.0812 42.9589C63.4393 43.0733 62.7127 43.0584 62.0159 42.7996C61.3192 42.5558 60.6573 42.088 60.1845 41.436C59.6968 40.794 59.423 39.9629 59.4131 39.1069C59.4181 38.2509 59.6968 37.4198 60.1845 36.7778C60.6573 36.1259 61.3241 35.658 62.0159 35.4142C62.7127 35.1554 63.4393 35.1405 64.0812 35.2549C64.7282 35.3744 65.2856 35.663 65.7186 36.0014C66.5995 36.6932 66.9727 37.5741 67.0971 38.1613C67.1668 38.4599 67.1867 38.6988 67.1817 38.8581C67.1817 39.0322 67.1768 39.1119 67.1668 39.1119Z" fill="#263238"/>
<path d="M71.8102 41.6551C71.7604 41.6601 71.7057 40.9136 71.4121 39.754C71.2727 39.1717 71.0488 38.4949 70.7502 37.7683C70.4416 37.0417 70.0484 36.2703 69.5607 35.5039C69.0631 34.7424 68.5156 34.0656 67.9831 33.4833C67.4406 32.911 66.9181 32.4283 66.4453 32.06C65.5097 31.3185 64.8528 30.9601 64.8776 30.9153C64.8876 30.9004 65.0568 30.98 65.3504 31.1393C65.4997 31.2189 65.6839 31.3185 65.8829 31.4528C66.082 31.5872 66.3209 31.7266 66.5548 31.9157C67.0475 32.269 67.5899 32.7468 68.1523 33.3191C68.7047 33.9014 69.2671 34.5882 69.7747 35.3645C70.2724 36.1459 70.6656 36.9372 70.9691 37.6837C71.2578 38.4302 71.4668 39.1269 71.5912 39.7192C71.6659 40.0128 71.6957 40.2865 71.7355 40.5254C71.7754 40.7643 71.7953 40.9683 71.8052 41.1375C71.8251 41.466 71.8301 41.6551 71.8102 41.6551Z" fill="#263238"/>
<path d="M70.785 42.2027C70.7352 42.2076 70.6755 41.4512 70.3769 40.2717C70.2326 39.6795 70.0036 38.9927 69.705 38.2511C69.3915 37.5146 68.9934 36.7233 68.4957 35.942C67.993 35.1656 67.4406 34.4738 66.8982 33.8816C66.3507 33.2993 65.8182 32.8016 65.3404 32.4284C64.3949 31.667 63.728 31.2937 63.7529 31.2539C63.7628 31.239 63.932 31.3236 64.2356 31.4878C64.3899 31.5674 64.569 31.6719 64.7731 31.8113C64.9771 31.9457 65.216 32.0949 65.4549 32.2841C65.9526 32.6474 66.505 33.1351 67.0723 33.7223C67.6297 34.3195 68.1971 35.0163 68.7097 35.8076C69.2123 36.6039 69.6105 37.4101 69.919 38.1665C70.2127 38.928 70.4266 39.6347 70.5511 40.2369C70.6257 40.5355 70.6605 40.8142 70.7004 41.053C70.7402 41.2919 70.7601 41.5059 70.77 41.6751C70.7949 42.0135 70.7999 42.2027 70.785 42.2027Z" fill="#263238"/>
<path d="M21.0295 157.442C19.7939 130.655 57.5748 97.0409 90.1044 102.612C124.476 108.502 154.605 182.949 122.04 208.017C89.4628 233.097 22.277 184.608 21.0295 157.442Z" fill="#EAFDFF"/>
<path d="M110.297 102.571C107.436 105.57 126.026 132.029 132.864 132.962C139.702 133.895 139.12 117.424 134.585 109.88C130.05 102.335 114.001 98.6869 110.297 102.571Z" fill="#EAFDFF"/>
<path d="M134.716 92.8187C129.256 89.8786 123.166 95.5488 119.596 98.9089C111.406 106.889 104.476 116.129 96.7051 124.529C88.0949 133.77 80.1147 143.01 71.2945 152.04C66.2544 157.081 60.7942 162.541 57.4342 168.841C49.874 161.49 43.3638 153.51 34.9636 147C28.8735 142.38 18.7932 139.02 19.0032 150.15C19.4232 164.641 32.2336 180.182 41.6838 190.051C45.6739 194.252 50.924 198.662 57.0142 198.872C64.3643 199.292 71.9245 190.471 76.3346 185.641C84.1051 177.241 90.4053 167.791 97.5451 159.181C106.785 147.84 116.236 136.71 125.266 125.159C130.936 118.019 148.786 100.379 134.716 92.8187ZM28.2431 149.31C28.0331 149.31 27.8231 149.31 27.4031 149.52C26.5631 149.31 25.9331 149.1 25.093 148.68C25.723 148.26 26.7731 148.47 28.2431 149.31Z" fill="#FAB429"/>
<path d="M148 31L150.694 39.2918H159.413L152.359 44.4164L155.053 52.7082L148 47.5836L140.947 52.7082L143.641 44.4164L136.587 39.2918H145.306L148 31Z" fill="#D7FAFE"/>
<path d="M159.5 106L160.959 110.491H165.682L161.861 113.267L163.321 117.759L159.5 114.983L155.679 117.759L157.139 113.267L153.318 110.491H158.041L159.5 106Z" fill="#D7FAFE"/>
<path d="M79.5 77L80.9593 81.4914H85.6819L81.8613 84.2672L83.3206 88.7586L79.5 85.9828L75.6794 88.7586L77.1387 84.2672L73.3181 81.4914H78.0407L79.5 77Z" fill="#D7FAFE"/>
<path d="M6.5 65L7.95934 69.4914H12.6819L8.86126 72.2672L10.3206 76.7586L6.5 73.9828L2.6794 76.7586L4.13874 72.2672L0.318133 69.4914H5.04066L6.5 65Z" fill="#D7FAFE"/>
<path d="M85 0L87.0206 6.21885H93.5595L88.2694 10.0623L90.2901 16.2812L85 12.4377L79.7099 16.2812L81.7306 10.0623L76.4405 6.21885H82.9794L85 0Z" fill="#D7FAFE"/>
</svg>
