<svg width="20" height="20" viewBox="0 0 20 20" fill="none" xmlns="http://www.w3.org/2000/svg">
<path d="M13.6663 0.833313H6.33301C3.29976 0.833313 0.833008 3.30006 0.833008 6.33331V18.25C0.833008 18.4931 0.929585 18.7263 1.10149 18.8982C1.2734 19.0701 1.50656 19.1666 1.74967 19.1666H13.6663C16.6996 19.1666 19.1663 16.6999 19.1663 13.6666V6.33331C19.1663 3.30006 16.6996 0.833313 13.6663 0.833313ZM17.333 13.6666C17.333 15.6888 15.6885 17.3333 13.6663 17.3333H2.66634V6.33331C2.66634 4.31115 4.31084 2.66665 6.33301 2.66665H13.6663C15.6885 2.66665 17.333 4.31115 17.333 6.33331V13.6666Z" fill="#FAB429"/>
<path d="M9.08363 11.4538L6.98171 9.35191L5.68555 10.6481L9.08363 14.0462L14.7734 8.35641L13.4772 7.06024L9.08363 11.4538Z" fill="#FAB429"/>
</svg>
