<svg width="41" height="42" viewBox="0 0 41 42" fill="none" xmlns="http://www.w3.org/2000/svg">
<g opacity="0.2">
<mask id="mask0" mask-type="alpha" maskUnits="userSpaceOnUse" x="2" y="3" width="36" height="36">
<path fill-rule="evenodd" clip-rule="evenodd" d="M12.7353 5.11054C17.4058 2.41377 23.1602 2.41377 27.8307 5.11054L30.302 6.53746C34.9719 9.23389 37.8486 14.2168 37.8486 19.6092V22.4656C37.8486 27.8581 34.9719 32.8409 30.302 35.5374L27.8307 36.9643C23.1602 39.6611 17.4058 39.6611 12.7353 36.9643L10.264 35.5374C5.59413 32.8409 2.71741 27.8581 2.71741 22.4656V19.6092C2.71741 14.2168 5.59413 9.23389 10.264 6.53746L12.7353 5.11054Z" fill="white"/>
</mask>
<g mask="url(#mask0)">
<path fill-rule="evenodd" clip-rule="evenodd" d="M26.9497 -12.6131L65.3392 69.7214L65.6777 69.5635L27.2882 -12.771L26.9497 -12.6131ZM63.4716 69.7214L25.0821 -12.6131L25.4206 -12.771L63.8101 69.5635L63.4716 69.7214ZM23.2142 -12.6131L61.6037 69.7214L61.9422 69.5635L23.5527 -12.771L23.2142 -12.6131ZM59.7361 69.7214L21.3465 -12.6131L21.6851 -12.771L60.0746 69.5635L59.7361 69.7214ZM19.4789 -12.6131L57.8684 69.7214L58.2069 69.5635L19.8174 -12.771L19.4789 -12.6131ZM56.0008 69.7214L17.6113 -12.6131L17.9498 -12.771L56.3393 69.5635L56.0008 69.7214ZM15.7436 -12.6131L54.1331 69.7214L54.4716 69.5635L16.0822 -12.771L15.7436 -12.6131ZM52.2654 69.7214L13.8759 -12.6131L14.2144 -12.771L52.6039 69.5635L52.2654 69.7214ZM12.0082 -12.6131L50.3977 69.7214L50.7362 69.5635L12.3468 -12.771L12.0082 -12.6131ZM48.5301 69.7214L10.1406 -12.6131L10.4791 -12.771L48.8686 69.5635L48.5301 69.7214ZM8.27295 -12.6131L46.6624 69.7214L47.001 69.5635L8.61148 -12.771L8.27295 -12.6131ZM44.7947 69.7214L6.40518 -12.6131L6.74372 -12.771L45.1332 69.5635L44.7947 69.7214ZM4.53754 -12.6131L42.927 69.7214L43.2656 69.5635L4.87608 -12.771L4.53754 -12.6131ZM41.0594 69.7214L2.66991 -12.6131L3.00844 -12.771L41.3979 69.5635L41.0594 69.7214ZM0.802139 -12.6131L39.1916 69.7214L39.5301 69.5635L1.14068 -12.771L0.802139 -12.6131ZM37.324 69.7214L-1.0655 -12.6131L-0.726959 -12.771L37.6625 69.5635L37.324 69.7214ZM-2.93314 -12.6131L35.4563 69.7214L35.7949 69.5635L-2.5946 -12.771L-2.93314 -12.6131ZM33.5887 69.7214L-4.80078 -12.6131L-4.46224 -12.771L33.9273 69.5635L33.5887 69.7214ZM-6.66842 -12.6131L31.7211 69.7214L32.0596 69.5635L-6.32988 -12.771L-6.66842 -12.6131ZM29.8533 69.7214L-8.53619 -12.6131L-8.19765 -12.771L30.1918 69.5635L29.8533 69.7214ZM-10.4038 -12.6131L27.9857 69.7214L28.3242 69.5635L-10.0653 -12.771L-10.4038 -12.6131ZM26.118 69.7214L-12.2715 -12.6131L-11.9329 -12.771L26.4566 69.5635L26.118 69.7214ZM-14.1392 -12.6131L24.2503 69.7214L24.5888 69.5635L-13.8007 -12.771L-14.1392 -12.6131ZM22.3826 69.7214L-16.0069 -12.6131L-15.6683 -12.771L22.7211 69.5635L22.3826 69.7214ZM-17.8745 -12.6131L20.515 69.7214L20.8535 69.5635L-17.536 -12.771L-17.8745 -12.6131ZM-19.7421 -12.6131L18.6474 69.7214L18.9859 69.5635L-19.4036 -12.771L-19.7421 -12.6131Z" fill="#0998A8"/>
</g>
</g>
</svg>
