<svg width="161" height="161" viewBox="0 0 161 161" fill="none" xmlns="http://www.w3.org/2000/svg">
<path opacity="0.08" fill-rule="evenodd" clip-rule="evenodd" d="M110.29 44.4336C115.497 45.8355 119.561 49.9095 120.951 55.1207L130.316 90.2494C131.705 95.4599 130.209 101.016 126.391 104.824L100.649 130.504C96.8312 134.312 91.2719 135.795 86.0648 134.393L50.959 124.942C45.7512 123.54 41.6872 119.466 40.2979 114.255L30.9326 79.1262C29.5435 73.9157 31.0396 68.3599 34.8573 64.5515L60.5996 38.8718C64.4173 35.0634 69.9767 33.5809 75.1838 34.9827L110.29 44.4336Z" fill="#0998A8"/>
<g opacity="0.2">
<mask id="mask0" mask-type="alpha" maskUnits="userSpaceOnUse" x="29" y="25" width="102" height="102">
<path fill-rule="evenodd" clip-rule="evenodd" d="M109.794 35.8119C115.001 37.2139 119.065 41.2879 120.455 46.499L129.82 81.6278C131.209 86.8382 129.713 92.394 125.895 96.2024L100.153 121.882C96.3352 125.69 90.7758 127.173 85.5688 125.771L50.4629 116.32C45.2552 114.918 41.1911 110.844 39.8019 105.633L30.4366 70.5044C29.0475 65.2939 30.5435 59.7382 34.3612 55.9298L60.1036 30.2501C63.9213 26.4417 69.4806 24.9592 74.6877 26.361L109.794 35.8119Z" fill="white"/>
</mask>
<g mask="url(#mask0)">
<path fill-rule="evenodd" clip-rule="evenodd" d="M34.6372 213.255L117.311 -13.0052L118.242 -12.6653L35.5676 213.595L34.6372 213.255ZM113.813 -16.5114L31.1395 209.749L32.0699 210.089L114.744 -16.1715L113.813 -16.5114ZM20.6465 199.23L103.32 -27.03L104.251 -26.6902L21.5769 199.57L20.6465 199.23ZM13.6511 192.218L96.3251 -34.0424L97.2555 -33.7026L14.5815 192.558L13.6511 192.218ZM92.8274 -37.5486L10.1534 188.712L11.0838 189.052L93.7578 -37.2088L92.8274 -37.5486ZM6.65574 185.206L89.3297 -41.0548L90.2601 -40.715L7.58613 185.545L6.65574 185.206ZM85.832 -44.561L3.15811 181.699L4.08848 182.039L86.7624 -44.2211L85.832 -44.561ZM-7.33499 171.181L75.339 -55.0796L76.2694 -54.7398L-6.40461 171.521L-7.33499 171.181ZM71.8413 -58.5858L-10.8326 167.675L-9.90227 168.014L72.7717 -58.246L71.8413 -58.5858ZM68.3436 -62.092L-14.3303 164.168L-13.3999 164.508L69.274 -61.7522L68.3436 -62.092ZM78.8367 -51.5734L-3.83728 174.687L-2.90691 175.027L79.7671 -51.2335L78.8367 -51.5734ZM-0.339591 178.193L82.3344 -48.0672L83.2647 -47.7273L0.590781 178.533L-0.339591 178.193ZM99.8228 -30.5362L17.1488 195.724L18.0792 196.064L100.753 -30.1963L99.8228 -30.5362ZM106.818 -23.5238L24.1441 202.737L25.0745 203.076L107.749 -23.1839L106.818 -23.5238ZM27.6419 206.243L110.316 -20.0176L111.246 -19.6777L28.5722 206.583L27.6419 206.243ZM120.809 -9.49898L38.1349 216.761L39.0653 217.101L121.739 -9.15911L120.809 -9.49898ZM41.6321 220.268L124.306 -5.99278L125.236 -5.65291L42.5625 220.607L41.6321 220.268ZM127.804 -2.48658L45.1298 223.774L46.0602 224.114L128.734 -2.14671L127.804 -2.48658ZM48.6275 227.28L131.301 1.01961L132.232 1.35948L49.5579 227.62L48.6275 227.28ZM134.799 4.52585L52.1252 230.786L53.0555 231.126L135.73 4.86573L134.799 4.52585ZM55.6229 234.292L138.297 8.03204L139.227 8.37191L56.5533 234.632L55.6229 234.292ZM141.795 11.5382L59.1205 237.799L60.0509 238.138L142.725 11.8781L141.795 11.5382ZM62.6183 241.305L145.292 15.0444L146.223 15.3843L63.5486 241.645L62.6183 241.305ZM148.79 18.5506L66.1159 244.811L67.0463 245.151L149.72 18.8905L148.79 18.5506ZM69.6136 248.317L152.288 22.0568L153.218 22.3967L70.544 248.657L69.6136 248.317ZM155.785 25.563L73.1113 251.823L74.0416 252.163L156.716 25.9029L155.785 25.563Z" fill="#0998A8"/>
</g>
</g>
</svg>
