<svg width="35" height="35" viewBox="0 0 35 35" fill="none" xmlns="http://www.w3.org/2000/svg">
<path d="M0.0594871 22.1484C0.118285 22.3704 0.220466 22.5786 0.360134 22.7609C0.499801 22.9432 0.67419 23.0961 0.873237 23.2106L4.21574 25.1426V28.9909C4.21574 29.455 4.40011 29.9001 4.7283 30.2283C5.05649 30.5565 5.50161 30.7409 5.96574 30.7409H9.81399L11.746 34.0834C11.9009 34.3482 12.1221 34.5682 12.3878 34.7216C12.6536 34.875 12.9547 34.9566 13.2615 34.9584C13.566 34.9584 13.8687 34.8779 14.1382 34.7221L17.4772 32.7919L20.8197 34.7239C21.2216 34.9556 21.6989 35.0185 22.1471 34.8988C22.5952 34.779 22.9775 34.4864 23.2102 34.0851L25.1405 30.7426H28.9887C29.4529 30.7426 29.898 30.5583 30.2262 30.2301C30.5544 29.9019 30.7387 29.4568 30.7387 28.9926V25.1444L34.0812 23.2124C34.2803 23.0973 34.4548 22.9442 34.5947 22.7616C34.7346 22.5791 34.8371 22.3708 34.8964 22.1486C34.9557 21.9265 34.9707 21.6948 34.9404 21.4668C34.9101 21.2389 34.8352 21.0191 34.72 20.8201L32.7897 17.4794L34.7217 14.1404C34.9539 13.7387 35.0171 13.2612 34.8973 12.8129C34.7775 12.3646 34.4846 11.9823 34.083 11.7499L30.7405 9.81789V5.96789C30.7405 5.50376 30.5561 5.05864 30.2279 4.73045C29.8997 4.40226 29.4546 4.21789 28.9905 4.21789H25.1422L23.212 0.87714C22.9789 0.476244 22.5973 0.183274 22.1497 0.0616398C21.9278 0.0014676 21.6961 -0.0140481 21.4681 0.015992C21.2401 0.0460322 21.0203 0.121031 20.8215 0.23664L17.4772 2.16689L14.1365 0.23489C13.7348 0.00269008 13.2573 -0.0604618 12.809 0.0593196C12.3607 0.179101 11.9784 0.472009 11.746 0.87364L9.81399 4.21614H5.96574C5.50161 4.21614 5.05649 4.40051 4.7283 4.7287C4.40011 5.05689 4.21574 5.50201 4.21574 5.96614V9.81439L0.873237 11.7464C0.471722 11.9798 0.179054 12.3627 0.0593323 12.8114C-0.0603894 13.2602 0.00259362 13.738 0.234487 14.1404L2.16649 17.4794L0.234487 20.8184C0.00346514 21.2214 -0.059411 21.6993 0.0594871 22.1484ZM17.4772 19.2294C11.3872 19.2294 10.4772 15.9411 10.4772 13.9794C10.4772 11.7271 12.278 9.45914 15.7272 8.87814V7.00039H19.2272V8.94114C22.2617 9.65864 23.4272 12.1839 23.4272 13.9794H21.6772L19.9272 14.0109C19.9027 13.3459 19.551 12.2294 17.4772 12.2294C15.204 12.2294 13.9772 13.1306 13.9772 13.9794C13.9772 14.6339 13.9772 15.7294 17.4772 15.7294C23.5672 15.7294 24.4772 19.0176 24.4772 20.9794C24.4772 23.2316 22.6765 25.4996 19.2272 26.0806V27.9794H15.7272V26.0894C11.634 25.4471 10.4772 22.5841 10.4772 20.9794H13.9772C13.9965 21.2296 14.2555 22.7294 17.4772 22.7294C19.8922 22.7294 20.9772 21.7056 20.9772 20.9794C20.9772 20.4106 20.9772 19.2294 17.4772 19.2294Z" fill="#0A3229"/>
</svg>
