<svg width="60" height="60" viewBox="0 0 60 60" fill="none" xmlns="http://www.w3.org/2000/svg">
<path d="M0 4.92188V55.0781H60V4.92188H0ZM58.125 14.5781H50.3531V6.79688H58.125V14.5781ZM48.4781 6.79688V14.5781H1.875V6.79688H48.4781ZM1.875 53.2031V16.4531H58.125V53.2031H1.875Z" fill="#FAB429"/>
<path d="M29.9999 21.8273C22.8217 21.8266 17.0022 27.6452 17.0015 34.8234C17.0008 42.0016 22.8194 47.8211 29.9975 47.8218C37.1757 47.8225 42.9953 42.0039 42.996 34.8257C42.996 34.8249 42.996 34.8242 42.996 34.8234C42.9895 27.6484 37.1748 21.8337 29.9999 21.8273ZM40.1448 30.2648H35.2944C34.93 27.9128 34.2796 25.7613 33.3608 24.2179C36.3771 25.1827 38.8426 27.3816 40.1448 30.2683V30.2648ZM41.121 34.8198C41.1214 35.7231 41.0116 36.6232 40.794 37.4999H35.5206C35.5991 36.6128 35.6378 35.7128 35.6378 34.8198C35.6378 33.9269 35.5979 33.028 35.5206 32.1398H40.794C41.0119 33.0176 41.1217 33.9189 41.121 34.8234V34.8198ZM29.9999 45.9456C28.8116 45.9456 27.2706 43.5292 26.5874 39.3831H33.4124C32.7292 43.5292 31.1882 45.9456 29.9999 45.9456ZM26.3518 37.5081C26.2768 36.6667 26.2347 35.7737 26.2347 34.828C26.2347 33.8823 26.2768 32.9894 26.3518 32.148H33.6479C33.7229 32.9894 33.7651 33.8823 33.7651 34.828C33.7651 35.7737 33.7229 36.6667 33.6479 37.5081H26.3518ZM18.8788 34.8234C18.8785 33.9201 18.9883 33.0201 19.2058 32.1433H24.4792C24.4007 33.0316 24.362 33.9316 24.362 34.8234C24.362 35.7152 24.4019 36.6163 24.4792 37.5034H19.2058C18.9881 36.6268 18.8783 35.7266 18.8788 34.8234ZM29.9999 23.7023C31.1882 23.7023 32.7292 26.1175 33.4124 30.2648H26.5874C27.2706 26.1175 28.8116 23.7023 29.9999 23.7023ZM26.639 24.2214C25.7202 25.7648 25.0698 27.9163 24.7054 30.2683H19.855C21.158 27.3829 23.6234 25.1854 26.639 24.2214ZM19.855 39.3749H24.7054C25.0698 41.7269 25.7202 43.8796 26.639 45.4218C23.6231 44.4582 21.1576 42.2605 19.855 39.3749ZM33.3608 45.4218C34.2796 43.8796 34.93 41.7269 35.2944 39.3749H40.1448C38.843 42.2618 36.3773 44.4608 33.3608 45.4253V45.4218Z" fill="#FAB429"/>
</svg>
