<svg width="60" height="60" viewBox="0 0 60 60" fill="none" xmlns="http://www.w3.org/2000/svg">
<path d="M2.39414 21.5901C1.76789 21.4268 1.12782 21.8019 0.964343 22.428C0.949343 22.4854 0.934578 22.5431 0.920046 22.6007C0.760906 23.228 1.14048 23.8655 1.76778 24.0248C1.86446 24.0493 1.96137 24.061 2.05676 24.061C2.58024 24.061 3.05719 23.7077 3.19183 23.1771L3.23215 23.0199C3.39562 22.3936 3.02039 21.7535 2.39414 21.5901Z" fill="#FAB429"/>
<path d="M39.6544 1.58777C36.5532 0.534378 33.305 0.00012207 30 0.00012207C24.2001 0.00012207 18.5718 1.6582 13.7237 4.79518C9.00244 7.85001 5.24238 12.1471 2.84989 17.222C2.57403 17.8075 2.82481 18.5058 3.41028 18.7817C3.57176 18.8579 3.7418 18.8938 3.90914 18.8938C4.34871 18.8938 4.77011 18.6454 4.96992 18.2215C7.09089 13.7224 10.3606 9.96629 14.3272 7.23853C14.3659 7.25845 14.4057 7.27685 14.4473 7.29267L21.6075 10.0167C21.7752 10.0806 21.8834 10.2438 21.877 10.423C21.8718 10.5679 21.8936 10.7128 21.9412 10.8499C22.3274 11.9609 23.1752 12.8494 24.267 13.2873C25.3589 13.725 26.5855 13.6684 27.6325 13.1321C27.6368 13.1299 27.6412 13.1276 27.6455 13.1253L29.2013 12.3034C30.9314 11.3893 32.9284 11.5033 34.5431 12.609C36.1581 13.7146 36.9872 15.5353 36.7608 17.4795L36.7464 17.6029C36.6586 18.3567 36.1384 18.953 35.421 19.1224C34.6461 19.3054 33.7636 19.5156 33.0075 19.6965C31.4751 20.0629 30.2833 21.2976 29.9713 22.8421L28.9656 27.8213C28.7289 28.9929 29.0178 30.2032 29.758 31.1419C30.4982 32.0805 31.6079 32.6435 32.8025 32.6865L34.0931 32.7329C34.3152 32.7409 34.5305 32.791 34.7333 32.8818C34.8887 32.9512 35.0511 32.9842 35.211 32.9842C35.659 32.9841 36.0867 32.7258 36.2815 32.2903C36.5456 31.6995 36.2809 31.0063 35.69 30.7422C35.2109 30.5279 34.702 30.4097 34.1775 30.3908L32.8869 30.3444C32.3814 30.3263 31.9117 30.088 31.5983 29.6906C31.2851 29.2934 31.1629 28.7811 31.2631 28.2853L32.2688 23.3062C32.4006 22.6532 32.9046 22.131 33.5527 21.976C34.3069 21.7956 35.1869 21.586 35.9597 21.4034C37.6227 21.0108 38.8745 19.5925 39.0746 17.8738L39.089 17.7504C39.4179 14.9262 38.2134 12.2813 35.8673 10.675C33.5214 9.06899 30.6202 8.90294 28.1065 10.2311L26.558 11.0492C26.1099 11.2768 25.6062 11.2992 25.1396 11.1118C24.7217 10.9442 24.3985 10.635 24.2157 10.2317C24.1477 9.15993 23.4609 8.21423 22.4412 7.82622L16.8437 5.6967C20.8199 3.54069 25.33 2.34398 30 2.34398C33.0481 2.34398 36.0425 2.83617 38.9004 3.80706C39.5134 4.0153 40.1788 3.6873 40.387 3.07441C40.5951 2.46164 40.2671 1.79601 39.6544 1.58777Z" fill="#FAB429"/>
<path d="M58.835 21.6939C58.6562 21.0719 58.0068 20.7126 57.385 20.8916C56.763 21.0704 56.4038 21.7196 56.5826 22.3416C57.2951 24.8194 57.6564 27.396 57.6564 30C57.6564 32.8355 57.2292 35.6312 56.3868 38.3093C56.1926 38.9268 56.5357 39.5846 57.153 39.7788C57.2701 39.8156 57.3884 39.8332 57.505 39.8332C58.0031 39.8332 58.4652 39.513 58.6225 39.0127C59.5366 36.1065 60.0001 33.0743 60.0001 30C60.0001 27.1769 59.6081 24.3823 58.835 21.6939Z" fill="#FAB429"/>
<path d="M55.5595 43.4223C55.0651 43.1295 54.3242 43.2122 53.9401 43.8568C53.9379 43.8606 53.9356 43.8643 53.9334 43.8682C53.5564 44.5172 53.8441 45.205 54.3401 45.4949C54.5158 45.5977 54.7222 45.6532 54.9326 45.6532C55.3156 45.6532 55.7114 45.4691 55.9571 45.0513C56.3377 44.4043 56.0538 43.715 55.5595 43.4223Z" fill="#FAB429"/>
<path d="M52.2684 48.3459C51.7862 47.9143 51.0453 47.9552 50.6136 48.4375C49.0124 50.2265 47.1987 51.781 45.2291 53.0795C43.8777 52.4693 42.462 51.0227 42.6006 48.7555L43.34 39.996C43.3945 39.3511 42.9158 38.7841 42.2709 38.7296C41.6264 38.6773 41.0591 39.1539 41.0046 39.7989L40.2641 48.5711C40.2634 48.5792 40.2628 48.5874 40.2622 48.5955C40.1148 50.9206 41.1493 53.0859 42.9402 54.4348C38.9918 56.5251 34.5539 57.6562 29.9996 57.6562C28.7245 57.6562 27.4538 57.5671 26.1976 57.3932L27.2906 55.4085H28.2467C30.7297 55.4085 32.7496 53.3886 32.7496 50.9056V49.2881C32.7496 48.8269 32.8934 48.3864 33.1655 48.0141C33.5474 47.4916 33.4334 46.7584 32.9109 46.3764C32.3882 45.9947 31.6551 46.1086 31.2733 46.6312C30.7059 47.4077 30.406 48.3264 30.406 49.2881V50.9056C30.406 52.0961 29.4374 53.0648 28.2468 53.0648H26.5982C26.1711 53.0648 25.7778 53.2972 25.5718 53.6713L23.7683 56.9461C21.2389 56.3631 18.7971 55.4274 16.5289 54.1598C15.9636 53.8443 15.25 54.0461 14.9343 54.6112C14.6186 55.1763 14.8206 55.89 15.3855 56.2057C19.8275 58.688 24.881 60 29.9997 60C38.5222 60 46.6723 56.3554 52.36 50.0007C52.7916 49.5183 52.7506 48.7775 52.2684 48.3459Z" fill="#FAB429"/>
<path d="M50.1755 5.02539C47.4534 5.02539 45.2388 7.23999 45.2388 9.96213C45.2388 12.6843 47.4534 14.899 50.1755 14.899C52.8976 14.899 55.1123 12.6844 55.1123 9.96213C55.1123 7.23999 52.8976 5.02539 50.1755 5.02539ZM50.1755 12.5552C48.7457 12.5552 47.5825 11.3919 47.5825 9.96213C47.5825 8.53233 48.7457 7.36913 50.1755 7.36913C51.6053 7.36913 52.7685 8.53233 52.7685 9.96213C52.7685 11.3919 51.6053 12.5552 50.1755 12.5552Z" fill="#FAB429"/>
<path d="M28.6175 39.8367L23.487 32.4427C23.4335 32.3657 23.3718 32.2981 23.3049 32.2382C21.9982 27.1237 17.3518 23.3308 11.8359 23.3308C5.30963 23.3308 0 28.6404 0 35.1667C0 37.8697 0.934801 40.5111 2.63284 42.6089C2.63554 42.6125 2.63835 42.6162 2.64116 42.6198L10.912 53.2209C11.1341 53.5055 11.4748 53.6719 11.8358 53.6719C12.1967 53.6719 12.5375 53.5057 12.7596 53.2211L20.9909 42.6756C21.0074 42.6545 21.0229 42.6332 21.0377 42.6114C22.4183 40.9063 23.2942 38.8446 23.5743 36.6797L26.6919 41.1729C26.9195 41.5009 27.2845 41.6768 27.6558 41.6768C27.8863 41.6768 28.1191 41.6089 28.3228 41.4676C28.8546 41.0987 28.9866 40.3685 28.6175 39.8367ZM19.1576 41.208C19.128 41.2439 19.1007 41.2814 19.0759 41.3201L11.8362 50.5951L4.51229 41.2078C4.5001 41.1911 4.48744 41.1748 4.47432 41.1586C3.10042 39.4729 2.34374 37.345 2.34374 35.1667C2.34374 29.9328 6.60185 25.6746 11.8359 25.6746C17.0699 25.6746 21.328 29.9328 21.328 35.1667C21.328 37.3684 20.5572 39.514 19.1576 41.208Z" fill="#FAB429"/>
<path d="M11.8359 28.54C8.08815 28.54 5.03906 31.5891 5.03906 35.3369C5.03906 39.0847 8.08815 42.1337 11.8359 42.1337C15.5837 42.1337 18.6328 39.0847 18.6328 35.3369C18.6328 31.5891 15.5838 28.54 11.8359 28.54ZM11.8359 39.79C9.38049 39.79 7.3828 37.7923 7.3828 35.3369C7.3828 32.8815 9.38049 30.8838 11.8359 30.8838C14.2913 30.8838 16.289 32.8815 16.289 35.3369C16.289 37.7923 14.2914 39.79 11.8359 39.79Z" fill="#FAB429"/>
<path d="M50.1757 0C44.7586 0 40.3516 4.40705 40.3516 9.82414C40.3516 12.0664 41.1265 14.2576 42.5344 15.9984C42.5366 16.0012 42.539 16.0042 42.5412 16.0072L49.2518 24.6083C49.4739 24.893 49.8147 25.0594 50.1756 25.0594C50.1756 25.0594 50.1756 25.0594 50.1757 25.0594C50.5367 25.0594 50.8774 24.8931 51.0995 24.6086L57.7781 16.0524C57.7925 16.034 57.8062 16.0154 57.8194 15.9963C59.2262 14.2552 59.9999 12.0676 59.9999 9.82414C59.9999 4.40705 55.5928 0 50.1757 0ZM55.9458 14.585C55.9182 14.6183 55.8928 14.6528 55.8695 14.6885L50.176 21.9826L44.4105 14.5927C44.3989 14.5769 44.3867 14.5612 44.3741 14.546C43.2916 13.2176 42.6953 11.5407 42.6953 9.82414C42.6953 5.69951 46.051 2.34374 50.1757 2.34374C54.3005 2.34374 57.6561 5.69951 57.6561 9.82414C57.6561 11.5592 57.0487 13.2499 55.9458 14.585Z" fill="#FAB429"/>
<path d="M23.8192 48.9015C23.5427 48.3164 22.8442 48.0664 22.259 48.3425L21.7292 48.5928C21.144 48.8693 20.8938 49.5677 21.1701 50.1529C21.3703 50.5764 21.7913 50.8244 22.2305 50.8244C22.3982 50.8244 22.5686 50.7882 22.7303 50.7119L23.2601 50.4616C23.8454 50.1851 24.0956 49.4867 23.8192 48.9015Z" fill="#FAB429"/>
<path d="M50.1755 29.7772C49.5283 29.7772 49.0037 30.302 49.0037 30.9491C49.0037 31.1003 48.9951 31.2527 48.9782 31.402C48.9055 32.0451 49.368 32.6253 50.011 32.6981C50.0558 32.7031 50.1001 32.7056 50.144 32.7056C50.7323 32.7056 51.2395 32.2637 51.307 31.6652C51.3337 31.4287 51.3473 31.1879 51.3473 30.9491C51.3474 30.3019 50.8228 29.7772 50.1755 29.7772Z" fill="#FAB429"/>
<path d="M42.5693 34.9219H41.9834C41.3362 34.9219 40.8115 35.4466 40.8115 36.0937C40.8115 36.7409 41.3362 37.2656 41.9834 37.2656H42.5693C43.2166 37.2656 43.7412 36.7409 43.7412 36.0937C43.7412 35.4466 43.2166 34.9219 42.5693 34.9219Z" fill="#FAB429"/>
<path d="M48.7051 34.7364C48.3685 34.1837 47.6476 34.0086 47.0947 34.3449C46.9665 34.423 46.8322 34.4945 46.6956 34.5578C46.1082 34.8295 45.8524 35.5262 46.1243 36.1134C46.3223 36.5414 46.746 36.7934 47.1886 36.7934C47.3534 36.7934 47.5207 36.7585 47.6801 36.6847C47.8969 36.5844 48.1099 36.4708 48.3136 36.3468C48.8663 36.0102 49.0417 35.2893 48.7051 34.7364Z" fill="#FAB429"/>
<path d="M31.0388 41.7712C30.4929 41.424 29.7685 41.5853 29.4213 42.1314L29.1069 42.626C28.7597 43.1722 28.9209 43.8964 29.4671 44.2437C29.6621 44.3677 29.8796 44.4268 30.0947 44.4268C30.4822 44.4268 30.8614 44.2347 31.0847 43.8835L31.3991 43.389C31.7463 42.8428 31.5851 42.1185 31.0388 41.7712Z" fill="#FAB429"/>
<path d="M33.868 37.3211C33.3219 36.974 32.5977 37.1351 32.2503 37.6812L31.936 38.1756C31.5888 38.7218 31.75 39.4461 32.2962 39.7933C32.4912 39.9173 32.7089 39.9764 32.9239 39.9764C33.3114 39.9764 33.6905 39.7844 33.9139 39.4332L34.2282 38.9388C34.5753 38.3924 34.4141 37.6683 33.868 37.3211Z" fill="#FAB429"/>
<path d="M28.5878 46.6492C28.3111 46.0639 27.6127 45.8139 27.0276 46.0902L26.4978 46.3405C25.9125 46.6169 25.6623 47.3154 25.9387 47.9006C26.1388 48.3241 26.5599 48.5721 26.9991 48.5721C27.1668 48.5721 27.3372 48.5359 27.4989 48.4596L28.0287 48.2093C28.6139 47.9328 28.8641 47.2344 28.5878 46.6492Z" fill="#FAB429"/>
<path d="M37.2959 34.9219H36.71C36.0627 34.9219 35.5381 35.4466 35.5381 36.0937C35.5381 36.7409 36.0627 37.2656 36.71 37.2656H37.2959C37.9431 37.2656 38.4678 36.7409 38.4678 36.0937C38.4678 35.4466 37.9431 34.9219 37.2959 34.9219Z" fill="#FAB429"/>
</svg>
