<svg width="60" height="60" viewBox="0 0 60 60" fill="none" xmlns="http://www.w3.org/2000/svg">
<path d="M58.4954 20.0077L39.9911 1.50324C37.9882 -0.499614 34.7292 -0.499614 32.7264 1.50324L3.84832 30.3814C2.84695 31.3829 2.34621 32.6983 2.34621 34.0137C2.34621 35.3292 2.84695 36.6446 3.84832 37.6461L8.49117 42.2889L3.39316 47.3869C3.1643 47.6158 3.04992 47.9157 3.04992 48.2156C3.04992 48.5155 3.1643 48.8153 3.39316 49.0442C3.85078 49.5018 4.59281 49.5019 5.05043 49.0442L10.1484 43.9462L12.2718 46.0696L0.343242 57.9983C0.114375 58.227 0 58.527 0 58.8269C0 59.1268 0.114375 59.4268 0.343242 59.6555C0.800859 60.1132 1.54289 60.1132 2.00063 59.6555L13.9293 47.7269L22.3527 56.1505C24.3557 58.1532 27.6145 58.1532 29.6174 56.1505L58.4954 27.2723C59.4656 26.3022 60 25.0121 60 23.6401C60 22.2679 59.4656 20.9779 58.4954 20.0077ZM25.1336 55.1757C24.7225 55.0448 24.3354 54.8187 24.0098 54.4932L5.50559 35.9888C4.77539 35.2585 4.53727 34.2218 4.78629 33.2893H25.1336V55.1757ZM20.8976 30.9455L24.3725 27.4706C24.8302 27.013 24.8303 26.2709 24.3725 25.8133C23.9148 25.3557 23.1729 25.3556 22.7153 25.8133L17.5829 30.9455H14.1687L24.7631 20.3511C25.2206 19.8935 25.2207 19.1514 24.7631 18.6937C24.3055 18.2361 23.5635 18.2361 23.1057 18.6937L10.8541 30.9455H6.59883L33.2905 4.25375V28.1524C33.2905 29.6926 32.0375 30.9455 30.4973 30.9455H20.8976ZM56.8383 25.6152L27.9601 54.4932C27.8112 54.6421 27.6485 54.7688 27.4774 54.8771V33.2893H30.4975C33.3299 33.2893 35.6344 30.9849 35.6344 28.1524V25.1323H49.0669L42.2856 31.9137C42.0568 32.1425 41.9423 32.4425 41.9423 32.7424C41.9423 33.0424 42.0567 33.3421 42.2856 33.571C42.7432 34.0286 43.4852 34.0286 43.943 33.571L52.3807 25.1333C52.3809 25.133 52.3812 25.1327 52.3814 25.1325H57.2245C57.115 25.3051 56.9864 25.4671 56.8383 25.6152ZM35.6343 22.7886V2.44132C36.5668 2.1923 37.6036 2.43042 38.3338 3.16062L56.8382 21.665C57.1583 21.985 57.3905 22.3693 57.5241 22.7886H35.6343Z" fill="#FAB429"/>
<path d="M27.6312 15.8261C27.4133 15.607 27.1109 15.4828 26.8027 15.4828C26.4934 15.4828 26.1922 15.607 25.9742 15.8261C25.7562 16.0441 25.6309 16.3453 25.6309 16.6547C25.6309 16.9629 25.7562 17.2652 25.9742 17.4832C26.1922 17.7011 26.4934 17.8265 26.8027 17.8265C27.1109 17.8265 27.4133 17.7011 27.6312 17.4832C27.8492 17.2652 27.9746 16.9629 27.9746 16.6547C27.9746 16.3453 27.8492 16.0441 27.6312 15.8261Z" fill="#FAB429"/>
<path d="M2.00527 50.4316C1.7873 50.2136 1.48496 50.0883 1.17676 50.0883C0.868555 50.0883 0.566211 50.2136 0.348242 50.4316C0.130273 50.6496 0.00488281 50.9519 0.00488281 51.2601C0.00488281 51.5683 0.130273 51.8707 0.348242 52.0886C0.566211 52.3066 0.868555 52.432 1.17676 52.432C1.48613 52.432 1.7873 52.3066 2.00527 52.0886C2.22441 51.8707 2.34863 51.5683 2.34863 51.2601C2.34863 50.9519 2.22441 50.6496 2.00527 50.4316Z" fill="#FAB429"/>
<path d="M14.8853 52.6755C14.4276 52.2179 13.6855 52.2179 13.2279 52.6755L7.90574 57.9977C7.67699 58.2264 7.5625 58.5264 7.5625 58.8263C7.5625 59.1262 7.67688 59.4262 7.90574 59.655C8.36348 60.1127 9.10551 60.1127 9.56312 59.655L14.8853 54.3329C15.3428 53.8751 15.3428 53.1331 14.8853 52.6755Z" fill="#FAB429"/>
</svg>
