<svg width="192" height="192" viewBox="0 0 192 192" fill="none" xmlns="http://www.w3.org/2000/svg">
<g id="Icon ">
<g id="Border" opacity="0.06">
<rect id="Shape" width="192" height="192" rx="16" fill="#FFA800"/>
</g>
<g id="Icon Line Chart">
<path id="path" fill-rule="evenodd" clip-rule="evenodd" d="M112.2 73.9059V83.5912L128.648 67.1427L129 66.2942V56.6089L112.551 73.0574L112.2 73.9059ZM64.1997 136.391V126.706L64.5512 125.857L80.9997 109.409V119.094L80.6482 119.943L64.1997 136.391ZM88.1997 119.094L88.5512 119.943L105 136.391V126.706L104.648 125.857L88.1997 109.409V119.094ZM112.2 126.706V136.391L128.648 119.943L129 119.094V109.409L112.551 125.857L112.2 126.706ZM88.5512 67.1427L88.1997 66.2942V56.6089L104.648 73.0574L105 73.9059V83.5912L88.5512 67.1427ZM64.1997 73.9059V83.5912L80.6482 67.1427L80.9997 66.2942V56.6089L64.5512 73.0574L64.1997 73.9059Z" fill="#FAB429"/>
<path id="path_2" fill-rule="evenodd" clip-rule="evenodd" d="M84.6 67.6999C79.2981 67.6999 75 63.4018 75 58.0999C75 52.7979 79.2981 48.4999 84.6 48.4999C89.9019 48.4999 94.2 52.7979 94.2 58.0999C94.2 63.4018 89.9019 67.6999 84.6 67.6999ZM75 110.9C75 116.202 79.2981 120.5 84.6 120.5C89.9019 120.5 94.2 116.202 94.2 110.9C94.2 105.598 89.9019 101.3 84.6 101.3C79.2981 101.3 75 105.598 75 110.9ZM99 134.9C99 140.202 103.298 144.5 108.6 144.5C113.902 144.5 118.2 140.202 118.2 134.9C118.2 129.598 113.902 125.3 108.6 125.3C103.298 125.3 99 129.598 99 134.9ZM132.6 120.5C127.298 120.5 123 116.202 123 110.9C123 105.598 127.298 101.3 132.6 101.3C137.902 101.3 142.2 105.598 142.2 110.9C142.2 116.202 137.902 120.5 132.6 120.5ZM51 134.9C51 140.202 55.2981 144.5 60.6 144.5C65.9019 144.5 70.2 140.202 70.2 134.9C70.2 129.598 65.9019 125.3 60.6 125.3C55.2981 125.3 51 129.598 51 134.9ZM99 82.0999C99 87.4018 103.298 91.6999 108.6 91.6999C113.902 91.6999 118.2 87.4018 118.2 82.0999C118.2 76.7979 113.902 72.4999 108.6 72.4999C103.298 72.4999 99 76.7979 99 82.0999ZM132.6 67.6999C127.298 67.6999 123 63.4018 123 58.0999C123 52.7979 127.298 48.4999 132.6 48.4999C137.902 48.4999 142.2 52.7979 142.2 58.0999C142.2 63.4018 137.902 67.6999 132.6 67.6999ZM51 82.0999C51 87.4018 55.2981 91.6999 60.6 91.6999C65.9019 91.6999 70.2 87.4018 70.2 82.0999C70.2 76.7979 65.9019 72.4999 60.6 72.4999C55.2981 72.4999 51 76.7979 51 82.0999Z" fill="#FAB429"/>
</g>
</g>
</svg>
