<svg width="64" height="64" viewBox="0 0 64 64" fill="none" xmlns="http://www.w3.org/2000/svg">
<g opacity="0.06">
<rect width="64" height="64" rx="16" fill="#FFA800"/>
</g>
<path opacity="0.3" fill-rule="evenodd" clip-rule="evenodd" d="M31.2455 43.7549L32.3794 44.8889C32.8409 45.3503 32.8409 46.0986 32.3794 46.56C31.9179 47.0215 31.1697 47.0215 30.7082 46.56L27.557 43.4088C27.0955 42.9473 27.0955 42.1991 27.557 41.7376L30.7082 38.5864C31.1697 38.1249 31.9179 38.1249 32.3794 38.5864C32.8409 39.0479 32.8409 39.7961 32.3794 40.2576L31.2455 41.3915H39.028V43.7549H31.2455V43.7549ZM43.7548 31.8423L44.8887 30.7084C45.3502 30.2469 46.0984 30.2469 46.5599 30.7084C47.0214 31.1698 47.0214 31.9181 46.5599 32.3796L43.4087 35.5308C43.178 35.7615 42.8755 35.8769 42.5731 35.8769C42.2707 35.8769 41.9683 35.7615 41.7375 35.5308L38.5863 32.3796C38.1248 31.9181 38.1248 31.1698 38.5863 30.7084C39.0478 30.2469 39.796 30.2469 40.2575 30.7084L41.3914 31.8423V24.0598H43.7548V31.8423V31.8423ZM31.8422 21.6964H24.0597V19.333H31.8422L30.7082 18.1991C30.2468 17.7376 30.2468 16.9894 30.7082 16.5279C31.1697 16.0664 31.9179 16.0664 32.3794 16.5279L35.5306 19.6791C35.9921 20.1406 35.9921 20.8888 35.5306 21.3503L32.3794 24.5015C31.9179 24.963 31.1697 24.963 30.7082 24.5015C30.2468 24.04 30.2468 23.2918 30.7082 22.8303L31.8422 21.6964V21.6964ZM19.3329 31.2456L18.1989 32.3796C17.7375 32.841 16.9892 32.841 16.5278 32.3796C16.0663 31.9181 16.0663 31.1698 16.5278 30.7084L19.679 27.5571C20.1405 27.0957 20.8887 27.0957 21.3502 27.5571L24.5014 30.7084C24.9629 31.1698 24.9629 31.9181 24.5014 32.3796C24.0399 32.841 23.2917 32.841 22.8302 32.3796L21.6963 31.2456V39.0281H19.3329V31.2456Z" fill="#FAB429"/>
<path fill-rule="evenodd" clip-rule="evenodd" d="M26.0293 23.6659V17.3634C26.0293 16.0581 24.9711 15 23.6659 15H17.3634C16.0581 15 15 16.0581 15 17.3634V23.6659C15 24.9711 16.0581 26.0293 17.3634 26.0293H23.6659C24.9711 26.0293 26.0293 24.9711 26.0293 23.6659ZM23.6659 37.0585H17.3634C16.0581 37.0585 15 38.1167 15 39.422V45.7244C15 47.0297 16.0581 48.0878 17.3634 48.0878H23.6659C24.9711 48.0878 26.0293 47.0297 26.0293 45.7244V39.422C26.0293 38.1167 24.9711 37.0585 23.6659 37.0585ZM45.7244 26.0293H39.422C38.1167 26.0293 37.0585 24.9711 37.0585 23.6659V17.3634C37.0585 16.0581 38.1167 15 39.422 15H45.7244C47.0297 15 48.0878 16.0581 48.0878 17.3634V23.6659C48.0878 24.9711 47.0297 26.0293 45.7244 26.0293ZM37.0585 39.422V45.7244C37.0585 47.0297 38.1167 48.0878 39.422 48.0878H45.7244C47.0297 48.0878 48.0878 47.0297 48.0878 45.7244V39.422C48.0878 38.1167 47.0297 37.0585 45.7244 37.0585H39.422C38.1167 37.0585 37.0585 38.1167 37.0585 39.422Z" fill="#FAB429"/>
</svg>
