<svg width="192" height="192" viewBox="0 0 192 192" fill="none" xmlns="http://www.w3.org/2000/svg">
<g id="Icon">
<g id="Border" opacity="0.06">
<rect id="Shape" width="192" height="192" rx="16" fill="#FFA800"/>
</g>
<g id="Icon Pie Cart">
<path id="path" fill-rule="evenodd" clip-rule="evenodd" d="M96.0996 98.4001H136.9C138.225 98.4001 139.3 99.4746 139.3 100.8C139.3 125.984 118.884 146.4 93.6996 146.4C68.5154 146.4 48.0996 125.984 48.0996 100.8C48.0996 75.6159 68.5154 55.2001 93.6996 55.2001C95.0251 55.2001 96.0996 56.2746 96.0996 57.6001V98.4001Z" fill="#FAB429"/>
<path id="path_2" d="M148.9 86.3999C148.9 87.7253 147.826 88.7999 146.5 88.7999H108.1C106.775 88.7999 105.7 87.7253 105.7 86.3999V47.9999C105.7 46.6744 106.775 45.5999 108.1 45.5999C130.633 45.5999 148.9 63.8666 148.9 86.3999Z" fill="#FAB429"/>
</g>
</g>
</svg>
