<svg width="192" height="192" viewBox="0 0 192 192" fill="none" xmlns="http://www.w3.org/2000/svg">
<g id="Icon">
<g id="Border" opacity="0.06">
<rect id="Shape" width="192" height="192" rx="16" fill="#FFA800"/>
</g>
<g id="Icon_Protection">
<g id="Group">
<g id="Group_2">
<path id="Vector" d="M86.0822 130.943C86.0822 128.767 84.3186 127.004 82.1436 127.004H52.3981C50.223 127.004 48.4594 128.767 48.4594 130.943C48.4594 131.628 48.6349 132.273 48.9431 132.834H43.2861V141H91.2553V132.834H85.5985C85.9065 132.272 86.0822 131.628 86.0822 130.943Z" fill="#FAB429"/>
<path id="Vector_2" d="M76.7456 60.9581L103.16 77.5152C105.215 78.5486 107.767 77.8887 109.027 75.9286L110.295 73.959C111.634 71.8773 111.01 69.1185 108.901 67.7965L83.2151 51.6962C81.1065 50.3745 78.3117 50.9903 76.9724 53.0721L75.7049 55.0419C74.4445 57.0017 74.9243 59.5622 76.7456 60.9581Z" fill="#FAB429"/>
<path id="Vector_3" d="M149.988 125.257L149.969 124.844L149.935 124.454C149.918 124.188 149.881 123.951 149.848 123.708C149.718 122.735 149.496 121.907 149.224 121.157C148.673 119.67 147.894 118.543 146.938 117.699C146.7 117.486 146.445 117.299 146.192 117.11L145.434 116.54C144.93 116.158 144.417 115.791 143.907 115.419C143.398 115.044 142.883 114.68 142.368 114.317C141.854 113.951 141.337 113.589 140.817 113.233C139.782 112.513 138.735 111.812 137.686 111.112L136.107 110.072L134.52 109.046C133.459 108.368 132.396 107.691 131.325 107.026C130.257 106.359 129.184 105.698 128.105 105.047L124.865 103.098L121.604 101.183L118.325 99.2969L115.03 97.4359L111.719 95.5995L108.393 93.7884C107.28 93.1906 106.168 92.5915 105.048 92.0053C103.93 91.4161 102.814 90.8238 101.688 90.2467L100.669 91.8609L95.531 89.4263L101.274 80.3335L74.1235 63L60 85.3613L87.1507 102.695L92.8935 93.602L97.2705 97.2419L96.2511 98.8563C97.2497 99.6352 98.2573 100.398 99.2633 101.165C100.267 101.935 101.279 102.692 102.29 103.45L105.336 105.707L108.397 107.939L111.474 110.146L114.566 112.327L117.677 114.48L120.809 116.599C121.854 117.304 122.905 117.999 123.961 118.688C125.015 119.379 126.075 120.058 127.137 120.736L128.736 121.744L130.343 122.738C131.419 123.394 132.496 124.048 133.584 124.685C134.126 125.007 134.671 125.323 135.219 125.635C135.766 125.949 136.313 126.264 136.866 126.567C137.418 126.873 137.967 127.184 138.525 127.479L139.36 127.926C139.639 128.075 139.915 128.228 140.208 128.354C141.375 128.866 142.72 129.095 144.293 128.963C145.083 128.892 145.923 128.742 146.855 128.447C147.088 128.373 147.317 128.306 147.564 128.209L147.929 128.074L148.309 127.915C148.815 127.703 149.357 127.435 149.945 127.095C150.001 126.415 150.012 125.808 149.988 125.257Z" fill="#FAB429"/>
<path id="Vector_4" d="M53.0992 100.204L78.7847 116.304C80.8937 117.625 83.6886 117.01 85.0276 114.928L86.2949 112.958C87.5557 110.998 87.0755 108.438 85.2544 107.042L58.8398 90.4847C56.7856 89.4516 54.2335 90.1112 52.9727 92.0715L51.7056 94.0411C50.3661 96.123 50.9902 98.882 53.0992 100.204Z" fill="#FAB429"/>
</g>
</g>
</g>
</g>
</svg>
