<svg width="42" height="42" viewBox="0 0 42 42" fill="none" xmlns="http://www.w3.org/2000/svg">
<path opacity="0.3" fill-rule="evenodd" clip-rule="evenodd" d="M20.2113 33.3429L21.4019 34.5335C21.8864 35.0181 21.8864 35.8037 21.4019 36.2883C20.9173 36.7729 20.1317 36.7729 19.6471 36.2883L16.3384 32.9795C15.8538 32.495 15.8538 31.7093 16.3384 31.2248L19.6471 27.916C20.1317 27.4314 20.9173 27.4314 21.4019 27.916C21.8864 28.4005 21.8864 29.1862 21.4019 29.6707L20.2113 30.8613H28.3829V33.3429H20.2113ZM33.3457 20.8345L34.5363 19.6439C35.0209 19.1593 35.8065 19.1593 36.2911 19.6439C36.7756 20.1284 36.7756 20.9141 36.2911 21.3986L32.9823 24.7074C32.74 24.9497 32.4225 25.0708 32.1049 25.0708C31.7874 25.0708 31.4698 24.9497 31.2276 24.7074L27.9188 21.3986C27.4342 20.9141 27.4342 20.1284 27.9188 19.6439C28.4033 19.1593 29.189 19.1593 29.6735 19.6439L30.8641 20.8345V12.6629H33.3457V20.8345ZM20.8373 10.1814H12.6657V7.69977H20.8373L19.6467 6.50916C19.1621 6.0246 19.1621 5.23897 19.6467 4.75441C20.1312 4.26985 20.9168 4.26985 21.4014 4.75441L24.7102 8.06319C25.1947 8.54775 25.1947 9.33338 24.7102 9.81794L21.4014 13.1267C20.9168 13.6113 20.1312 13.6113 19.6467 13.1267C19.1621 12.6422 19.1621 11.8565 19.6467 11.372L20.8373 10.1814ZM7.70331 20.2081L6.5127 21.3987C6.02814 21.8833 5.24251 21.8833 4.75795 21.3987C4.27339 20.9142 4.27339 20.1285 4.75795 19.644L8.06673 16.3352C8.55129 15.8506 9.33692 15.8506 9.82148 16.3352L13.1303 19.644C13.6148 20.1285 13.6148 20.9142 13.1303 21.3987C12.6457 21.8833 11.8601 21.8833 11.3755 21.3987L10.1849 20.2081V28.3797H7.70331V20.2081Z" fill="#0A3229"/>
<path fill-rule="evenodd" clip-rule="evenodd" d="M14.7292 12.2491V5.63149C14.7292 4.26095 13.6181 3.1499 12.2476 3.1499H5.63002C4.25948 3.1499 3.14844 4.26095 3.14844 5.63149V12.2491C3.14844 13.6196 4.25948 14.7306 5.63002 14.7306H12.2476C13.6181 14.7306 14.7292 13.6196 14.7292 12.2491ZM12.2476 26.3115H5.63004C4.2595 26.3115 3.14846 27.4225 3.14846 28.7931V35.4106C3.14846 36.7812 4.2595 37.8922 5.63004 37.8922H12.2476C13.6181 37.8922 14.7292 36.7812 14.7292 35.4106V28.7931C14.7292 27.4225 13.6181 26.3115 12.2476 26.3115ZM35.4084 14.7306H28.7909C27.4203 14.7306 26.3093 13.6196 26.3093 12.249V5.63149C26.3093 4.26095 27.4203 3.1499 28.7909 3.1499H35.4084C36.779 3.1499 37.89 4.26095 37.89 5.63149V12.249C37.89 13.6196 36.779 14.7306 35.4084 14.7306ZM26.3093 28.7931V35.4106C26.3093 36.7812 27.4203 37.8922 28.7909 37.8922H35.4084C36.779 37.8922 37.89 36.7812 37.89 35.4106V28.7931C37.89 27.4225 36.779 26.3115 35.4084 26.3115H28.7909C27.4203 26.3115 26.3093 27.4225 26.3093 28.7931Z" fill="#0A3229"/>
</svg>
