<svg width="42" height="42" viewBox="0 0 42 42" fill="none" xmlns="http://www.w3.org/2000/svg">
<path fill-rule="evenodd" clip-rule="evenodd" d="M21.0383 21.8401H35.3183C35.7822 21.8401 36.1583 22.2162 36.1583 22.6801C36.1583 31.4946 29.0127 38.6401 20.1983 38.6401C11.3838 38.6401 4.23828 31.4946 4.23828 22.6801C4.23828 13.8656 11.3838 6.72009 20.1983 6.72009C20.6622 6.72009 21.0383 7.09617 21.0383 7.56009V21.8401Z" fill="#0A3229"/>
<path d="M39.5184 17.6399C39.5184 18.1038 39.1424 18.4799 38.6784 18.4799H25.2384C24.7745 18.4799 24.3984 18.1038 24.3984 17.6399V4.19986C24.3984 3.73594 24.7745 3.35986 25.2384 3.35986C33.1251 3.35986 39.5184 9.75324 39.5184 17.6399Z" fill="#EAF3F2"/>
</svg>
