<svg width="705" height="513" viewBox="0 0 705 513" fill="none" xmlns="http://www.w3.org/2000/svg">
<path opacity="0.34" fill-rule="evenodd" clip-rule="evenodd" d="M306.373 512.479C419.133 512.479 510.543 507.833 510.543 502.102C510.543 496.37 419.133 491.724 306.373 491.724C193.613 491.724 102.203 496.37 102.203 502.102C102.203 507.833 193.613 512.479 306.373 512.479Z" fill="#061C17"/>
<path d="M0.61883 159.021L61.2632 98.3769C61.8123 97.8278 62.7025 97.8278 63.2516 98.3769L107.989 143.115C108.538 143.664 108.538 144.554 107.989 145.103L47.3449 205.747C46.7958 206.296 45.9056 206.296 45.3565 205.747L0.61883 161.01C0.0697649 160.461 0.0697649 159.57 0.61883 159.021Z" fill="url(#paint0_linear)"/>
<path d="M0.61883 159.021L61.2632 98.3769C61.8123 97.8278 62.7025 97.8278 63.2516 98.3769L68.7195 103.845L6.08677 166.478L0.61883 161.01C0.0697649 160.461 0.0697649 159.57 0.61883 159.021Z" fill="url(#paint1_linear)"/>
<path d="M8.07592 160.512C7.52686 161.062 6.63665 161.062 6.08758 160.512C5.53851 159.963 5.53851 159.073 6.08758 158.524C6.63665 157.975 7.52686 157.975 8.07592 158.524C8.62499 159.073 8.62499 159.963 8.07592 160.512Z" fill="white"/>
<path d="M11.5564 157.033C11.0073 157.582 10.1171 157.582 9.56805 157.033C9.01898 156.484 9.01898 155.594 9.56805 155.045C10.1171 154.496 11.0073 154.496 11.5564 155.045C12.1055 155.594 12.1055 156.484 11.5564 157.033Z" fill="white"/>
<path d="M99.3125 377.371C99.3125 377.371 108.979 369.382 116.07 364.362C123.161 359.343 132.367 358.859 136.969 360.078C142.154 363.851 155.712 374.128 161.303 379.431C158.006 380.054 155.078 380.054 150.706 381.163C134.992 385.148 129.442 398.582 127.343 399.431C123.429 401.014 125.085 400.286 122.722 400.588C120.358 400.891 99.3125 377.371 99.3125 377.371Z" fill="url(#paint2_linear)"/>
<path d="M100.231 372.355C100.231 372.355 91.3295 381.543 96.6865 385.17C100.529 387.771 112.394 395.469 117.861 398.74C123.161 401.911 127.642 398.959 127.642 398.959C127.642 398.959 121.796 401.334 120.093 396.948C118.39 392.562 124.786 388.03 124.786 388.03L100.231 372.355Z" fill="url(#paint3_linear)"/>
<path d="M405.597 428.379C399.073 422.804 393.835 418.592 389.884 415.741C382.897 410.702 373.826 410.215 369.292 411.439C364.183 415.228 350.824 425.548 345.315 430.872C348.564 431.497 351.449 431.497 355.756 432.611C371.239 436.612 376.708 450.101 378.776 450.954C382.633 452.543 381.001 451.812 383.33 452.116C384.76 452.302 392.198 446.483 405.642 434.658C407.378 433.132 407.538 430.497 406.001 428.774C405.876 428.633 405.741 428.501 405.597 428.379Z" fill="url(#paint4_linear)"/>
<path d="M566.797 381.524L508.003 340.867C508.003 340.867 484.613 392.561 438.883 414.382L489.191 461.457C489.191 461.457 548.232 439.692 566.797 381.524Z" fill="url(#paint5_linear)"/>
<g opacity="0.517119">
<path d="M467.47 411.069L462.885 414.137L500.279 444.846L505.876 441.871L467.47 411.069Z" fill="#C5D7F3" style="mix-blend-mode:multiply"/>
</g>
<g opacity="0.517119">
<path d="M506.602 361.2L550.718 388.931L547.727 393.66L503.811 365.997L506.602 361.2Z" fill="#C5D7F3" style="mix-blend-mode:multiply"/>
</g>
<g opacity="0.517119">
<path d="M499.983 372.564L544.099 400.294L541.108 405.024L497.191 377.361L499.983 372.564Z" fill="#C5D7F3" style="mix-blend-mode:multiply"/>
</g>
<g opacity="0.517119">
<path d="M514.574 399.177L536.746 412.786L533.755 417.516L511.783 403.974L514.574 399.177Z" fill="#C5D7F3" style="mix-blend-mode:multiply"/>
</g>
<g opacity="0.517119">
<path d="M493.824 382.035L508.155 392.799C507.777 393.708 507.286 394.742 506.68 395.902C503.913 401.202 500.007 405.827 495.243 409.444C493.303 410.917 491.672 412.2 490.349 413.295L475.607 401.78C476.326 401.354 477.123 400.868 477.999 400.323C484.142 396.5 489.151 391.106 492.509 384.7C493.013 383.738 493.452 382.849 493.824 382.035Z" fill="#C5D7F3" style="mix-blend-mode:multiply"/>
</g>
<g opacity="0.517119">
<path d="M506.365 408.99L526.222 424.731C523.935 428.14 521.38 431.022 518.556 433.375C515.733 435.728 512.757 437.456 509.63 438.558L489.488 423.12C493.733 420.614 497.084 418.322 499.541 416.244C501.998 414.166 504.273 411.749 506.365 408.99Z" fill="#C5D7F3" style="mix-blend-mode:multiply"/>
</g>
<path d="M205.533 389.317C205.533 389.317 205.533 369.985 212.072 357.788C212.072 357.788 236.615 390.723 263.994 387.604C264.556 404.045 251.863 456.787 309.917 466.319C292.89 466.319 279.388 459.679 279.388 459.679C279.388 459.679 236.285 441.269 221.607 426.189C206.93 411.109 205.533 389.317 205.533 389.317Z" fill="url(#paint6_linear)"/>
<path d="M205.281 387.632C205.281 387.632 209.375 430.793 252.023 411.739C252.023 411.739 266.766 458.989 313.825 466.171C313.825 466.171 265.131 465.37 236.495 444.649C207.859 423.929 205.281 387.632 205.281 387.632Z" fill="url(#paint7_linear)"/>
<path d="M571.096 229.139C569.9 219.193 565.373 210.273 558.665 203.535C556.313 200.751 553.146 198.312 549.095 196.256C545.666 194.327 541.95 192.848 538.027 191.901C538.161 187.428 541.242 165.945 544.438 144.32C602.969 152.6 591.368 207.78 586.977 216.205C585.008 219.983 579.714 224.295 571.096 229.139Z" fill="url(#paint8_linear)"/>
<path fill-rule="evenodd" clip-rule="evenodd" d="M544.382 144.239C571.439 147.884 592.002 166.058 592.002 187.928C592.002 196.852 588.579 205.16 582.688 212.117C585.606 206.808 587.22 200.972 587.22 194.846C587.22 173.984 568.509 156.486 543.301 151.752L544.382 144.239Z" fill="url(#paint9_linear)"/>
<path d="M549.295 151.08C550.259 151.08 551.041 150.296 551.041 149.33C551.041 148.364 550.259 147.581 549.295 147.581C548.331 147.581 547.549 148.364 547.549 149.33C547.549 150.296 548.331 151.08 549.295 151.08Z" fill="url(#paint10_linear)"/>
<path d="M555.305 152.791C556.269 152.791 557.051 152.007 557.051 151.041C557.051 150.075 556.269 149.292 555.305 149.292C554.34 149.292 553.559 150.075 553.559 151.041C553.559 152.007 554.34 152.791 555.305 152.791Z" fill="url(#paint11_linear)"/>
<path d="M544.619 231.586C566.549 228.558 584.175 215.981 589.972 199.644C590.407 199.136 590.642 198.86 590.653 198.869C590.653 246.113 575.308 273.002 544.619 279.536V231.586H544.619Z" fill="url(#paint12_linear)"/>
<path d="M186.107 82.9742L233.934 121.805C234.835 122.537 234.973 123.861 234.244 124.764L206.867 158.661C206.137 159.564 204.816 159.703 203.916 158.972L156.088 120.141C155.188 119.41 155.049 118.085 155.778 117.182L183.156 83.2852C183.885 82.3823 185.206 82.2431 186.107 82.9742Z" fill="url(#paint13_linear)"/>
<path d="M156.486 120.005C156.333 119.881 156.24 119.699 156.228 119.503C156.204 119.116 156.498 118.784 156.883 118.76L197.282 116.291C198.36 116.225 199.312 116.991 199.481 118.061L205.891 158.544C205.922 158.74 205.868 158.94 205.743 159.095C205.5 159.396 205.06 159.442 204.76 159.199L156.486 120.005Z" fill="url(#paint14_linear)"/>
<path d="M185.806 82.73L234.244 122.057C234.544 122.301 234.59 122.742 234.347 123.043C234.23 123.189 234.059 123.281 233.873 123.3L191.799 127.537C190.658 127.652 189.636 126.826 189.505 125.683L184.671 83.3547C184.627 82.97 184.902 82.6223 185.286 82.5783C185.472 82.5569 185.66 82.6115 185.806 82.73Z" fill="url(#paint15_linear)"/>
<path d="M340.203 152.827C340.201 152.825 340.2 152.824 340.198 152.822C339.589 152.338 339.493 151.458 339.982 150.857L349.179 139.552C349.639 138.987 350.459 138.863 351.068 139.268L354.339 141.438C354.881 141.797 355.601 141.743 356.082 141.308L395.212 105.885C395.22 105.879 395.227 105.872 395.235 105.866C395.822 105.356 396.715 105.414 397.23 105.995L426.619 139.12C427.112 139.676 427.082 140.515 426.55 141.036L382.28 184.367C381.771 184.866 380.965 184.909 380.405 184.468L340.203 152.827Z" fill="url(#paint16_linear)"/>
<path d="M380.199 184.375L355.351 154.08C354.891 153.519 354.939 152.704 355.461 152.199L406.909 102.499C407.467 101.959 408.362 101.969 408.908 102.522C409.013 102.627 409.099 102.749 409.165 102.882L427.382 139.513C427.652 140.055 427.539 140.706 427.102 141.129L382.286 184.494C381.728 185.034 380.832 185.024 380.286 184.472C380.256 184.441 380.226 184.409 380.199 184.375Z" fill="url(#paint17_linear)"/>
<path d="M381.271 179.783L379.898 178.34L393.194 165.806L394.272 167.473L381.271 179.783Z" fill="#A3C1EA"/>
<path d="M297.412 228.04L316.688 217.709L319.463 217.709C320.142 217.709 320.723 218.195 320.845 218.864L330.825 273.719C330.964 274.484 330.459 275.217 329.696 275.357C329.631 275.369 329.565 275.376 329.499 275.379L306.386 276.301C305.686 276.329 305.073 275.836 304.948 275.145L296.693 229.533C296.584 228.932 296.874 228.328 297.412 228.04Z" fill="url(#paint18_linear)"/>
<path d="M294.673 228.065L316.404 217.845C317.106 217.515 317.942 217.818 318.271 218.523C318.324 218.635 318.361 218.754 318.383 218.876L328.041 273.81C328.176 274.576 327.666 275.306 326.902 275.441C326.865 275.448 326.827 275.453 326.789 275.456L303.646 277.636C302.917 277.704 302.258 277.201 302.131 276.478L293.887 229.585C293.776 228.958 294.099 228.335 294.673 228.065Z" fill="url(#paint19_linear)"/>
<path d="M296.838 232.978L316.233 224.168C316.586 224.008 317.002 224.165 317.162 224.519C317.186 224.573 317.204 224.629 317.214 224.687L325.155 269.856C325.223 270.239 324.968 270.604 324.586 270.672C324.568 270.675 324.55 270.678 324.533 270.679L303.946 272.706C303.58 272.742 303.249 272.49 303.186 272.127L296.436 233.741C296.381 233.425 296.546 233.11 296.838 232.978Z" fill="url(#paint20_linear)"/>
<path d="M293.389 288.96L283.352 287.647C287.517 280.52 290.191 274.054 291.376 268.249C292.641 264.818 291.12 264.037 292.341 259.05C293.023 256.262 294.402 252.664 297.788 251.812C298.202 254.841 298.602 256.59 299.021 259.05C299.441 261.51 300.54 255.869 303.301 256.59C306.062 257.31 300.625 262.681 300.625 264.96C300.625 268.6 299.817 271.018 298.202 272.214L293.389 288.96Z" fill="url(#paint21_linear)"/>
<path d="M279.999 288.058C279.999 288.058 288.831 276.327 288.831 274.839C288.831 273.351 298.524 273.451 298.524 276.745C298.524 280.04 294.822 293.445 293.054 294.578C291.287 295.711 278.877 295.674 278.877 295.674L279.999 288.058Z" fill="#D09015"/>
<path d="M288.627 292.428C288.627 292.428 331.787 292.394 342.567 275.326C353.348 258.258 349.011 249.912 357.165 247.029C365.319 244.147 376.689 256.146 380.138 262.044C383.587 267.942 396.557 331.361 396.557 331.361L296.833 318.572L288.627 292.428Z" fill="#FFF8EC"/>
<path d="M284.629 296.45C284.629 296.45 336.545 293.319 350.824 278.66C357.205 272.11 360.517 269.664 360.549 262.472C360.581 255.279 352.016 253.166 357.205 249.053C365.097 242.797 388.116 265.974 390.347 269.788C393.796 275.686 396.556 352.485 396.556 352.485L296.832 339.696L284.629 296.45Z" fill="#E8D2AE"/>
<path fill-rule="evenodd" clip-rule="evenodd" d="M259.04 289.272C259.04 289.272 251.867 285.831 247.189 277.074C247.189 277.074 227.029 264.762 225.781 282.902C228.169 292.083 249.859 311.154 249.859 311.154L251.408 312.124L267.46 297.091L259.04 289.272Z" fill="url(#paint22_linear)"/>
<path fill-rule="evenodd" clip-rule="evenodd" d="M246.231 259.953C247.006 260.146 247.795 260.285 248.6 260.37C252.866 260.82 251.962 264.007 249.838 266.43C253.385 275.285 254.76 281.372 253.962 284.69C252.744 289.753 245.085 292.721 229.635 290.322L214.62 279.456C211.381 282.642 208.248 281.973 205.22 277.449C200.678 270.664 206.06 268.154 209.164 268.699C212.829 263.912 212.747 258.376 208.917 252.092C216.721 251.48 222.567 250.126 226.454 248.031C230.342 245.936 232.88 243.157 234.069 239.694C237.319 241.731 239.51 245.208 240.642 250.125L246.231 259.953Z" fill="url(#paint23_linear)"/>
<path fill-rule="evenodd" clip-rule="evenodd" d="M231.818 243.742C232.813 242.517 233.563 241.167 234.069 239.694C237.318 241.731 239.509 245.208 240.641 250.125L246.231 259.953C246.318 259.975 246.406 259.996 246.493 260.016C241.812 260.487 237.6 256.614 233.855 248.399C233.081 246.702 232.402 245.149 231.818 243.742L231.818 243.742Z" fill="url(#paint24_linear)"/>
<path fill-rule="evenodd" clip-rule="evenodd" d="M183.653 281.846C162.59 283.606 160.484 268.115 168.909 238.542C177.334 208.968 186.111 186.083 154.867 170.24C123.623 154.397 82.5493 185.379 112.389 223.051C142.229 260.722 132.048 285.015 162.59 292.408C193.132 299.801 200.504 283.606 200.504 283.606C200.504 283.606 190.244 288.405 183.653 281.846Z" fill="#40534F"/>
<path fill-rule="evenodd" clip-rule="evenodd" d="M182.599 280.085C182.599 280.085 179.791 285.719 184.706 289.943C189.62 294.168 195.939 290.295 195.939 290.295L182.599 280.085Z" fill="url(#paint25_linear)"/>
<path fill-rule="evenodd" clip-rule="evenodd" d="M234.204 239.95C233.034 248.165 227.183 253.563 216.652 256.145C217.822 262.717 217.003 267.176 214.194 269.524L216.301 275.157C213.024 271.871 210.567 270.228 208.928 270.228C206.471 270.228 202.258 273.396 205.769 277.973C208.109 281.025 211.035 281.494 214.545 279.382C220.396 280.555 227.534 284.663 235.96 291.704V296.985C231.396 299.097 173.121 299.189 176.982 261.778C177.552 256.261 178.448 251.241 179.67 246.717L179.67 246.717C185.163 226.388 206.049 214.373 226.32 219.882C228.706 220.531 231.023 221.411 233.239 222.51C241.324 226.523 245.768 234.745 240.523 250.16L239.576 247.309C238.594 244.355 236.716 241.782 234.204 239.95Z" fill="#40534F"/>
<path fill-rule="evenodd" clip-rule="evenodd" d="M175.928 294.599C171.928 294.323 167.482 293.592 162.59 292.408C132.048 285.015 142.229 260.722 112.389 223.051C89.0747 193.617 109.05 168.268 133.803 166.145L133.803 166.368C119.293 173.174 113.676 182.211 116.953 193.477C121.868 210.376 141.878 207.912 139.069 227.627C136.261 247.343 152.058 237.133 152.058 257.905C152.058 271.552 162.968 288.543 175.928 294.599Z" fill="#293E39"/>
<path fill-rule="evenodd" clip-rule="evenodd" d="M219.846 283.239C221.596 279.692 224.744 277.819 229.29 277.621C240.056 277.151 246.843 273.513 249.651 266.707C249.864 266.991 250.071 267.267 250.273 267.534C253.495 275.793 254.724 281.512 253.96 284.69C252.742 289.752 245.083 292.721 229.633 290.322L219.846 283.239L219.846 283.239Z" fill="url(#paint26_linear)"/>
<path d="M250.928 294.215C250.928 294.215 258.08 293.11 258.08 291.079C258.08 289.048 257.219 288.279 257.219 288.279C257.219 288.279 281.828 287.15 286.876 287.899C291.924 288.648 297.492 298.998 298.068 298.998C298.644 298.998 312.288 310.476 317.783 310.476C323.278 310.476 337.456 316.587 337.456 316.587L323.323 329.902L265.142 322.186L250.928 294.215Z" fill="#A06C07"/>
<path d="M470.5 234.128C469.644 233.548 466.183 226.738 472.755 225.629C479.327 224.521 480.869 224.236 483.401 223.425C485.09 222.884 486.319 221.997 487.089 220.763L486.211 229.756L481.162 233.511C474.624 234.309 471.07 234.515 470.5 234.128Z" fill="url(#paint27_linear)"/>
<path d="M478.955 234.307C478.949 232.356 483.822 232.086 485.145 229.107C486.467 226.127 483.688 222.666 484.389 222.066C486.439 220.314 488.39 217.315 491.218 214.317C498.174 206.942 498.992 206.292 502.994 209.604C504.009 210.057 500.106 220.219 491.285 240.09C488.805 239.946 486.63 239.494 484.76 238.734C481.956 237.594 478.962 236.257 478.955 234.307Z" fill="#D09015"/>
<path d="M389.12 233.126C399.252 228.02 470.726 219.359 475.401 221.944C477.922 223.338 478.179 228.156 476.172 236.397C475.762 238.08 474.501 239.424 472.85 239.936C438.611 250.555 420.939 255.425 419.832 254.548C418.131 253.199 392.706 328.664 384.43 341.637C376.154 354.61 365.863 373.88 348.559 349.371C337.023 333.032 338.388 322.088 352.652 316.539C370.209 264.335 382.365 236.53 389.12 233.126Z" fill="#D09115"/>
<path d="M489.648 191.734C488.672 191.396 483.571 185.717 489.633 182.94C495.695 180.164 497.111 179.488 499.348 178.047C500.839 177.087 501.798 175.911 502.223 174.519L503.695 183.433L499.788 188.371C493.679 190.839 490.299 191.96 489.648 191.734Z" fill="url(#paint28_linear)"/>
<path d="M405.391 220.886C415.576 209.223 486.421 178.291 491.665 179.301C494.518 179.851 495.65 184.527 495.061 193.33C494.955 194.918 493.968 196.311 492.509 196.934C477.069 203.528 457.197 216.082 432.892 234.595C429.865 272.855 427.06 296.953 424.477 306.888C420.604 321.791 406.629 362.304 382.62 344.358C366.615 332.394 363.569 315.562 373.483 293.862C387.965 252.987 398.601 228.662 405.391 220.886Z" fill="#FFB525"/>
<path d="M490.475 183.619C490.475 183.619 429.743 213.544 416.052 225.867C402.361 238.189 406.573 306.491 406.573 306.491" stroke="#BD8313" stroke-width="0.741599" stroke-linecap="round" stroke-linejoin="round" stroke-dasharray="3.71 7.42"/>
<path d="M497.861 189.713C497.352 187.83 501.989 186.305 502.498 183.083C503.007 179.862 499.429 177.24 499.951 176.479C501.48 174.254 502.589 170.851 504.547 167.221C509.364 158.292 509.986 157.452 514.706 159.612C515.804 159.786 514.656 170.615 511.263 192.098C508.831 192.603 506.614 192.731 504.612 192.482C501.608 192.109 498.371 191.595 497.861 189.713Z" fill="#FFB525"/>
<path d="M238.441 296.33C244.062 290.001 248.134 286.837 250.656 286.837C254.439 286.837 254.439 291.394 257.257 292.681C265.63 296.506 318.021 330.018 351.191 301.574C384.361 273.131 384.234 242.24 390.665 242.24C397.096 242.24 420.141 274.497 426.936 294.872C431.067 307.259 433.572 320.451 434.45 334.449C434.612 337.03 433.587 339.542 431.668 341.269C397.832 371.712 362.436 384.881 325.481 380.777C268.413 374.44 231.21 332.768 227.035 316.115C224.251 305.014 228.053 298.419 238.441 296.33Z" fill="#FFF8EC"/>
<path d="M381.591 373.274C379.912 373.928 378.23 374.543 376.545 375.119L376.136 373.589L370.106 375.209C368.679 375.592 367.212 374.743 366.83 373.312C366.448 371.88 367.295 370.409 368.722 370.026L374.751 368.406L373.135 362.359C372.873 361.376 373.19 360.374 373.878 359.718C374.749 359.516 375.57 359.295 376.346 359.056C377.267 359.279 378.041 359.988 378.303 360.97L379.919 367.017L385.948 365.397C387.375 365.013 388.842 365.863 389.224 367.294C389.607 368.725 388.76 370.196 387.333 370.58L381.304 372.2L381.591 373.274Z" fill="#7DE9A2"/>
<path d="M308.608 312.202C318.293 313.547 328.278 313.185 337.567 309.672C335.51 318.468 330.706 327.246 323.156 336.005C302.175 360.347 238.376 336.601 232.31 325.75C226.244 314.9 233.72 297.624 245.925 295.123C250.178 294.251 252.937 315.137 259.483 318.109C271.718 323.663 289.519 313.734 301.086 313.734C303.885 313.734 306.392 313.223 308.608 312.202Z" fill="#D09015"/>
<path d="M426.95 294.914C431.073 307.289 433.573 320.467 434.451 334.449C434.613 337.03 433.587 339.543 431.668 341.269C397.832 371.712 362.436 384.881 325.481 380.777C300.126 377.962 278.692 368.171 262.334 356.698C263.018 356.971 263.706 357.252 264.398 357.541C329.343 384.65 305.471 359.301 354.268 361.061C403.065 362.822 381.299 336.769 404.469 330.431C419.722 326.26 427.216 314.42 426.95 294.914V294.914Z" fill="#E8D2AE"/>
<path d="M389.374 252.624C389.374 252.624 365.853 315.292 322.322 318.813" stroke="#E7D0A9" stroke-width="0.741599"/>
<path fill-rule="evenodd" clip-rule="evenodd" d="M378.849 300.574L378.849 300.574C378.655 300.397 378.504 300.179 378.407 299.936C378.053 299.049 378.483 298.043 379.367 297.689L381.165 296.968C381.698 296.754 382.296 296.768 382.819 297.006L394.771 302.455C396.378 303.187 397.36 304.847 397.229 306.613L396.157 321.134C396.089 322.057 395.429 322.828 394.53 323.036L393.591 323.253C393.585 323.255 393.578 323.256 393.572 323.257C392.436 323.509 391.312 322.79 391.061 321.651L391.061 321.651C390.071 317.157 388.582 313.226 386.595 309.856C384.697 306.64 382.115 303.545 378.849 300.574Z" stroke="#E7D0A9" stroke-width="0.741599"/>
<path fill-rule="evenodd" clip-rule="evenodd" d="M394.399 306.891C395.051 306.891 395.58 306.36 395.58 305.705C395.58 305.051 395.051 304.52 394.399 304.52C393.746 304.52 393.217 305.051 393.217 305.705C393.217 306.36 393.746 306.891 394.399 306.891Z" fill="#E7D0A9"/>
<path d="M389.373 252.624C389.373 252.624 422.723 288.183 426.936 339.585" stroke="#E7D0A9" stroke-width="0.741599" stroke-linecap="round" stroke-linejoin="round" stroke-dasharray="3.71 7.42"/>
<path d="M323.232 287.364L322.504 273.902C320.276 270.422 319.162 266.862 319.162 263.222C319.162 257.991 313.481 255.25 315.119 253.705C315.448 253.393 316.841 253.125 318.604 253.705C320.212 254.233 322.189 258.859 323.908 259.646C324.649 259.986 325.507 257.453 326.04 255.821C326.441 254.593 326.777 252.069 326.777 251.442C326.777 250.816 326.04 247.991 326.04 247.382C328.849 246.1 334.297 250.347 334.979 253.135C335.793 256.46 334.671 261.911 331.612 269.488L333.269 286.051L323.232 287.364Z" fill="url(#paint29_linear)"/>
<path d="M320.966 279.277C320.966 279.277 315.219 313.12 297.463 313.12C279.707 313.12 253.637 292.192 241.432 294.693C229.228 297.194 226.242 307.858 232.308 318.709C238.375 329.559 302.173 353.305 323.155 328.964C344.136 304.622 336.837 280.092 336.837 280.092C336.837 280.092 333.774 277.021 329.675 276.811C325.576 276.6 320.966 279.277 320.966 279.277Z" fill="#FFB525"/>
<path d="M238.42 307.195C238.42 307.195 289.674 333.952 311.439 321.277C333.205 308.603 328.992 279.733 328.992 279.733" stroke="#BD8313" stroke-width="0.741599"/>
<path d="M236.049 151.185L319.239 128.943C319.993 128.742 320.767 129.188 320.969 129.939L337.413 191.173C337.615 191.925 337.168 192.697 336.414 192.899L253.224 215.14C252.471 215.342 251.696 214.896 251.495 214.144L235.05 152.91C234.849 152.158 235.296 151.386 236.049 151.185Z" fill="url(#paint30_linear)"/>
<path fill-rule="evenodd" clip-rule="evenodd" d="M320.25 138.153L334.319 190.542L253.856 212.054L239.787 159.665L320.25 138.153Z" fill="url(#paint31_linear)"/>
<path d="M241.784 156.214C241.03 156.416 240.256 155.97 240.054 155.218C239.853 154.467 240.299 153.694 241.053 153.493C241.806 153.291 242.58 153.737 242.782 154.489C242.984 155.24 242.537 156.013 241.784 156.214Z" fill="#F2F5FF"/>
<path d="M246.557 154.938C245.804 155.139 245.03 154.693 244.828 153.942C244.626 153.19 245.073 152.418 245.826 152.217C246.579 152.015 247.354 152.461 247.555 153.213C247.757 153.964 247.31 154.737 246.557 154.938Z" fill="#F2F5FF"/>
<path d="M260.36 200.72L257.344 198.89L268.915 179.897L282.562 182.341L292.533 162.089L304.597 165.984L314.132 148.596L317.229 150.287L306.291 170.232L294.354 166.378L284.557 186.276L270.673 183.79L260.36 200.72Z" fill="url(#paint32_linear)"/>
<defs>
<linearGradient id="paint0_linear" x1="-94.3494" y1="73.9241" x2="-185.03" y2="371.231" gradientUnits="userSpaceOnUse">
<stop stop-color="#F7FAFF"/>
<stop offset="1" stop-color="#6B9AD9"/>
</linearGradient>
<linearGradient id="paint1_linear" x1="45.1526" y1="53.9848" x2="-33.9247" y2="156.728" gradientUnits="userSpaceOnUse">
<stop stop-color="#E5EDFF"/>
<stop offset="1" stop-color="#6B9AD9"/>
</linearGradient>
<linearGradient id="paint2_linear" x1="88.6683" y1="335.684" x2="68.2817" y2="412.509" gradientUnits="userSpaceOnUse">
<stop stop-color="#F7FAFF"/>
<stop offset="1" stop-color="#6B9AD9"/>
</linearGradient>
<linearGradient id="paint3_linear" x1="101.25" y1="368.171" x2="86.431" y2="406.107" gradientUnits="userSpaceOnUse">
<stop stop-color="#E5EDFF"/>
<stop offset="1" stop-color="#6B9AD9"/>
</linearGradient>
<linearGradient id="paint4_linear" x1="461.016" y1="401.711" x2="485.25" y2="520.653" gradientUnits="userSpaceOnUse">
<stop stop-color="#F7FAFF"/>
<stop offset="1" stop-color="#6B9AD9"/>
</linearGradient>
<linearGradient id="paint5_linear" x1="385.79" y1="314.043" x2="288.578" y2="539.082" gradientUnits="userSpaceOnUse">
<stop stop-color="#EEF3FF"/>
<stop offset="1" stop-color="#6B9AD9"/>
</linearGradient>
<linearGradient id="paint6_linear" x1="162.207" y1="333.647" x2="68.89" y2="529.518" gradientUnits="userSpaceOnUse">
<stop stop-color="#EEF3FF"/>
<stop offset="1" stop-color="#6B9AD9"/>
</linearGradient>
<linearGradient id="paint7_linear" x1="226.934" y1="375.906" x2="190.249" y2="486.24" gradientUnits="userSpaceOnUse">
<stop stop-color="#E5EDFF"/>
<stop offset="1" stop-color="#6B9AD9"/>
</linearGradient>
<linearGradient id="paint8_linear" x1="491.801" y1="125.473" x2="391.251" y2="331.053" gradientUnits="userSpaceOnUse">
<stop stop-color="#F7FAFF"/>
<stop offset="1" stop-color="#6B9AD9"/>
</linearGradient>
<linearGradient id="paint9_linear" x1="522.379" y1="176.632" x2="597.46" y2="232.677" gradientUnits="userSpaceOnUse">
<stop stop-color="#E5EDFF"/>
<stop offset="1" stop-color="#6B9AD9"/>
</linearGradient>
<linearGradient id="paint10_linear" x1="549.84" y1="145.334" x2="545.799" y2="150.574" gradientUnits="userSpaceOnUse">
<stop stop-color="#E5EDFF"/>
<stop offset="1" stop-color="#6B9AD9"/>
</linearGradient>
<linearGradient id="paint11_linear" x1="555.85" y1="147.045" x2="551.809" y2="152.285" gradientUnits="userSpaceOnUse">
<stop stop-color="#E5EDFF"/>
<stop offset="1" stop-color="#6B9AD9"/>
</linearGradient>
<linearGradient id="paint12_linear" x1="574.818" y1="147.085" x2="482.657" y2="215.417" gradientUnits="userSpaceOnUse">
<stop stop-color="#E5EDFF"/>
<stop offset="1" stop-color="#6B9AD9"/>
</linearGradient>
<linearGradient id="paint13_linear" x1="162.597" y1="84.5258" x2="166.513" y2="147.357" gradientUnits="userSpaceOnUse">
<stop stop-color="#FFE579"/>
<stop offset="1" stop-color="#FEC644"/>
</linearGradient>
<linearGradient id="paint14_linear" x1="136.135" y1="69.5614" x2="132.01" y2="157.042" gradientUnits="userSpaceOnUse">
<stop stop-color="#FFEDBF"/>
<stop offset="1" stop-color="#FEC644"/>
</linearGradient>
<linearGradient id="paint15_linear" x1="181.956" y1="77.6819" x2="181.956" y2="127.547" gradientUnits="userSpaceOnUse">
<stop stop-color="#FFE579"/>
<stop offset="1" stop-color="#FEB755"/>
</linearGradient>
<linearGradient id="paint16_linear" x1="396.94" y1="54.6433" x2="308.084" y2="181.813" gradientUnits="userSpaceOnUse">
<stop stop-color="#E5EDFF"/>
<stop offset="1" stop-color="#6B9AD9"/>
</linearGradient>
<linearGradient id="paint17_linear" x1="291.68" y1="83.704" x2="214.432" y2="305.464" gradientUnits="userSpaceOnUse">
<stop stop-color="#F7FAFF"/>
<stop offset="1" stop-color="#6B9AD9"/>
</linearGradient>
<linearGradient id="paint18_linear" x1="300.797" y1="235.513" x2="306" y2="279.553" gradientUnits="userSpaceOnUse">
<stop stop-color="#1542AB"/>
<stop offset="1" stop-color="#2B68EE"/>
</linearGradient>
<linearGradient id="paint19_linear" x1="306.084" y1="215.12" x2="297.515" y2="243.384" gradientUnits="userSpaceOnUse">
<stop stop-color="#3485F7"/>
<stop offset="1" stop-color="#1A57CF"/>
</linearGradient>
<linearGradient id="paint20_linear" x1="271.308" y1="213.305" x2="211.832" y2="328.612" gradientUnits="userSpaceOnUse">
<stop stop-color="#F7FAFF"/>
<stop offset="1" stop-color="#6B9AD9"/>
</linearGradient>
<linearGradient id="paint21_linear" x1="305.587" y1="194.248" x2="291.285" y2="194.248" gradientUnits="userSpaceOnUse">
<stop stop-color="#FAD0BA"/>
<stop offset="1" stop-color="#F2A384"/>
</linearGradient>
<linearGradient id="paint22_linear" x1="270.484" y1="210.072" x2="241.732" y2="210.072" gradientUnits="userSpaceOnUse">
<stop stop-color="#FAD0BA"/>
<stop offset="1" stop-color="#F2A384"/>
</linearGradient>
<linearGradient id="paint23_linear" x1="257.86" y1="159.935" x2="222.878" y2="159.935" gradientUnits="userSpaceOnUse">
<stop stop-color="#FAD0BA"/>
<stop offset="1" stop-color="#F2A384"/>
</linearGradient>
<linearGradient id="paint24_linear" x1="247.558" y1="208.145" x2="237.434" y2="208.145" gradientUnits="userSpaceOnUse">
<stop stop-color="#FAD0BA"/>
<stop offset="1" stop-color="#F2A384"/>
</linearGradient>
<linearGradient id="paint25_linear" x1="182.896" y1="280.402" x2="183.429" y2="290.263" gradientUnits="userSpaceOnUse">
<stop stop-color="#FFE579"/>
<stop offset="1" stop-color="#FEC644"/>
</linearGradient>
<linearGradient id="paint26_linear" x1="258.439" y1="275.631" x2="259.539" y2="262.736" gradientUnits="userSpaceOnUse">
<stop stop-color="#F1A385" stop-opacity="0.01"/>
<stop offset="1" stop-color="#F2A384"/>
</linearGradient>
<linearGradient id="paint27_linear" x1="488.414" y1="199.76" x2="475.814" y2="199.76" gradientUnits="userSpaceOnUse">
<stop stop-color="#FAD0BA"/>
<stop offset="1" stop-color="#F2A384"/>
</linearGradient>
<linearGradient id="paint28_linear" x1="504.927" y1="147.798" x2="493.212" y2="147.798" gradientUnits="userSpaceOnUse">
<stop stop-color="#FAD0BA"/>
<stop offset="1" stop-color="#F2A384"/>
</linearGradient>
<linearGradient id="paint29_linear" x1="336.717" y1="184.829" x2="322.634" y2="184.829" gradientUnits="userSpaceOnUse">
<stop stop-color="#FAD0BA"/>
<stop offset="1" stop-color="#F2A384"/>
</linearGradient>
<linearGradient id="paint30_linear" x1="302.217" y1="73.5001" x2="208.161" y2="218.598" gradientUnits="userSpaceOnUse">
<stop stop-color="#E5EDFF"/>
<stop offset="1" stop-color="#6B9AD9"/>
</linearGradient>
<linearGradient id="paint31_linear" x1="157.171" y1="121.732" x2="107.092" y2="331.756" gradientUnits="userSpaceOnUse">
<stop stop-color="#F7FAFF"/>
<stop offset="1" stop-color="#6B9AD9"/>
</linearGradient>
<linearGradient id="paint32_linear" x1="296.629" y1="115.137" x2="239.076" y2="201.05" gradientUnits="userSpaceOnUse">
<stop stop-color="#E5EDFF"/>
<stop offset="1" stop-color="#6B9AD9"/>
</linearGradient>
</defs>
</svg>
