<svg width="60" height="60" viewBox="0 0 60 60" fill="none" xmlns="http://www.w3.org/2000/svg">
<g clip-path="url(#clip0)">
<path d="M30 38C28.8955 38 28 37.1045 28 36H26C26 38.209 27.791 40 30 40C32.209 40 34 38.209 34 36H32C32 37.1045 31.1045 38 30 38Z" fill="#FAB429"/>
<path d="M57 12H44V4C44 1.79102 42.209 0 40 0H20C17.791 0 16 1.79102 16 4V12H3C1.34326 12 9.3675e-07 13.3433 9.3675e-07 15V27C-0.000487344 27.3579 0.189942 27.689 0.500001 27.8682L2 28.7231V53C2 54.6567 3.34326 56 5 56H15V59C15 59.5522 15.4478 60 16 60H44C44.5522 60 45 59.5522 45 59V56H55C56.6567 56 58 54.6567 58 53V28.7231L59.5 27.8682C59.8101 27.689 60.0005 27.3579 60 27V15C60 13.3433 58.6567 12 57 12ZM40 12V8H42V12H40ZM38 12H22V6H38V12ZM20 2H40C41.1045 2 42 2.89551 42 4V6H40V5C40 4.44775 39.5522 4 39 4H21C20.4478 4 20 4.44775 20 5V6H18V4C18 2.89551 18.8955 2 20 2ZM18 8H20V12H18V8ZM5 54C4.44775 54 4 53.5522 4 53V29.8662L7.5 31.8662C7.65186 31.9541 7.82422 32.0005 8 32H20V33C20 33.5522 20.4478 34 21 34V35C21.0049 38.4146 22.9414 41.5322 26 43.0498V44.2358L20.1538 45.8262C17.1162 46.6675 15.0098 49.4277 15 52.5801V54H5ZM24 46.8521L25.3999 46.4712L29 49.4712V52H31V49.4692L34.6001 46.4692L36 46.8491V48.583L30 54.583L24 48.583V46.8521ZM32.3491 45.7432L30 47.7002L27.6509 45.7441C27.8696 45.5586 27.9971 45.2871 28 45V43.7681C29.3154 44.0771 30.6846 44.0771 32 43.7681V45C32.0034 45.2866 32.1304 45.5576 32.3491 45.7432V45.7432ZM30 42C26.1357 41.9956 23.0044 38.8643 23 35V34H25.687C28.0752 34.0068 30.3662 33.0576 32.0498 31.3638L32.75 30.6641C33.7007 32.2236 35.2275 33.3457 37 33.7871V35C36.9956 38.8643 33.8643 41.9956 30 42V42ZM38 31.9512C36.374 31.7236 34.9648 30.7075 34.2358 29.2358L33.895 28.5532C33.751 28.2661 33.4785 28.0654 33.1616 28.0142C32.8447 27.9624 32.5225 28.0664 32.2949 28.293L30.6362 29.9502C29.3262 31.2666 27.5444 32.0049 25.687 32H22V30C22 25.5815 25.5815 22 30 22C34.4185 22 38 25.5815 38 30V31.9512ZM43 58H40V53H38V58H22V53H20V58H17V52.5801C17.0073 50.3281 18.5127 48.356 20.6831 47.7549L22 47.3999V49C22 49.2651 22.1055 49.5195 22.293 49.707L29.293 56.707C29.6836 57.0972 30.3164 57.0972 30.707 56.707L37.707 49.707C37.8945 49.5195 38 49.2651 38 49V47.3999L39.314 47.7578C41.4839 48.3584 42.9902 50.3286 43 52.5801V58ZM56 53C56 53.5522 55.5522 54 55 54H45V52.5801C44.9902 49.4268 42.8823 46.6655 39.8428 45.8252L34 44.2358V43.0498C37.0586 41.5322 38.9951 38.4146 39 35V34C39.5522 34 40 33.5522 40 33V32H52C52.1753 32.001 52.3481 31.9556 52.5 31.8682L56 29.8682V53ZM58 26.4199L51.7339 30H40C40 24.4771 35.5229 20 30 20C24.4771 20 20 24.4771 20 30H8.26611L2 26.4199V15C2 14.4478 2.44775 14 3 14H57C57.5522 14 58 14.4478 58 15V26.4199Z" fill="#FAB429"/>
</g>
<defs>
<clipPath id="clip0">
<rect width="60" height="60" fill="white"/>
</clipPath>
</defs>
</svg>
