<svg width="18" height="18" viewBox="0 0 18 18" fill="none" xmlns="http://www.w3.org/2000/svg">
<path d="M9.83333 5.66667C10.4964 5.66667 11.1323 5.93006 11.6011 6.3989C12.0699 6.86774 12.3333 7.50363 12.3333 8.16667C12.3333 8.38768 12.4211 8.59964 12.5774 8.75592C12.7337 8.9122 12.9457 9 13.1667 9C13.3877 9 13.5996 8.9122 13.7559 8.75592C13.9122 8.59964 14 8.38768 14 8.16667C14 7.0616 13.561 6.00179 12.7796 5.22039C11.9982 4.43899 10.9384 4 9.83333 4C9.61232 4 9.40036 4.0878 9.24408 4.24408C9.0878 4.40036 9 4.61232 9 4.83333C9 5.05435 9.0878 5.26631 9.24408 5.42259C9.40036 5.57887 9.61232 5.66667 9.83333 5.66667Z" fill="#0998A8"/>
<path d="M9.83317 2.33341C11.3803 2.33341 12.864 2.948 13.958 4.04196C15.0519 5.13592 15.6665 6.61965 15.6665 8.16675C15.6665 8.38776 15.7543 8.59972 15.9106 8.756C16.0669 8.91228 16.2788 9.00008 16.4998 9.00008C16.7208 9.00008 16.9328 8.91228 17.0891 8.756C17.2454 8.59972 17.3332 8.38776 17.3332 8.16675C17.3332 6.17762 16.543 4.26997 15.1365 2.86345C13.7299 1.45692 11.8223 0.666748 9.83317 0.666748C9.61216 0.666748 9.4002 0.754545 9.24391 0.910826C9.08764 1.06711 8.99984 1.27907 8.99984 1.50008C8.99984 1.7211 9.08764 1.93306 9.24391 2.08934C9.4002 2.24562 9.61216 2.33341 9.83317 2.33341ZM17.1248 12.2584C17.079 12.1246 16.9999 12.0047 16.8949 11.91C16.7899 11.8152 16.6626 11.7487 16.5248 11.7167L11.5248 10.5751C11.3891 10.5443 11.2479 10.548 11.1139 10.5859C10.98 10.6237 10.8577 10.6945 10.7582 10.7917C10.6415 10.9001 10.6332 10.9084 10.0915 11.9417C8.29417 11.1135 6.854 9.66746 6.03317 7.86675C7.0915 7.33342 7.09984 7.33342 7.20817 7.20842C7.30543 7.10888 7.37621 6.98657 7.41406 6.85265C7.4519 6.71873 7.45561 6.57747 7.42484 6.44175L6.28317 1.50008C6.25121 1.36233 6.18472 1.23497 6.08996 1.13001C5.9952 1.02504 5.87528 0.945917 5.7415 0.900081C5.54689 0.830573 5.34593 0.780332 5.1415 0.750081C4.93088 0.701244 4.71595 0.673331 4.49984 0.666748C3.48317 0.666748 2.50815 1.07062 1.78926 1.78951C1.07037 2.50839 0.666504 3.48342 0.666504 4.50008C0.670914 7.90234 2.02441 11.164 4.43017 13.5697C6.83593 15.9755 10.0976 17.329 13.4998 17.3334C14.0032 17.3334 14.5017 17.2343 14.9668 17.0416C15.4319 16.849 15.8545 16.5666 16.2104 16.2107C16.5664 15.8547 16.8487 15.4321 17.0414 14.967C17.234 14.502 17.3332 14.0035 17.3332 13.5001C17.3334 13.288 17.3167 13.0762 17.2832 12.8667C17.2481 12.6598 17.1952 12.4562 17.1248 12.2584Z" fill="#0998A8"/>
</svg>
