<svg width="63" height="60" viewBox="0 0 63 60" fill="none" xmlns="http://www.w3.org/2000/svg">
<path d="M25.7783 42.6695H20.7898C20.1145 42.6695 19.5669 42.1218 19.5669 41.4465C19.5669 40.7713 20.1144 40.2236 20.7898 40.2236H25.7783C26.4536 40.2236 27.0012 40.7713 27.0012 41.4465C27.0012 42.1218 26.4536 42.6695 25.7783 42.6695Z" fill="#FAB429"/>
<path d="M41.8232 42.6695H36.8347C36.1594 42.6695 35.6118 42.1218 35.6118 41.4465C35.6118 40.7713 36.1593 40.2236 36.8347 40.2236H41.8232C42.4985 40.2236 43.0462 40.7713 43.0462 41.4465C43.0462 42.1218 42.4985 42.6695 41.8232 42.6695Z" fill="#FAB429"/>
<path d="M31.2845 42.6692C30.7743 42.6692 30.3043 42.3395 30.1332 41.8581C29.9646 41.3835 30.1083 40.8399 30.4935 40.5142C30.8955 40.1741 31.4819 40.1332 31.9293 40.4085C32.3575 40.672 32.5811 41.1921 32.4831 41.6847C32.3704 42.2498 31.8608 42.6692 31.2845 42.6692V42.6692Z" fill="#FAB429"/>
<path d="M38.4047 47.4876H24.2088C23.5335 47.4876 22.9858 46.94 22.9858 46.2647C22.9858 45.5894 23.5333 45.0417 24.2088 45.0417H38.4047C39.08 45.0417 39.6276 45.5894 39.6276 46.2647C39.6276 46.94 39.0801 47.4876 38.4047 47.4876Z" fill="#FAB429"/>
<path d="M36.5064 27.6058C38.1496 26.1602 39.1883 24.0427 39.1883 21.6871C39.1883 17.3409 35.6526 13.8051 31.3066 13.8051C26.9606 13.8051 23.4249 17.3409 23.4249 21.6871C23.4249 24.0427 24.4635 26.1602 26.1067 27.6058C23.3302 28.6662 21.353 31.3577 21.353 34.5024V36.5991C21.353 37.2744 21.9005 37.822 22.5759 37.822H40.0373C40.7126 37.822 41.2602 37.2744 41.2602 36.5991V34.5024C41.2601 31.3577 39.2829 28.6662 36.5064 27.6058V27.6058ZM31.3066 16.2509C34.3041 16.2509 36.7426 18.6895 36.7426 21.6871C36.7426 24.6847 34.3039 27.1233 31.3066 27.1233C28.3092 27.1233 25.8706 24.6847 25.8706 21.6871C25.8706 18.6895 28.3091 16.2509 31.3066 16.2509ZM38.8144 35.376H23.7987V34.5023C23.7987 31.7821 26.0117 29.569 28.7317 29.569H33.8813C36.6013 29.569 38.8143 31.7821 38.8143 34.5023V35.376H38.8144Z" fill="#FAB429"/>
<path d="M14.7613 60C13.8214 60 12.8927 59.7043 12.0981 59.127C10.7962 58.181 10.102 56.659 10.2412 55.0556L11.6273 39.0795L1.11686 26.9696C0.0619751 25.7542 -0.270902 24.1149 0.226457 22.5844C0.723572 21.0539 1.95639 19.9235 3.52393 19.5603L19.1442 15.942L27.4117 2.2021C28.2415 0.823266 29.6976 0 31.3066 0C32.9157 0 34.3717 0.823144 35.2015 2.2021L43.469 15.942L59.0893 19.5603C60.6568 19.9235 61.8894 21.0539 62.3867 22.5844C62.8841 24.115 62.5513 25.7543 61.4965 26.9696L50.9859 39.0795L52.372 55.0558C52.5112 56.659 51.817 58.181 50.515 59.127C49.2131 60.0728 47.5513 60.2626 46.07 59.6348L31.3066 53.3793L16.5432 59.635C15.966 59.8795 15.3613 60 14.7613 60V60ZM31.3066 2.44595C30.5632 2.44595 29.8906 2.82628 29.5073 3.4633L20.9726 17.647C20.8019 17.9307 20.5233 18.1331 20.2008 18.2079L4.07583 21.9431C3.35162 22.1109 2.7821 22.6332 2.55244 23.3403C2.32278 24.0474 2.4765 24.805 2.96383 25.3664L13.814 37.8677C14.0311 38.1178 14.1374 38.4451 14.1089 38.775L12.6778 55.2672C12.6135 56.0082 12.9343 56.7113 13.5357 57.1483C14.1369 57.5851 14.9045 57.673 15.589 57.3828L30.8294 50.9251C31.1344 50.7959 31.4785 50.7959 31.7835 50.9251L47.024 57.3828C47.7083 57.6728 48.4758 57.5851 49.0773 57.1483C49.6788 56.7113 49.9996 56.0082 49.9351 55.2673L48.5041 38.775C48.4756 38.4451 48.5819 38.1178 48.7989 37.8677L59.6492 25.3664C60.1366 24.8049 60.2903 24.0475 60.0605 23.3403C59.8307 22.6332 59.2612 22.1109 58.5371 21.9431L42.4121 18.208C42.0895 18.1333 41.8111 17.9309 41.6404 17.6472L33.1056 3.46342C32.7225 2.82628 32.05 2.44595 31.3066 2.44595V2.44595Z" fill="#FAB429"/>
</svg>
