<svg width="512" height="517" viewBox="0 0 512 517" fill="none" xmlns="http://www.w3.org/2000/svg">
<path d="M74.1593 234.177C74.5251 237.322 76.5265 237.728 77.1848 237.861C86.6202 237.861 96.7339 237.861 107.439 237.861C112.22 237.023 111.509 231.67 111.502 231.617C110.279 225.692 106.489 218.425 104.281 212.786C102.486 208.185 100.604 201.868 99.0279 197.187C98.4361 195.657 97.7047 195.045 96.3283 194.932C94.0808 195.112 92.9571 195.198 74.8043 230.347C74.4386 231.358 73.9798 232.608 74.1593 234.177Z" fill="#EAF3F2"/>
<path d="M140.214 234.177C140.799 237.322 143.353 237.728 144.19 237.861C156.066 237.861 168.441 237.861 181.221 237.861C186.946 237.023 185.849 231.67 185.835 231.617C183.927 225.553 179.093 218.411 176.134 212.786C173.707 208.165 170.735 201.868 168.421 197.187C167.55 195.657 166.592 195.045 164.903 194.932C161.751 195.139 161.559 195.152 140.866 230.347C140.447 231.351 139.922 232.608 140.214 234.177Z" fill="#EAF3F2"/>
<path d="M113.909 175.284C113.982 177.531 117.845 188.748 125.386 208.63C126.875 211.735 129.954 211.416 131.889 209.169C135.965 204.441 139.682 196.861 143.007 191.574C145.912 186.96 150.082 180.989 153.107 176.454C154.982 172.923 153.978 170.097 150.653 169.578C139.469 169.578 128.75 169.578 118.584 169.578C113.956 170.33 113.902 175.237 113.909 175.284Z" fill="#EAF3F2"/>
<path d="M183.787 175.284C184.026 176.687 189.771 187.904 200.856 208.63C202.897 211.782 206.461 211.456 208.503 209.169C212.685 204.494 216.422 196.861 219.8 191.574C222.719 187.013 226.695 180.989 229.648 176.454C231.337 172.93 229.814 170.104 225.951 169.578C213.157 169.578 200.67 169.578 188.555 169.578C183.189 170.33 183.78 175.237 183.787 175.284Z" fill="#EAF3F2"/>
<path d="M219.448 234.177C220.233 237.322 223.152 237.728 224.109 237.861C235.46 237.861 247.029 237.861 258.766 237.861C261.073 237.861 263.374 237.861 265.668 237.861C271.885 237.016 270.488 231.67 270.468 231.617C269.983 230.42 269.983 230.42 249.131 197.187C248.014 195.657 246.89 195.045 244.975 194.932C241.889 195.112 241.889 195.112 220.04 230.347C219.601 231.351 219.056 232.601 219.448 234.177Z" fill="#EAF3F2"/>
<path d="M0.0455334 234.177C-0.133999 237.322 0.264966 237.714 0.417901 237.861C2.5191 237.861 5.66424 237.861 9.76689 237.861C11.3494 237.169 11.7019 233.266 11.775 231.617C11.795 231.238 11.7484 230.726 11.7285 230.347C11.3029 220.406 11.2298 207.127 11.6686 197.187C11.7684 195.657 11.6553 195.045 11.2497 194.932C8.47692 196.229 2.68533 221.018 0.504341 230.347C0.338107 231.358 0.131975 232.614 0.0455334 234.177Z" fill="#EAF3F2"/>
<path d="M24.5952 234.177C24.695 237.322 25.9384 237.714 26.4038 237.861C32.488 237.861 39.4432 237.861 47.1764 237.861C50.6407 237.029 50.3548 231.67 50.3482 231.617C50.3149 231.231 50.2285 230.719 50.142 230.347C47.9212 220.466 45.3479 207.2 43.8318 197.187C43.5791 195.657 43.1336 195.045 42.2027 194.932C41.1122 195.059 39.0908 195.291 25.187 230.347C24.8944 231.358 24.542 232.614 24.5952 234.177Z" fill="#EAF3F2"/>
<path d="M21.736 175.284C20.0537 182.345 20.0803 198.796 20.1002 208.63C20.3995 212.334 22.1615 210.439 22.2413 210.352C22.5871 209.973 22.9462 209.308 23.0127 209.169C30.7525 192.319 30.7525 192.319 39.3701 176.454C41.1455 172.923 41.2851 170.097 39.7092 169.578C33.9708 169.578 29.0503 169.578 25.0274 169.578C23.026 170.323 21.7426 175.237 21.736 175.284Z" fill="#EAF3F2"/>
<path d="M4.20793 196.043L1.66787 208.63C1.39525 210.319 1.40855 210.532 1.43515 210.897C1.69447 210.552 1.74767 210.479 2.08013 209.169C5.20533 196.827 5.35162 196.448 13.0848 176.454C14.5211 172.923 15.2525 170.097 14.8735 169.578C13.3973 169.578 12.5462 169.578 12.36 169.578C9.18164 178.189 6.45541 187.02 4.20793 196.043Z" fill="#EAF3F2"/>
<path d="M56.9374 175.284C56.5783 178.542 58.2672 189.759 61.9643 208.63C63.0149 212.214 65.6081 210.818 66.5058 209.634C66.7252 209.348 66.9979 208.943 67.1774 208.63C72.7628 198.855 80.4694 185.962 86.4938 176.454C88.4088 172.923 87.9699 170.097 85.4365 169.578C76.6594 169.578 68.5272 169.578 61.1198 169.578C57.6356 170.33 56.944 175.237 56.9374 175.284Z" fill="#EAF3F2"/>
<path d="M212.905 351.564C213.842 354.397 216.575 354.763 217.473 354.883C229.967 354.883 242.767 354.883 255.806 354.883C261.598 354.138 260.421 349.304 260.401 349.251C259.989 348.266 259.989 348.266 239.675 316.349C238.538 314.787 237.401 314.162 235.499 314.049C232.194 314.248 232.194 314.248 213.204 348.1C212.838 349.051 212.432 350.135 212.905 351.564Z" fill="#EAF3F2"/>
<path d="M145.214 351.564C146.365 354.397 148.818 354.763 149.623 354.883C160.614 354.883 172.078 354.883 183.927 354.883C189.107 354.138 187.477 349.304 187.458 349.251C184.751 343.519 179.279 336.923 175.721 331.676C172.643 327.135 168.726 320.944 165.727 316.349C164.597 314.787 163.54 314.162 161.824 314.049C158.819 314.255 158.353 314.282 145.075 348.1C144.868 349.051 144.636 350.135 145.214 351.564Z" fill="#EAF3F2"/>
<path d="M91.647 148.367C91.268 151.113 92.8373 151.432 93.582 151.585C102.239 151.585 111.515 151.585 121.33 151.585C125.758 150.867 126.17 146.199 126.17 146.153C126.23 141.226 124.129 134.842 123.205 130.002C122.46 126.105 122.181 120.799 121.742 116.856C121.556 115.566 121.057 115.047 119.9 114.954C117.925 115.107 117.028 115.174 93.0966 145.056C92.5314 145.933 91.8332 147.017 91.647 148.367Z" fill="#EAF3F2"/>
<path d="M178.787 443.924C180.19 445.992 182.105 446.258 182.73 446.345C191.009 446.345 199.613 446.345 208.496 446.345C212.306 445.799 210.584 442.262 210.564 442.229C210.438 442.029 210.438 442.029 189.579 417.207C188.449 415.997 187.498 415.511 186.061 415.425C184.02 415.558 182.67 415.645 178.036 441.384C178.049 442.082 178.076 442.874 178.787 443.924Z" fill="#EAF3F2"/>
<path d="M188.987 382.943C189.226 383.508 189.386 383.887 210.385 411.269C212.539 413.796 215.345 413.463 216.715 411.701C219.7 407.858 221.921 401.608 224.142 397.279C226.223 393.223 229.315 387.99 231.53 384.007C232.82 380.762 231.144 378.155 227.46 377.67C215.385 377.67 203.589 377.67 192.145 377.67C187.198 378.375 188.967 382.896 188.987 382.943Z" fill="#EAF3F2"/>
<path d="M172.716 271.806C172.949 272.663 175.954 278.349 193.489 306.821C195.763 309.96 199.247 309.634 201.076 307.36C204.972 302.519 208.21 294.733 211.249 289.313C214.002 284.413 217.812 277.963 220.625 273.096C222.247 269.179 220.518 266.047 216.429 265.469C202.944 265.469 189.785 265.469 177.052 265.469C171.406 266.32 172.703 271.752 172.716 271.806Z" fill="#EAF3F2"/>
<path d="M50.4277 271.806C51.0992 275.15 56.4786 286.933 66.4127 306.821C68.5538 310.412 70.8146 309.015 71.3931 307.832C71.5394 307.539 71.7056 307.134 71.7987 306.821C74.8707 296.621 79.3058 283.116 82.9231 273.096C83.967 269.179 82.6638 266.041 79.7447 265.469C70.1497 265.469 61.2196 265.469 53.0475 265.469C49.4901 266.307 50.4144 271.752 50.4277 271.806Z" fill="#EAF3F2"/>
<path d="M12.9984 271.806C14.0157 278.954 19.9204 294.407 24.668 306.821C26.2705 310.272 27.5006 309.002 27.8331 308.224C28.0259 307.785 28.0991 307.227 28.1589 306.821C29.5686 296.648 31.9092 283.143 34.0635 273.096C34.7152 269.179 33.7577 266.041 31.7296 265.469C25.0936 265.469 19.2953 265.469 14.4213 265.469C12.3202 266.307 12.9917 271.752 12.9984 271.806Z" fill="#EAF3F2"/>
<path d="M133.645 382.943C134.077 383.774 137.747 388.555 157.436 411.269C160.176 414.128 162.45 413.018 162.935 412.074C163.055 411.841 163.188 411.522 163.254 411.269C165.449 403.017 168.707 392.106 171.413 384.007C172.078 380.762 170.183 378.155 166.805 377.67C155.953 377.67 145.52 377.67 135.58 377.67C131.384 378.375 133.618 382.896 133.645 382.943Z" fill="#EAF3F2"/>
<path d="M52.9681 382.943C55.1026 386.387 63.2281 395.916 77.1186 411.269C79.6719 413.842 80.7957 413.271 80.7491 412.074C80.7425 411.961 80.7292 411.808 80.7092 411.701C77.6173 398.356 77.6173 398.356 75.9084 384.007C75.3432 380.755 73.3417 378.155 71.0411 377.67C64.0858 377.67 57.8222 377.67 52.3231 377.67C50.2485 378.368 52.9415 382.896 52.9681 382.943Z" fill="#EAF3F2"/>
<path d="M86.5934 351.564C87.8834 354.397 89.8982 354.763 90.5564 354.883C99.3868 354.883 108.842 354.883 118.849 354.883C123.178 354.124 121.163 349.304 121.143 349.251C118.324 343.565 112.932 336.929 109.374 331.676C106.329 327.181 102.638 320.944 99.7525 316.349C98.7019 314.787 97.7776 314.162 96.3547 314.049C94.2934 314.222 92.9369 314.328 86.0482 348.1C85.995 349.058 85.9484 350.135 86.5934 351.564Z" fill="#EAF3F2"/>
<path d="M44.3436 351.564C45.6669 354.397 47.1231 354.763 47.6018 354.883C53.7525 354.883 60.6878 354.883 68.3279 354.883C71.473 354.138 69.3519 349.304 69.3319 349.251C66.6256 343.652 61.6453 336.936 58.3272 331.676C55.5146 327.215 52.3029 320.944 49.7163 316.349C48.8187 314.787 48.0939 314.162 47.0433 314.049C45.8597 314.182 43.8848 314.408 43.4526 348.1C43.5524 349.011 43.6854 350.142 44.3436 351.564Z" fill="#EAF3F2"/>
<path d="M441.343 233.804C442.108 236.963 443.956 237.355 444.655 237.502C453.392 237.502 461.411 237.502 468.619 237.502C471.259 236.797 471.132 232.601 470.221 229.988C466.578 219.588 459.436 206.635 454.376 196.847C453.445 195.298 452.687 194.68 451.563 194.567C451.218 194.6 450.167 194.713 449.715 196.309C449.668 196.468 449.628 196.681 449.588 196.841C447.447 206.855 444.202 220.127 441.43 229.981C441.217 230.992 440.964 232.235 441.343 233.804Z" fill="#EAF3F2"/>
<path d="M486.905 233.804C487.523 236.963 488.68 237.355 489.112 237.502C494.472 237.502 498.927 237.502 502.404 237.502C506.281 235.261 496.327 209.315 491.546 196.847C490.841 195.298 490.342 194.68 489.704 194.567C489.425 194.68 488.9 194.892 488.893 196.309C488.807 210.951 488.807 210.951 486.772 229.988C486.692 230.992 486.592 232.242 486.905 233.804Z" fill="#EAF3F2"/>
<path d="M457.116 174.951C457.275 175.317 457.528 175.782 457.721 176.128C463.153 185.617 470.069 198.463 474.929 208.258C476.585 211.523 478.054 210.791 478.527 209.262C479.218 207.021 479.883 199.454 479.125 176.128C478.606 172.597 477.064 169.778 475.368 169.259C470.321 169.259 464.43 169.259 457.774 169.259C455.088 169.997 457.096 174.898 457.116 174.951Z" fill="#EAF3F2"/>
<path d="M489.511 174.951C491.705 180.357 495.176 187.332 497.331 192.758C499.153 197.333 501.121 203.61 502.75 208.258C503.388 210.226 503.621 210.372 503.92 210.558C504.253 210.279 505.509 207.307 497.896 176.128C496.812 172.597 495.682 169.771 495.143 169.259C493.973 169.259 491.792 169.259 488.68 169.259C487.563 169.991 489.491 174.898 489.511 174.951Z" fill="#EAF3F2"/>
<path d="M509.327 233.805C509.719 236.963 510.018 237.355 510.131 237.502C510.843 237.502 511.202 237.502 511.202 237.502C510.637 230.52 509.792 223.618 508.682 216.809C507.498 209.568 506.015 202.426 504.247 195.405C504.173 195.125 504.134 194.839 504.021 194.573C507.771 215.991 507.771 215.991 509.001 229.995C509.061 230.992 509.134 232.242 509.327 233.805Z" fill="#EAF3F2"/>
<path d="M295.789 233.804C296.653 236.963 299.559 237.369 300.517 237.502C313.895 237.502 326.901 237.502 339.462 237.502C345.041 236.65 343.624 231.304 343.604 231.251C342.108 227.667 327.333 204.468 322.479 196.847C321.336 195.298 320.238 194.68 318.443 194.567C316.335 194.7 315.398 195.717 315.025 196.309C308.203 207.214 302.618 218.81 296.274 229.988C295.869 230.992 295.357 232.235 295.789 233.804Z" fill="#EAF3F2"/>
<path d="M374.418 233.804C375.269 236.963 377.769 237.369 378.587 237.502C390.077 237.502 401.022 237.502 411.342 237.502C414.421 236.93 415.558 233.765 414.042 229.988C409.779 219.349 400.949 206.668 395.044 196.847C393.96 195.298 392.99 194.68 391.467 194.567C389.818 194.693 389.06 195.584 388.714 196.309C386.267 201.475 383.814 208.71 381.726 214.029C379.811 218.897 376.812 225.2 374.704 229.988C374.385 230.992 373.992 232.235 374.418 233.804Z" fill="#EAF3F2"/>
<path d="M334.043 174.951C336.291 180.942 342.228 187.439 345.792 192.758C348.864 197.34 352.721 203.61 355.687 208.258C358.094 211.642 361.372 210.851 362.669 208.796C363.054 208.185 365.488 203.749 375.894 176.128C376.586 172.537 374.757 169.778 371.353 169.259C360.547 169.259 349.23 169.259 337.481 169.259C332.347 170.004 334.023 174.898 334.043 174.951Z" fill="#EAF3F2"/>
<path d="M402.458 174.951C404.912 180.803 410.431 187.425 413.888 192.751C416.841 197.293 420.345 203.603 423.111 208.258C425.279 211.695 427.666 210.612 428.457 209.262C429.441 207.593 433.125 191.375 433.165 191.215C434.136 186.72 435.08 180.656 435.898 176.128C435.997 172.597 434.209 169.771 431.549 169.259C423.217 169.259 414.207 169.259 404.606 169.259C400.51 170.004 402.438 174.898 402.458 174.951Z" fill="#EAF3F2"/>
<path d="M492.862 349.816C492.171 351.877 492.131 352.489 492.098 352.974C493.501 353.14 494.172 353.14 494.172 353.14C495.868 348.845 497.45 344.49 498.92 340.081C500.33 335.852 501.626 331.577 502.816 327.255L505.855 314.488C506.161 312.938 506.247 312.32 506.181 312.207C506.015 312.546 505.922 312.732 505.596 313.956C502.417 325.958 502.112 326.723 494.212 346.338C493.8 347.302 493.334 348.393 492.862 349.816Z" fill="#EAF3F2"/>
<path d="M471.884 349.816C471.245 352.662 472.189 353.014 472.549 353.147C477.662 353.147 481.937 353.147 485.302 353.147C489.671 351.279 491.06 332.215 492.018 314.495C491.978 312.54 491.606 312.393 491.133 312.214C490.316 312.354 489.73 313.484 489.511 313.963C482.715 329.05 482.715 329.05 473.26 346.345C472.788 347.256 472.196 348.393 471.884 349.816Z" fill="#EAF3F2"/>
<path d="M419.82 442.641C418.57 444.157 418.543 444.602 418.523 444.955C418.589 444.995 418.683 445.041 418.756 445.081C422.26 445.081 425.132 445.081 427.307 445.081C432.786 443.093 445.426 422.533 449.582 415.777C450.274 414.454 450.187 414.281 450.034 413.995C449.994 413.989 449.948 413.975 449.908 413.969C449.25 414.082 448.325 414.979 447.96 415.358C437.467 426.303 437.467 426.303 422.326 440.087C421.595 440.752 420.677 441.597 419.82 442.641Z" fill="#EAF3F2"/>
<path d="M387.803 441.983C386.639 444.07 387.683 444.323 388.082 444.423C394.08 444.423 399.572 444.423 404.492 444.423C408.249 443.645 411.328 441.178 419.527 415.019C419.766 413.796 419.54 413.311 418.695 413.224C418.363 413.257 417.485 413.337 416.096 414.601C415.963 414.72 415.79 414.893 415.663 415.019C408.083 422.473 397.81 432.241 389.95 439.403C389.252 440.088 388.381 440.939 387.803 441.983Z" fill="#EAF3F2"/>
<path d="M311.834 441.983C311.714 444.07 313.317 444.303 314.081 444.423C322.805 444.423 331.217 444.423 339.249 444.423C342.527 443.951 344.11 441.205 344.19 439.403C344.516 432.015 341.976 422.281 340.553 415.019C340.154 413.796 339.502 413.311 338.152 413.224C336.41 413.337 335.379 414.228 335.02 414.601C327.36 422.58 320.392 431.171 313.011 439.403C312.519 440.088 311.894 440.932 311.834 441.983Z" fill="#EAF3F2"/>
<path d="M472.961 381.314C470.873 385.988 468.513 392.405 466.312 397.026C464.443 400.956 461.498 405.963 459.436 409.8C458.665 411.136 458.665 411.309 458.665 411.588C459.323 411.409 462.801 408.763 479.817 382.378C481.858 378.84 482.609 377.065 482.882 376.201C481.745 376.041 479.67 376.041 476.711 376.041C475.062 376.746 472.981 381.274 472.961 381.314Z" fill="#EAF3F2"/>
<path d="M500.403 272.996C500.416 273.381 500.463 273.893 500.489 274.279C501.181 284.36 501.613 297.851 501.433 307.958C501.36 309.66 501.493 309.88 501.713 310.239C501.786 310.239 501.879 310.239 501.945 310.239C503.209 308.936 505.662 301.641 510.171 274.279C510.563 270.376 510.51 267.244 510.038 266.659C508.389 266.659 505.676 266.659 501.985 266.659C500.33 267.497 500.403 272.936 500.403 272.996Z" fill="#EAF3F2"/>
<path d="M416.402 271.426C417.452 277.457 421.362 284.832 423.536 290.557C425.312 295.238 427.12 301.681 428.656 306.449C429.893 309.906 432.5 308.816 433.624 307.466C434.581 306.316 443.152 289.1 443.232 288.934C445.519 284.127 448.259 277.577 450.413 272.71C451.597 268.8 450.606 265.662 448.019 265.083C439.402 265.083 430.053 265.083 420.046 265.083C415.65 265.921 416.395 271.373 416.402 271.426Z" fill="#EAF3F2"/>
<path d="M350.134 271.426C351.564 277.657 356.664 284.838 359.523 290.557C361.87 295.258 364.683 301.681 366.89 306.449C368.659 309.82 372.064 309.022 373.626 306.994C374.537 305.81 378.234 300.105 392.889 272.71C394.346 268.8 393.002 265.662 389.638 265.083C378.467 265.083 366.717 265.083 354.489 265.083C349.03 265.934 350.121 271.373 350.134 271.426Z" fill="#EAF3F2"/>
<path d="M448.884 381.314C448.784 381.626 448.691 382.059 448.624 382.378C446.836 390.696 443.97 401.701 441.35 409.8C440.539 412.22 441.915 411.608 442.361 411.362C443.917 410.498 449.396 404.766 466.638 382.378C469.118 378.641 469.091 376.905 468.852 376.201C468.752 376.154 468.612 376.088 468.506 376.041C464.25 376.041 459.164 376.041 453.326 376.041C450.46 376.746 448.904 381.274 448.884 381.314Z" fill="#EAF3F2"/>
<path d="M362.056 381.314C362.023 386.148 364.517 392.325 365.621 397.026C366.505 400.803 367.024 405.963 367.622 409.8C368.194 412.646 371.193 411.595 372.642 410.225C374.291 408.676 379.804 402.585 396.72 382.378C398.921 379.133 398.641 376.526 396.041 376.041C386.885 376.041 377.157 376.041 366.944 376.041C362.296 376.746 362.056 381.274 362.056 381.314Z" fill="#EAF3F2"/>
<path d="M286.506 381.56C287.604 386.74 292.125 392.571 294.592 397.259C296.567 401.016 298.861 406.196 300.689 410.026C302.166 412.752 305.264 412.007 306.847 410.451C307.512 409.793 314.806 400.431 328.524 382.624C330.459 379.379 329.488 376.779 326.163 376.293C314.846 376.293 303.13 376.293 291.094 376.293C285.782 376.992 286.493 381.513 286.506 381.56Z" fill="#EAF3F2"/>
<path d="M431.163 349.816C430.89 352.662 432.473 353.014 433.065 353.147C441.177 353.147 448.604 353.147 455.274 353.147C457.9 352.529 459.403 348.799 459.476 346.345C459.769 336.75 457.754 324.003 456.464 314.495C456.105 312.945 455.566 312.327 454.482 312.214C454.123 312.247 453.02 312.36 451.989 313.963C451.889 314.122 451.763 314.335 451.67 314.495C446.124 324.183 438.451 336.936 432.446 346.345C431.934 347.256 431.296 348.393 431.163 349.816Z" fill="#EAF3F2"/>
<path d="M377.117 349.816C377.223 352.662 379.178 352.988 380.109 353.147C390.509 353.147 400.376 353.147 409.639 353.147C412.997 352.556 414.48 349.204 414.167 346.345C413.09 336.497 408.329 323.963 405.41 314.495C404.765 312.945 403.987 312.327 402.531 312.214C400.895 312.34 399.938 313.231 399.419 313.963C391.918 324.482 385.449 335.666 378.194 346.345C377.689 347.256 377.064 348.393 377.117 349.816Z" fill="#EAF3F2"/>
<path d="M150.361 47.6093C147.302 51.4793 144.756 59.8176 142.049 68.6412C141.69 70.8887 144.051 70.3568 145.833 69.0003C154.484 62.4108 162.523 55.0832 171.021 48.3075C173.973 45.7342 173.627 44.3711 172.457 44.2581C166.492 44.2581 160.854 44.2581 155.601 44.2581C152.808 44.6969 150.381 47.5761 150.361 47.6093Z" fill="#EAF3F2"/>
<path d="M188.475 47.6093C187.351 50.6614 188.894 64.1928 189.399 68.6412C189.938 70.7158 192.352 70.4964 194.174 69.0003C197.844 65.9881 201.86 61.0344 205.145 57.61C207.838 54.8039 211.475 51.1002 214.188 48.3075C215.871 46.2263 215.618 44.5639 213.57 44.2581C206.448 44.2581 199.553 44.2581 192.937 44.2581C189.739 44.6903 188.488 47.5761 188.475 47.6093Z" fill="#EAF3F2"/>
<path d="M137.022 100.791C136.49 103.171 138.046 103.451 138.791 103.584C147.442 103.584 156.565 103.584 166.087 103.584C170.442 102.959 170.907 98.9225 170.907 98.8826C171.107 94.6802 169.238 89.2011 168.48 85.0586C167.882 81.7871 167.789 77.3254 167.496 74.0073C167.37 72.9368 166.918 72.5046 165.84 72.4248C163.799 72.5644 163.427 72.591 138.651 97.9317C138.046 98.6898 137.282 99.6273 137.022 100.791Z" fill="#EAF3F2"/>
<path d="M195.397 100.791C195.497 103.171 197.645 103.477 198.349 103.584C208.656 103.584 219.288 103.584 230.173 103.584C235.04 102.945 234.336 98.9225 234.322 98.8826C233.079 94.381 229.355 89.1878 227.174 85.0586C225.465 81.8203 223.55 77.3254 222.001 74.0073C221.429 72.9368 220.738 72.5046 219.454 72.4248C217.453 72.5445 217.453 72.5445 196.448 97.9317C195.962 98.6831 195.35 99.6207 195.397 100.791Z" fill="#EAF3F2"/>
<path d="M234.189 47.6093C234.395 49.6839 242.315 63.9534 244.921 68.6412C246.444 70.8821 249.197 70.3501 250.42 69.0003C250.5 68.9139 252.541 66.5932 263.373 48.3075C264.151 46.2263 263.021 44.5639 260.634 44.2581C259.357 44.2581 258.074 44.2581 256.79 44.2581C250.247 44.2581 243.804 44.2581 237.48 44.2581C234.056 44.6969 234.182 47.5761 234.189 47.6093Z" fill="#EAF3F2"/>
<path d="M107.599 47.6093C99.3469 53.6403 96.142 56.8187 84.1997 68.6412C83.189 69.7583 83.1757 69.9046 83.1558 70.1507C83.3153 70.1507 83.6478 70.1506 85.0641 69.0003C95.5635 60.4758 95.5635 60.4758 113.198 48.3075C116.815 45.8672 117.839 44.79 118.125 44.3578C115.744 44.2581 113.995 44.2581 112.825 44.2581C111.735 44.6703 108.37 47.0441 107.599 47.6093Z" fill="#EAF3F2"/>
<path d="M121.762 47.6093C116.323 52.3703 112.054 58.4943 104.979 68.6412C104.447 69.5788 104.5 69.7051 104.666 70.0775C104.906 70.1507 105.637 70.3568 107.399 69.0003C121.602 58.0754 121.602 58.0754 135.526 48.3075C138.884 45.8938 139.256 44.7967 139.176 44.3578C139.083 44.3312 138.957 44.2913 138.864 44.2581C134.555 44.2581 130.685 44.2581 127.287 44.2581C125.213 44.6969 121.795 47.5761 121.762 47.6093Z" fill="#EAF3F2"/>
<path d="M60.0363 100.791C58.9125 102.506 58.9192 103.025 58.9258 103.437C58.999 103.477 59.0921 103.537 59.1585 103.577C62.583 103.577 66.7721 103.577 71.6593 103.577C73.714 103.072 75.6224 100.412 76.5732 98.8758C76.7394 98.6098 76.899 98.2175 77.032 97.9315C80.5429 90.5641 85.6961 80.9557 89.9717 74.0005C90.7297 72.8369 90.6299 72.6906 90.4704 72.4446C90.4305 72.4379 90.3773 72.4246 90.3307 72.418C87.5114 72.797 69.1924 91.0561 62.3037 97.9249C61.6388 98.6896 60.8009 99.6271 60.0363 100.791Z" fill="#EAF3F2"/>
<path d="M48.3794 103.584C48.5323 103.584 49.2571 103.584 50.5205 103.584C51.6708 102.965 54.663 98.9225 54.6896 98.8826C62.3164 88.1572 62.3164 88.1572 75.0101 74.0073C76.32 72.6442 76.3599 72.5578 76.4264 72.4248C75.8213 72.8038 75.8213 72.8038 65.7409 82.8975C59.6035 89.4804 53.8053 96.3824 48.3794 103.584Z" fill="#EAF3F2"/>
<path d="M89.4396 100.791C88.3291 103.171 89.3797 103.451 89.8851 103.584C96.1887 103.584 103.111 103.584 110.578 103.584C114.182 102.959 115.671 98.9225 115.685 98.8826C115.784 98.61 115.851 98.2243 115.897 97.9384C117.101 90.6839 119.175 81.0756 121.21 74.0073C121.529 72.9169 121.356 72.5046 120.565 72.4248C119.362 72.5312 117.866 72.6575 91.5009 97.9317C90.8625 98.6499 89.9782 99.6273 89.4396 100.791Z" fill="#EAF3F2"/>
<path d="M246.643 4.68088C245.972 5.64504 246.111 7.40047 246.191 8.57741C246.278 9.90063 246.883 11.5962 247.182 12.8862C247.627 13.9168 248.937 13.6974 249.596 13.0524C249.908 12.7466 251.637 10.9313 255.341 4.90031C255.587 4.12234 254.988 3.75662 254.529 3.69678C252.442 3.69678 250.394 3.69678 248.392 3.69678C247.435 3.80982 246.743 4.54125 246.643 4.68088Z" fill="#EAF3F2"/>
<path d="M234.143 4.68094C230.034 6.42972 228.857 7.79948 224.495 12.8862C223.93 13.9036 225.286 13.5445 225.439 13.498C225.991 13.3384 226.51 13.0458 226.789 12.8862C231.164 10.3927 237.062 7.1678 241.557 4.90037C242.249 4.5546 242.927 4.17559 243.18 3.79657C243.133 3.76333 243.067 3.72343 243.02 3.69019C241.125 3.69019 239.29 3.69019 237.528 3.69019C236.444 3.80987 234.668 4.46151 234.143 4.68094Z" fill="#EAF3F2"/>
<path d="M251.837 1.00389C251.445 1.05044 251.152 1.09698 250.966 1.14353C251.584 1.15018 252.216 1.15018 252.854 1.15018C252.967 1.13688 253.02 1.13023 253.313 1.04379C253.745 0.910801 253.745 0.910803 254.284 0.864258L252.967 0.904152C252.595 0.937399 252.216 0.963998 251.837 1.00389Z" fill="#EAF3F2"/>
<path d="M216.961 29.2902C216.469 30.6866 217.533 30.8528 218.038 30.9326C224.016 30.9326 230.186 30.9326 236.517 30.9326C239.349 30.5669 239.409 28.2795 239.409 28.1798C239.409 28.0135 239.356 27.7941 239.309 27.6345C238.245 23.8976 237.108 18.8241 236.696 14.9609C236.65 14.4422 236.437 14.2494 235.865 14.2095C234.668 14.2826 234.668 14.2826 218.231 27.6345C217.792 28.0534 217.2 28.6186 216.961 29.2902Z" fill="#EAF3F2"/>
<path d="M159.969 29.9752C158.6 30.9926 158.58 31.2985 158.566 31.5511C158.646 31.5777 158.753 31.611 158.826 31.6376C162.702 31.6376 166.938 31.6376 171.486 31.6376C173.926 31.2652 176.579 28.8781 176.606 28.8581C183.568 21.8298 183.568 21.8298 192.531 15.4663C193.136 15.0873 193.163 15.0474 193.369 14.808C193.323 14.7748 193.263 14.7349 193.216 14.7017C189.532 15.1871 169.332 25.0614 162.696 28.3062C161.938 28.7185 160.887 29.297 159.969 29.9752Z" fill="#EAF3F2"/>
<path d="M142.654 29.9752C140.945 30.9793 140.646 31.3118 140.433 31.5511C142.827 31.6376 145.573 31.6376 148.725 31.6376C150.666 31.2718 154.33 28.8781 154.37 28.8581C163.619 22.5346 163.619 22.5346 177.776 15.4663C178.84 14.9876 178.913 14.941 179.192 14.7482C179.179 14.7349 179.166 14.715 179.152 14.7017C177.297 15.0075 170.495 17.1752 145.806 28.3062C144.961 28.7185 143.818 29.2903 142.654 29.9752Z" fill="#EAF3F2"/>
<path d="M249.762 1.00389C248.904 1.05709 248.087 1.12358 247.954 1.15018C248.486 1.15018 249.037 1.15018 249.616 1.15018C253.519 0.884206 253.519 0.884206 254.277 0.864258L251.837 0.904152C251.152 0.937399 250.46 0.963998 249.762 1.00389Z" fill="#EAF3F2"/>
<path d="M246.737 1.00389C244.695 1.07704 243.525 1.15018 243.519 1.15018C243.811 1.15018 244.144 1.15018 244.516 1.15018C249.436 0.917453 249.436 0.917453 254.284 0.864258L250.201 0.904152C249.051 0.937399 247.894 0.963998 246.737 1.00389Z" fill="#EAF3F2"/>
<path d="M223.311 4.68088C216.143 6.56265 214.122 7.65314 204.407 12.8862C203.888 13.232 203.868 13.2719 203.735 13.4979C203.915 13.5844 204.221 13.724 205.89 13.0524C215.631 9.116 215.631 9.11601 229.023 4.90031C229.947 4.63434 232.155 3.98935 232.66 3.72338C231.004 3.69678 229.488 3.69678 228.072 3.69678C227.015 3.80317 224.588 4.34842 223.311 4.68088Z" fill="#EAF3F2"/>
<path d="M215.505 4.68088C205.897 6.64909 203.37 7.59995 189.373 12.8862C188.415 13.3184 188.342 13.3782 188.149 13.5578C188.356 13.591 188.588 13.6243 190.277 13.0524C201.302 9.31548 201.634 9.23569 219.242 4.90031C223.684 3.94281 224.249 3.78987 224.495 3.72338C223.291 3.69678 222.181 3.69678 221.197 3.69678C220.252 3.79652 217.546 4.26862 215.505 4.68088Z" fill="#EAF3F2"/>
<path d="M339.661 28.9446C341.896 30.3343 342.973 30.5072 343.385 30.5737C347.474 30.5737 351.225 30.5737 354.602 30.5737C354.662 30.5471 354.742 30.5138 354.809 30.4872C353.904 27.8474 330.053 18.2989 321.07 14.7083C319.713 14.2162 319.008 14.0101 318.556 13.9702C318.556 14.0234 318.55 14.0966 318.543 14.1498C322.094 16.5435 325.977 18.3854 329.488 20.8323C332.008 22.5878 335.04 25.3539 337.421 27.2889C337.933 27.7277 338.571 28.2663 339.661 28.9446Z" fill="#EAF3F2"/>
<path d="M360.454 28.9446C363.094 30.3409 363.832 30.4939 364.184 30.5737C366.691 30.5737 368.779 30.5737 370.401 30.5737C369.032 29.0443 361.505 25.048 333.464 14.7083C331.582 14.0833 331.29 14.0301 330.971 13.9702C331.316 14.2029 331.316 14.2029 332.141 14.5288C342.042 18.4785 342.627 18.8109 357.568 27.2889C358.246 27.7011 359.177 28.2663 360.454 28.9446Z" fill="#EAF3F2"/>
<path d="M305.55 8.28492C317.838 11.7492 317.838 11.7492 336.629 18.6845C338.764 19.5223 339.03 19.5223 339.296 19.5223C338.897 18.9638 335.752 16.5301 312.133 8.58415C307.432 7.26092 305.218 6.90186 305.198 6.90186C304.034 6.90186 302.678 6.90186 301.148 6.90186C301.401 7.04149 301.694 7.20108 305.55 8.28492Z" fill="#EAF3F2"/>
<path d="M313.736 8.28492C326.143 11.3835 327.32 11.7958 347.002 18.6845C348.931 19.4159 349.077 19.4558 349.37 19.5356C347.774 18.4917 341.444 15.6857 316.954 8.58415C311.947 7.32742 309.766 6.90186 309.739 6.90186C309.467 6.90186 308.968 6.90186 308.25 6.90186C310.065 7.42715 311.907 7.83277 313.736 8.28492Z" fill="#EAF3F2"/>
<path d="M370.687 28.9445C373.394 30.3143 373.699 30.4473 374.019 30.5736C374.351 30.5736 374.517 30.5736 374.517 30.5736C373.925 30.2611 373.334 29.9486 372.742 29.6427C361.125 23.625 348.997 18.4585 336.436 14.2428C336.17 14.1563 335.904 14.0632 335.632 13.9768C348.312 18.3188 350.859 19.5157 367.436 27.2955C368.52 27.8474 369.603 28.3993 370.687 28.9445Z" fill="#EAF3F2"/>
<path d="M309.114 28.9446C310.71 30.3343 311.98 30.5072 312.459 30.5737C317.838 30.5737 322.958 30.5737 327.786 30.5737C327.899 30.5471 328.052 30.5138 328.165 30.4872C328.757 29.5231 329.322 28.6121 301.255 14.7083C300.144 14.2096 299.526 14.0101 298.968 13.9702C298.901 13.9835 298.808 14.0035 298.735 14.0168C298.715 14.0567 298.688 14.1099 298.662 14.1564C298.715 14.2761 298.795 14.4423 298.888 14.5354C303.296 19.0038 303.296 19.0038 307.771 27.2955C308.024 27.7211 308.33 28.2597 309.114 28.9446Z" fill="#EAF3F2"/>
<path d="M274.444 8.28498C280.243 11.9155 286.3 15.1072 292.125 18.6846C294.226 19.9479 295.024 19.5423 294.971 19.0503C294.652 16.3041 289.186 11.6562 285.569 8.57755C283.6 7.38067 281.772 6.95511 281.24 6.89526C278.753 6.89526 276.147 6.89526 273.44 6.89526C273.38 6.90856 273.294 6.92186 273.227 6.93516C273.207 6.9684 273.181 7.01495 273.154 7.0482C273.301 7.4937 273.939 7.96581 274.444 8.28498Z" fill="#EAF3F2"/>
<path d="M291.739 8.28492C304.027 12.853 304.027 12.853 317.293 18.6845C319.387 19.6354 319.766 19.5423 320.046 19.4824C320.052 19.4359 320.066 19.3694 320.072 19.3229C317.918 16.3572 305.191 10.5125 301.015 8.58415C297.272 7.20773 295.131 6.90186 295.111 6.90186C293.189 6.90186 291.114 6.90186 288.907 6.90186C289.219 7.24097 289.379 7.40721 291.739 8.28492Z" fill="#EAF3F2"/>
<path d="M456.384 101.423C458.306 103.816 458.798 104.096 459.004 104.222C460.121 104.222 460.7 104.222 460.7 104.222C455.653 97.9981 448.963 89.6598 443.604 83.702L434.634 74.5591C433.224 73.2093 433.058 73.0963 432.885 72.9766C433.065 73.2159 433.145 73.329 433.982 74.1867C442.061 82.4851 442.287 82.791 454.216 98.5566C454.768 99.308 455.44 100.246 456.384 101.423Z" fill="#EAF3F2"/>
<path d="M438.611 101.423C440.552 103.81 441.676 104.109 442.095 104.222C446.49 104.222 450.174 104.222 453.073 104.222C453.126 104.182 453.199 104.122 453.252 104.076C452.794 99.9397 434.534 83.4293 424.72 74.5591C423.43 73.4819 422.752 73.0564 422.22 72.9766C422.167 73.0032 422.087 73.0431 422.034 73.0763C422.047 73.3489 422.06 73.5883 422.486 74.1867C429.029 83.4958 429.029 83.4958 436.762 98.5566C437.161 99.308 437.653 100.246 438.611 101.423Z" fill="#EAF3F2"/>
<path d="M278.015 2.88579C280.602 3.31135 280.648 3.32465 281.107 3.37119C282.324 3.37119 283.441 3.37119 284.439 3.37119C284.106 3.2914 276.06 1.40963 254.284 0.877686C260.587 1.17026 268.999 1.64901 275.256 2.44028C276.18 2.57992 277.098 2.73286 278.015 2.88579Z" fill="#EAF3F2"/>
<path d="M397.591 48.8793C412.884 59.6513 412.884 59.6513 425.983 70.1107C426.954 70.9219 427.573 71.4007 428.071 71.6334C428.124 71.6135 428.191 71.5802 428.244 71.5603C427.493 70.1107 423.377 65.3232 404.307 49.5908C400.443 46.6983 398.595 45.6411 398.216 45.4749C397.285 45.4749 395.762 45.4749 393.688 45.4749C393.767 45.7142 394 46.3459 397.591 48.8793Z" fill="#EAF3F2"/>
<path d="M347.893 48.0283C351.903 51.6655 357.907 55.7349 362.209 59.0263C366.006 61.9321 370.847 66.0879 374.55 69.1134C377.376 71.3609 378.806 70.8223 378.553 69.4724C377.636 64.5918 372.901 56.5328 368.327 48.7331C366.385 46.2928 363.885 44.9097 362.375 44.6504C357.568 44.6504 352.348 44.6504 346.769 44.6504C344.761 45.0826 347.867 48.0017 347.893 48.0283Z" fill="#EAF3F2"/>
<path d="M309.633 48.0283C312.612 51.8317 317.852 55.7415 321.396 59.0263C324.608 62.0052 328.79 66.0879 331.955 69.1134C338.166 74.6456 337.341 66.5866 336.463 58.0488C336.177 55.2295 335.353 51.5258 334.881 48.7331C333.91 46.2861 331.569 44.9031 329.807 44.6504C323.577 44.6504 317.021 44.6504 310.198 44.6504C307.419 45.0959 309.607 48.0017 309.633 48.0283Z" fill="#EAF3F2"/>
<path d="M404.12 101.422C405.896 103.81 407.578 104.115 408.13 104.222C415.105 104.222 421.502 104.222 427.24 104.222C429.042 103.683 427.14 100.525 425.285 98.5632C417.991 90.8367 407.206 81.5874 399.233 74.5657C397.897 73.4885 397.085 73.0563 396.234 72.9832C395.35 73.0829 395.536 73.8609 395.656 74.1933C399.778 85.4307 399.778 85.4308 402.757 98.5632C402.97 99.308 403.236 100.239 404.12 101.422Z" fill="#EAF3F2"/>
<path d="M358.339 101.422C359.822 103.81 361.884 104.115 362.562 104.222C371.512 104.222 380.003 104.222 387.969 104.222C390.183 103.783 389.997 101.456 387.523 98.5632C380.788 90.6771 370.209 81.6539 362.628 74.5657C361.365 73.4885 360.487 73.0563 359.397 72.9832C358.399 73.0629 358.04 73.4885 358.073 74.5657C358.28 81.7603 358.08 91.3819 357.542 98.5632C357.568 99.308 357.601 100.239 358.339 101.422Z" fill="#EAF3F2"/>
<path d="M237.707 500.125C239.283 502.186 242.148 504.234 244.063 505.983C245.367 507.173 247.082 508.775 248.379 509.972C249.356 510.81 249.981 510.418 250.148 510.198C250.168 510.172 250.201 510.125 250.214 510.092C251.624 506.495 251.624 506.495 255.254 500.55C255.913 499.214 255.281 498.143 253.725 497.944C248.512 497.944 243.399 497.944 238.405 497.944C236.33 498.236 237.693 500.105 237.707 500.125Z" fill="#EAF3F2"/>
<path d="M212.433 500.125C214.029 501.202 218.683 503.788 231.782 509.972C233.139 510.544 233.458 510.491 233.671 510.451C233.684 510.404 233.704 510.338 233.717 510.285C232.594 508.656 231.111 507.293 230.16 505.531C229.408 504.141 228.956 502.046 228.444 500.55C228.039 499.42 226.822 498.17 225.02 497.944C220.292 497.944 215.724 497.944 211.342 497.944C211.169 497.977 210.93 498.07 210.817 498.196C210.843 498.768 211.395 499.42 212.433 500.125Z" fill="#EAF3F2"/>
<path d="M217.706 485.815C218.849 487.225 220.239 487.411 220.698 487.471C226.609 487.471 232.707 487.471 238.951 487.471C240.819 487.212 241.318 485.815 240.161 484.06C236.344 478.288 229.681 471.778 225.14 466.559C224.242 465.634 223.484 465.269 222.347 465.202C220.971 465.289 219.262 465.395 217.001 484.06C217.054 484.545 217.121 485.09 217.706 485.815Z" fill="#EAF3F2"/>
<path d="M249.922 516.03C250.214 516.076 250.886 516.163 251.305 516.189C251.777 516.189 252.262 516.189 252.761 516.189C252.655 516.123 252.621 516.096 252.05 515.884C249.516 514.933 249.396 514.866 243.093 511.362C242.528 511.043 242.169 510.916 241.756 510.89C240.227 510.99 244.529 514.195 244.582 514.228C245.699 514.926 247.455 515.332 248.678 515.804C249.004 515.87 249.363 515.943 249.922 516.03Z" fill="#EAF3F2"/>
<path d="M244.915 516.103C245.972 516.163 247.415 516.223 247.987 516.243C248.239 516.243 248.512 516.243 248.805 516.243C237.767 515.658 231.284 514.321 218.377 511.655C216.721 511.262 216.522 511.242 216.156 511.196C216.622 511.628 219.86 513.231 241.829 515.897C242.86 515.977 243.884 516.043 244.915 516.103Z" fill="#EAF3F2"/>
<path d="M243.239 516.103C244.363 516.156 245.487 516.203 246.61 516.236C246.95 516.243 247.122 516.243 247.329 516.243C233.372 515.697 225.073 514.261 210.012 511.655C208.064 511.256 207.924 511.242 207.599 511.196C213.57 513.297 233.159 515.252 239.595 515.897C240.812 515.977 242.029 516.043 243.239 516.103Z" fill="#EAF3F2"/>
<path d="M188.036 485.815C189.772 487.225 191.082 487.411 191.514 487.471C196.634 487.471 202.013 487.471 207.612 487.471C209.813 487.105 207.605 484.671 207.579 484.651C204.407 481.593 199.659 478.102 196.248 475.309C193.11 472.742 189.04 469.185 185.955 466.565C184.811 465.641 184.007 465.275 182.976 465.209C181.626 465.308 181.646 466.193 181.713 466.565C182.717 471.918 184.612 478.96 186.507 484.066C186.813 484.545 187.152 485.09 188.036 485.815Z" fill="#EAF3F2"/>
<path d="M145.055 485.815C146.724 486.746 147.987 487.305 148.818 487.471C151.611 487.471 154.809 487.471 158.36 487.471C158.426 487.444 158.52 487.411 158.586 487.384C158.52 487.019 157.881 486.101 154.397 484.06C145.753 478.993 134.369 472.004 125.958 466.559C124.555 465.634 123.783 465.269 123.125 465.202C123.045 465.229 122.939 465.262 122.859 465.289C122.693 466.16 124.993 469.75 142.288 484.06C142.987 484.545 143.771 485.097 145.055 485.815Z" fill="#EAF3F2"/>
<path d="M190.623 500.125C197.252 503.316 205.597 506.102 217.141 509.972C218.843 510.478 219.129 510.478 219.361 510.478C219.149 510.258 219.149 510.258 218.79 510.099C212.533 507.299 212.533 507.299 204.141 500.557C203.157 499.712 200.989 498.203 199.094 497.95C195.118 497.95 191.361 497.95 187.857 497.95C187.79 497.97 187.697 497.997 187.624 498.017C187.71 498.655 189.752 499.706 190.623 500.125Z" fill="#EAF3F2"/>
<path d="M174.997 500.125C184.013 503.762 190.517 505.577 206.229 509.972C208.004 510.404 208.31 510.444 208.636 510.484C208.377 510.325 208.377 510.325 207.625 510.092C198.802 507.379 198.037 506.993 185.244 500.55C184.818 500.317 181.008 498.243 179.04 497.944C176.021 497.944 173.288 497.944 170.868 497.944C171.1 498.462 173.241 499.413 174.997 500.125Z" fill="#EAF3F2"/>
<path d="M339.329 500.696C328.025 505.151 328.025 505.151 308.742 510.338C308.057 510.498 307.372 510.644 306.694 510.823C315.79 509.354 331.223 504.393 341.43 501.115C342.514 500.723 345.805 499.539 347.933 498.615C347.488 498.549 346.53 498.549 345.22 498.549C344.535 498.702 342.554 499.426 339.329 500.696Z" fill="#EAF3F2"/>
<path d="M328.304 500.696C318.077 505.517 318.077 505.517 302.99 510.338C301.833 510.651 301.78 510.67 301.401 510.797C302.372 510.797 307.678 510.099 335.033 501.109C338.784 499.719 340.22 498.981 340.758 498.609C338.777 498.542 336.496 498.542 333.923 498.542C332.327 498.815 328.71 500.504 328.304 500.696Z" fill="#EAF3F2"/>
<path d="M364.816 486.586C363.14 487.617 362.887 487.896 362.668 488.136C365.042 488.216 366.924 488.216 368.34 488.216C375.402 486.254 392.357 472.636 398.741 467.509C399.652 466.692 399.705 466.579 399.871 466.246C399.838 466.22 399.798 466.186 399.765 466.16C399.485 466.233 399.02 466.352 397.737 467.19C386.293 474.644 386.293 474.644 367.874 484.838C367.03 485.31 365.979 485.875 364.816 486.586Z" fill="#EAF3F2"/>
<path d="M264.756 516.11C263.692 516.163 262.635 516.203 261.571 516.243C261.578 516.249 261.711 516.249 261.817 516.249C277.417 515.764 285.742 514.314 300.856 511.688C302.418 511.349 302.551 511.309 302.764 511.236C302.505 511.269 302.352 511.289 300.862 511.588C289.159 513.895 287.983 514.008 268.274 515.917C267.104 515.983 265.933 516.05 264.756 516.11Z" fill="#EAF3F2"/>
<path d="M259.45 516.176C258.858 516.223 258.267 516.256 257.675 516.289C257.868 516.296 258.12 516.296 258.36 516.296C269.005 515.97 274.365 514.467 283.248 511.974C283.694 511.808 283.8 511.768 284.026 511.648C284.026 511.615 284.026 511.568 284.026 511.535C283.793 511.562 283.441 511.595 282.43 511.874C274.119 514.148 273.879 514.181 261.485 516.003C260.807 516.063 260.128 516.123 259.45 516.176Z" fill="#EAF3F2"/>
<path d="M256.671 516.176C256.418 516.216 256.159 516.256 255.899 516.289C256.199 516.296 256.505 516.296 256.797 516.296C257.921 516.249 260.913 516.116 266.352 514.441C267.802 513.995 269.444 512.718 270.774 511.98C271.027 511.768 271.027 511.741 271.033 511.601C270.974 511.575 270.887 511.542 270.821 511.535C270.368 511.562 269.85 511.761 269.577 511.874C264.045 514.241 264.045 514.241 257.622 516.003C257.309 516.063 256.99 516.123 256.671 516.176Z" fill="#EAF3F2"/>
<path d="M348.173 486.586C346.836 487.61 346.803 487.89 346.77 488.136C346.843 488.162 346.936 488.196 347.009 488.216C350.653 488.216 353.944 488.216 356.85 488.216C363.459 486.946 376.246 473.328 381.705 467.509C382.35 466.685 382.324 466.579 382.237 466.246C382.151 466.22 382.038 466.186 381.958 466.16C381.113 466.239 380.016 466.911 379.584 467.19C366.472 475.741 366.472 475.741 350.859 484.838C350.021 485.33 349.09 485.882 348.173 486.586Z" fill="#EAF3F2"/>
<path d="M296.301 486.586C295.749 487.989 296.793 488.156 297.186 488.222C302.818 488.222 308.23 488.222 313.397 488.222C318.045 487.577 319.787 484.784 322.347 467.516C322.34 466.605 321.974 466.239 321.01 466.173C319.86 466.246 318.982 466.778 318.444 467.204C311.349 472.882 304.646 479.026 297.671 484.851C297.179 485.31 296.58 485.882 296.301 486.586Z" fill="#EAF3F2"/>
<path d="M310.511 500.696C302.312 506.122 302.312 506.122 292.817 510.338C292.152 510.591 292.105 510.611 291.799 510.763C292.983 510.916 299.067 509.36 321.303 501.115C324.654 499.706 325.565 498.981 325.738 498.615C325.684 498.595 325.611 498.569 325.558 498.549C322.42 498.549 319.015 498.549 315.371 498.549C313.343 498.835 310.537 500.676 310.511 500.696Z" fill="#EAF3F2"/>
<path d="M288.515 500.696C287.212 502.359 285.882 504.885 284.465 506.448C283.229 507.804 281.167 509.174 279.751 510.344C279.478 510.531 279.478 510.531 279.299 510.717C279.345 510.75 279.405 510.803 279.452 510.837C282.358 510.524 296.467 503.934 302.492 501.122C304.068 500.284 305.105 499.599 305.404 498.808C305.378 498.755 305.338 498.682 305.311 498.622C305.218 498.602 305.092 498.575 304.999 498.555C300.949 498.555 296.687 498.555 292.245 498.555C290.024 498.834 288.528 500.676 288.515 500.696Z" fill="#EAF3F2"/>
</svg>
