<svg width="635" height="485" viewBox="0 0 635 485" fill="none" xmlns="http://www.w3.org/2000/svg">
<path opacity="0.15" fill-rule="evenodd" clip-rule="evenodd" d="M635 370.5C635 307.263 583.737 256 520.5 256C457.263 256 406 307.263 406 370.5C406 433.737 457.263 485 520.5 485C583.737 485 635 433.737 635 370.5ZM588.352 370.5C588.352 407.974 557.974 438.352 520.5 438.352C483.026 438.352 452.648 407.974 452.648 370.5C452.648 333.026 483.026 302.648 520.5 302.648C557.974 302.648 588.352 333.026 588.352 370.5Z" fill="url(#paint0_linear)"/>
<path d="M520.75 12.6836H175.045V196.849H520.75V12.6836Z" fill="#ADCFC7"/>
<path fill-rule="evenodd" clip-rule="evenodd" d="M341.427 16.2051H181.655V101.318H341.424V16.2051H341.427ZM341.427 108.214H181.655V193.327H341.424V108.214H341.427ZM514.139 108.214H354.367V193.327H514.139V108.214ZM514.139 16.2051H354.367V101.318H514.139V16.2051Z" fill="#CDE7E0"/>
<path fill-rule="evenodd" clip-rule="evenodd" d="M307.915 16.2051H240.314L340.379 101.318H341.425V44.7083L307.915 16.2051ZM223.794 16.2051L323.858 101.318H301.325L201.26 16.2051H223.794ZM448.553 193.327L354.37 113.217V108.214H416.086L514.14 191.618V193.329H448.553V193.327ZM354.37 55.7191L407.981 101.32H354.37V55.7191ZM432.03 193.327L354.37 127.271V146.439L409.496 193.327H432.03ZM341.427 116.263L331.965 108.214H309.432L341.427 135.43V116.263Z" fill="white"/>
<path d="M537.426 0H158.372V8.64362H537.426V0Z" fill="#ADCFC7"/>
<path d="M537.426 200.891H158.371V209.532H537.426V200.891Z" fill="#ADCFC7"/>
<path fill-rule="evenodd" clip-rule="evenodd" d="M289.629 415.66C131.794 415.66 3.84375 416.9 3.84375 418.431C3.84375 419.96 131.794 421.2 289.629 421.2C447.464 421.2 575.414 419.96 575.414 418.431C575.414 416.9 447.462 415.66 289.629 415.66Z" fill="#B6D8F8"/>
<path fill-rule="evenodd" clip-rule="evenodd" d="M218.913 232.843L222.32 204.257H222.518C231.056 204.257 238.297 204.257 246.835 204.257H247.033L250.44 232.843C251.155 235.319 261.48 237.183 260.804 240.103C260.673 240.662 258.572 240.836 258.179 240.881C256.22 241.108 254.227 241.219 252.262 241.316C246.398 241.604 240.502 241.688 234.632 241.704C228.774 241.719 222.886 241.667 217.033 241.39C215.067 241.298 213.068 241.189 211.108 240.946C210.714 240.896 208.48 240.707 208.455 240.042C208.326 236.859 217.527 235.713 218.913 232.843Z" fill="#4512B0"/>
<path fill-rule="evenodd" clip-rule="evenodd" d="M209.107 238.592C209.986 240.234 259.395 240.015 260.157 238.592C260.272 236.225 251.923 234.649 250.605 232.239L247.275 208.407C239.74 208.407 229.613 208.407 222.079 208.407L218.749 232.239C217.428 234.649 208.992 236.225 209.107 238.592Z" fill="#92B3CD"/>
<path fill-rule="evenodd" clip-rule="evenodd" d="M160.989 120.03H308.271C310.74 120.03 312.76 122.05 312.76 124.519V210.565C312.76 213.034 310.74 215.054 308.271 215.054H160.989C158.52 215.054 156.5 213.034 156.5 210.565V124.519C156.5 122.05 158.52 120.03 160.989 120.03Z" fill="white"/>
<path fill-rule="evenodd" clip-rule="evenodd" d="M160.99 120.63H308.272C310.411 120.63 312.161 122.379 312.161 124.519V210.565C312.161 212.704 310.411 214.454 308.272 214.454H160.99C158.85 214.454 157.101 212.704 157.101 210.565V124.519C157.101 122.379 158.85 120.63 160.99 120.63Z" fill="#B3E4EA"/>
<path fill-rule="evenodd" clip-rule="evenodd" d="M195.645 120.63H308.273C310.413 120.63 312.162 122.379 312.162 124.519V210.565C312.162 212.704 310.413 214.454 308.273 214.454H261.633L195.645 120.63Z" fill="#C3E6EA"/>
<path d="M307.529 124.577H161.733V202.961H307.529V124.577Z" fill="#EFFCFE"/>
<path d="M307.187 124.918H162.074V202.62H307.187V124.918Z" fill="white"/>
<path fill-rule="evenodd" clip-rule="evenodd" d="M329.102 417.574L299.621 252.917H328.079L341.899 417.574H329.102Z" fill="#79AB9F"/>
<path fill-rule="evenodd" clip-rule="evenodd" d="M329.102 417.574L299.621 252.917H322.553L336.371 417.574H329.102Z" fill="#ADCFC7"/>
<path fill-rule="evenodd" clip-rule="evenodd" d="M124.566 417.574L154.046 252.917H125.588L111.77 417.574H124.566Z" fill="#CFCFEF"/>
<path fill-rule="evenodd" clip-rule="evenodd" d="M124.566 417.574L154.045 252.917H131.115L117.295 417.574H124.566Z" fill="#A8A6D2"/>
<path fill-rule="evenodd" clip-rule="evenodd" d="M385.732 417.574L356.253 252.917H384.711L398.531 417.574H385.732Z" fill="#79AB9F"/>
<path fill-rule="evenodd" clip-rule="evenodd" d="M385.732 417.574L356.253 252.917H379.185L393.003 417.574H385.732Z" fill="#ADCFC7"/>
<path fill-rule="evenodd" clip-rule="evenodd" d="M89.4346 239.844V252.915C196.265 252.915 303.095 252.915 409.925 252.915V239.844C303.095 239.844 196.267 239.844 89.4346 239.844Z" fill="#79AB9F"/>
<path fill-rule="evenodd" clip-rule="evenodd" d="M89.4346 239.844V248.9C196.265 248.9 303.095 248.9 409.925 248.9V239.844C303.095 239.844 196.267 239.844 89.4346 239.844Z" fill="#ADCFC7"/>
<path fill-rule="evenodd" clip-rule="evenodd" d="M187.978 417.574L217.457 252.917H188.999L175.181 417.574H187.978Z" fill="#79AB9F"/>
<path fill-rule="evenodd" clip-rule="evenodd" d="M187.977 417.574L217.457 252.917H194.527L180.709 417.574H187.977Z" fill="#ADCFC7"/>
<path fill-rule="evenodd" clip-rule="evenodd" d="M28.8507 417.574H66.6446L72.7226 384.93H22.7749L28.8507 417.574Z" fill="#3EA4EB"/>
<path fill-rule="evenodd" clip-rule="evenodd" d="M28.8507 417.574H31.8401L27.2049 384.93H22.7749L28.8507 417.574Z" fill="#6BB8F0"/>
<path fill-rule="evenodd" clip-rule="evenodd" d="M72.2965 387.214L72.7226 384.93H22.7749L23.1987 387.214H72.2965Z" fill="#3090D7"/>
<path fill-rule="evenodd" clip-rule="evenodd" d="M27.2049 384.93H22.7749L23.1987 387.214H27.5296L27.2049 384.93Z" fill="#3EA4EB"/>
<path fill-rule="evenodd" clip-rule="evenodd" d="M28.8505 417.574H66.6444L72.7224 384.93H67.3883C66.5745 398.136 60.3589 419.216 27.96 412.784L28.8505 417.574Z" fill="#3090D7"/>
<path fill-rule="evenodd" clip-rule="evenodd" d="M28.8508 417.574H31.8379L31.2383 413.354C30.1742 413.196 29.083 413.007 27.958 412.784L28.8508 417.574Z" fill="#3EA4EB"/>
<path fill-rule="evenodd" clip-rule="evenodd" d="M18.9194 373.08H76.5751L75.7072 384.93H19.7874L18.9194 373.08Z" fill="#6BB8F0"/>
<path fill-rule="evenodd" clip-rule="evenodd" d="M18.9194 373.08H25.5228L27.2046 384.93H19.7874L18.9194 373.08Z" fill="#98CBF5"/>
<path fill-rule="evenodd" clip-rule="evenodd" d="M67.0972 373.08H76.5749L75.707 384.93H67.0972V373.08Z" fill="#3EA4EB"/>
<path fill-rule="evenodd" clip-rule="evenodd" d="M50.6398 372.363C50.6398 372.363 54.3236 315.582 36.1323 273.489C40.5939 295.171 42.8168 347.258 36.2586 373.08H48.4011L50.6398 372.363Z" fill="#76CAD3"/>
<path fill-rule="evenodd" clip-rule="evenodd" d="M42.551 373.08C42.4969 358.156 44.1562 317.539 62.0815 283.88C56.806 304.682 53.6701 347.47 60.5191 373.071L60.3388 373.083H42.551V373.08Z" fill="#C3E6EA"/>
<path fill-rule="evenodd" clip-rule="evenodd" d="M46.5029 373.08C47.1657 361.053 51.8302 323.572 83.3589 282.394C83.3589 282.394 60.5257 343.193 59.8494 373.08H46.5029Z" fill="#9EDAE1"/>
<path fill-rule="evenodd" clip-rule="evenodd" d="M56.2241 373.08C55.1285 357.518 47.8849 303.185 0 264.555C9.5905 272.912 35.5101 338.655 35.8392 373.08H56.2241Z" fill="#9EDAE1"/>
<path fill-rule="evenodd" clip-rule="evenodd" d="M16.0654 294.961C25.8363 319.163 35.6387 351.994 35.8393 373.08H42.1834C41.1328 363.544 39.2661 353.631 36.5315 343.547C31.6348 325.491 24.5197 308.986 16.0654 294.961Z" fill="#76CAD3"/>
<path fill-rule="evenodd" clip-rule="evenodd" d="M260.813 224.693C254.002 224.693 248.429 230.266 248.429 237.077V237.093C248.429 238.608 249.669 239.845 251.181 239.845H270.444C271.959 239.845 273.196 238.605 273.196 237.093V237.077C273.196 230.266 267.623 224.693 260.813 224.693Z" fill="#41ABB7"/>
<path fill-rule="evenodd" clip-rule="evenodd" d="M260.318 224.703C253.733 224.965 248.428 230.429 248.428 237.076V237.091C248.428 238.606 249.666 239.844 251.181 239.844H269.458C270.973 239.844 272.211 238.604 272.211 237.091V237.076C272.211 230.429 266.904 224.962 260.318 224.703Z" fill="#5AB4BE"/>
<path fill-rule="evenodd" clip-rule="evenodd" d="M260.812 224.691C259.73 224.691 258.682 224.831 257.681 225.095C253.63 226.995 250.807 231.117 250.807 235.867V235.88C250.807 237.334 251.997 238.523 253.449 238.523H271.94C272.274 238.523 272.597 238.459 272.89 238.344C273.083 237.968 273.194 237.54 273.194 237.089V237.073C273.196 230.264 267.623 224.691 260.812 224.691Z" fill="#5AB5BE"/>
<path fill-rule="evenodd" clip-rule="evenodd" d="M256.642 225.647C253.156 227.726 250.807 231.534 250.807 235.867V235.88C250.807 237.334 251.997 238.523 253.449 238.523H271.94C272.274 238.523 272.597 238.459 272.89 238.344C273.077 237.984 273.187 237.576 273.194 237.143C270.716 234.958 266.453 234.307 262.557 235.078C254.349 236.705 251.483 230.346 256.642 225.647Z" fill="#3495A0"/>
<path fill-rule="evenodd" clip-rule="evenodd" d="M260.307 224.703C259.403 224.739 258.524 224.874 257.681 225.097C253.63 226.998 250.807 231.119 250.807 235.869V235.883C250.807 237.337 251.997 238.525 253.449 238.525H271.805C272.062 238.105 272.211 237.614 272.211 237.091V237.075C272.211 230.424 266.897 224.955 260.307 224.703Z" fill="#834BEF"/>
<path fill-rule="evenodd" clip-rule="evenodd" d="M260.307 224.703C259.403 224.739 258.524 224.874 257.681 225.097C253.63 226.998 250.807 231.119 250.807 235.869V235.883C250.807 237.337 251.997 238.525 253.449 238.525H271.805C272.062 238.105 272.211 237.614 272.211 237.091V237.075C272.211 230.424 266.897 224.955 260.307 224.703Z" fill="#76CAD3"/>
<path fill-rule="evenodd" clip-rule="evenodd" d="M256.642 225.647C253.156 227.726 250.807 231.534 250.807 235.867V235.88C250.807 237.334 251.997 238.523 253.449 238.523H271.805C272.062 238.103 272.211 237.612 272.211 237.089V237.073C272.211 236.847 272.204 236.622 272.193 236.399C269.663 234.818 265.971 234.404 262.56 235.08C254.349 236.705 251.483 230.346 256.642 225.647Z" fill="#41ABB7"/>
<path fill-rule="evenodd" clip-rule="evenodd" d="M260.665 224.691V226.691C260.295 226.759 260.014 227.086 260.014 227.476C260.014 227.918 260.37 228.274 260.812 228.274C261.251 228.274 261.61 227.918 261.61 227.476C261.61 227.086 261.328 226.761 260.958 226.691V224.691C260.909 224.691 260.861 224.689 260.812 224.689L260.665 224.691Z" fill="white"/>
<path fill-rule="evenodd" clip-rule="evenodd" d="M212.181 132.919H174.71C173.319 132.919 172.183 134.057 172.183 135.446V197.507C172.183 198.898 173.321 200.034 174.71 200.034H212.181C213.572 200.034 214.709 198.898 214.709 197.507V135.446C214.709 134.055 213.572 132.919 212.181 132.919Z" fill="#EFFDFF"/>
<path fill-rule="evenodd" clip-rule="evenodd" d="M217.15 136.341V160.881C217.15 162.651 218.6 164.098 220.367 164.098H253.902C255.67 164.098 257.119 162.648 257.119 160.881V136.341C257.119 134.574 255.672 133.124 253.902 133.124H220.367C218.597 133.122 217.15 134.571 217.15 136.341Z" fill="#EFFDFF"/>
<path fill-rule="evenodd" clip-rule="evenodd" d="M214.537 133.672V158.212C214.537 160.22 216.181 161.862 218.189 161.862H250.787C252.795 161.862 254.439 160.218 254.439 158.212V133.672C254.439 131.663 252.795 130.022 250.787 130.022H218.189C216.181 130.022 214.537 131.663 214.537 133.672Z" fill="#3090D7"/>
<path fill-rule="evenodd" clip-rule="evenodd" d="M214.973 133.672V158.209C214.973 159.979 216.422 161.427 218.19 161.427H250.787C252.555 161.427 254.004 159.977 254.004 158.209V133.672C254.004 131.904 252.557 130.455 250.787 130.455H218.19C216.42 130.455 214.973 131.902 214.973 133.672Z" fill="white"/>
<path fill-rule="evenodd" clip-rule="evenodd" d="M217.15 172.28V196.819C217.15 198.589 218.6 200.037 220.367 200.037H253.902C255.67 200.037 257.119 198.587 257.119 196.819V172.28C257.119 170.512 255.672 169.062 253.902 169.062H220.367C218.597 169.06 217.15 170.508 217.15 172.28Z" fill="#EFFDFF"/>
<path fill-rule="evenodd" clip-rule="evenodd" d="M214.537 169.61V194.15C214.537 196.159 216.181 197.8 218.189 197.8H250.787C252.795 197.8 254.439 196.157 254.439 194.15V169.61C254.439 167.602 252.795 165.96 250.787 165.96H218.189C216.181 165.96 214.537 167.602 214.537 169.61Z" fill="#3090D7"/>
<path fill-rule="evenodd" clip-rule="evenodd" d="M214.973 169.61V194.148C214.973 195.918 216.422 197.365 218.19 197.365H250.787C252.555 197.365 254.004 195.915 254.004 194.148V169.61C254.004 167.843 252.557 166.393 250.787 166.393H218.19C216.42 166.393 214.973 167.841 214.973 169.61Z" fill="white"/>
<path fill-rule="evenodd" clip-rule="evenodd" d="M259.796 136.341V160.881C259.796 162.651 261.246 164.098 263.013 164.098H296.548C298.316 164.098 299.765 162.648 299.765 160.881V136.341C299.765 134.574 298.318 133.124 296.548 133.124H263.013C261.243 133.122 259.796 134.571 259.796 136.341Z" fill="#EFFDFF"/>
<path fill-rule="evenodd" clip-rule="evenodd" d="M257.185 133.672V158.212C257.185 160.22 258.829 161.862 260.835 161.862H293.432C295.441 161.862 297.082 160.218 297.082 158.212V133.672C297.082 131.663 295.441 130.022 293.432 130.022H260.835C258.826 130.022 257.185 131.663 257.185 133.672Z" fill="#3090D7"/>
<path fill-rule="evenodd" clip-rule="evenodd" d="M257.618 133.672V158.209C257.618 159.979 259.067 161.427 260.835 161.427H293.432C295.2 161.427 296.649 159.977 296.649 158.209V133.672C296.649 131.904 295.202 130.455 293.432 130.455H260.835C259.065 130.455 257.618 131.902 257.618 133.672Z" fill="white"/>
<path fill-rule="evenodd" clip-rule="evenodd" d="M260.113 172.28V196.819C260.113 198.589 261.563 200.037 263.33 200.037H296.866C298.633 200.037 300.083 198.587 300.083 196.819V172.28C300.083 170.512 298.635 169.062 296.866 169.062H263.33C261.561 169.06 260.113 170.508 260.113 172.28Z" fill="#EFFDFF"/>
<path fill-rule="evenodd" clip-rule="evenodd" d="M257.503 169.61V194.15C257.503 196.159 259.147 197.8 261.153 197.8H293.751C295.759 197.8 297.403 196.157 297.403 194.15V169.61C297.403 167.602 295.762 165.96 293.751 165.96H261.153C259.145 165.96 257.503 167.602 257.503 169.61Z" fill="#3090D7"/>
<path fill-rule="evenodd" clip-rule="evenodd" d="M257.936 169.61V194.148C257.936 195.918 259.388 197.365 261.153 197.365H293.75C295.518 197.365 296.968 195.915 296.968 194.148V169.61C296.968 167.843 295.52 166.393 293.75 166.393H261.153C259.383 166.393 257.936 167.841 257.936 169.61Z" fill="white"/>
<path fill-rule="evenodd" clip-rule="evenodd" d="M209.517 130.022H172.047C170.469 130.022 169.18 131.311 169.18 132.889V194.95C169.18 196.529 170.469 197.818 172.047 197.818H209.519C211.097 197.818 212.387 196.529 212.387 194.95V132.889C212.384 131.311 211.095 130.022 209.517 130.022Z" fill="#3090D7"/>
<path fill-rule="evenodd" clip-rule="evenodd" d="M209.439 130.506H172.128C170.743 130.506 169.609 131.638 169.609 133.024V194.821C169.609 196.205 170.741 197.339 172.128 197.339H209.439C210.823 197.339 211.955 196.208 211.955 194.821V133.024C211.955 131.64 210.823 130.506 209.439 130.506Z" fill="white"/>
<path fill-rule="evenodd" clip-rule="evenodd" d="M175.028 174.453V171.098C175.028 170.898 175.192 170.731 175.395 170.731H178.75C178.951 170.731 179.117 170.895 179.117 171.098V174.453C179.117 174.653 178.953 174.818 178.75 174.818H175.395C175.195 174.82 175.028 174.656 175.028 174.453Z" fill="#B3E4EA"/>
<path d="M204.983 171.053H181.327V172.061H204.983V171.053Z" fill="#98CBF5"/>
<path d="M193.154 173.488H181.327V174.496H193.154V173.488Z" fill="#98CBF5"/>
<path fill-rule="evenodd" clip-rule="evenodd" d="M175.029 167.223V163.868C175.029 163.665 175.193 163.501 175.396 163.501H178.751C178.952 163.501 179.118 163.665 179.118 163.868V167.223C179.118 167.423 178.954 167.59 178.751 167.59H175.396C175.196 167.59 175.029 167.423 175.029 167.223Z" fill="#B3E4EA"/>
<path d="M191.917 163.823H181.328V164.831H191.917V163.823Z" fill="#98CBF5"/>
<path d="M199.974 166.258H181.327V167.266H199.974V166.258Z" fill="#98CBF5"/>
<path fill-rule="evenodd" clip-rule="evenodd" d="M175.028 181.683V178.328C175.028 178.128 175.192 177.961 175.395 177.961H178.75C178.951 177.961 179.117 178.125 179.117 178.328V181.683C179.117 181.884 178.953 182.048 178.75 182.048H175.395C175.195 182.05 175.028 181.886 175.028 181.683Z" fill="#B3E4EA"/>
<path d="M204.983 178.283H181.327V179.291H204.983V178.283Z" fill="#98CBF5"/>
<path d="M198.572 180.72H181.327V181.728H198.572V180.72Z" fill="#98CBF5"/>
<path fill-rule="evenodd" clip-rule="evenodd" d="M179.787 145.386C179.787 139.34 184.736 134.391 190.782 134.391C196.829 134.391 201.777 139.34 201.777 145.386C201.777 151.432 196.829 156.381 190.782 156.381C184.736 156.381 179.787 151.432 179.787 145.386Z" fill="#3090D7"/>
<path fill-rule="evenodd" clip-rule="evenodd" d="M190.782 138.765C192.845 138.765 194.52 140.437 194.52 142.503C194.52 144.261 193.307 145.735 191.673 146.134C194.312 146.491 196.456 148.407 197.146 150.925C197.219 151.191 197.169 151.453 197 151.674C196.833 151.895 196.594 152.012 196.317 152.012H185.25C184.972 152.012 184.733 151.895 184.566 151.674C184.4 151.453 184.348 151.194 184.42 150.925C185.11 148.407 187.254 146.491 189.894 146.134C188.259 145.735 187.044 144.261 187.044 142.503C187.044 140.437 188.717 138.765 190.782 138.765Z" fill="white"/>
<path fill-rule="evenodd" clip-rule="evenodd" d="M270.824 176.531C271.203 176.06 271.632 175.632 272.103 175.253L271.28 173.54C271.217 173.407 271.266 173.247 271.393 173.175L272.944 172.28C273.072 172.205 273.232 172.241 273.316 172.363L274.396 173.932C274.957 173.718 275.539 173.562 276.131 173.468L276.276 171.569C276.287 171.423 276.409 171.31 276.558 171.31H278.348C278.494 171.31 278.616 171.423 278.629 171.569L278.78 173.468C279.373 173.562 279.957 173.718 280.519 173.934L281.592 172.363C281.675 172.241 281.838 172.205 281.966 172.277L283.517 173.172C283.646 173.247 283.695 173.405 283.63 173.538L282.811 175.258C283.28 175.634 283.707 176.06 284.083 176.529L285.796 175.706C285.929 175.643 286.089 175.693 286.162 175.819L287.057 177.37C287.131 177.499 287.093 177.661 286.973 177.744L285.404 178.824C285.618 179.386 285.776 179.967 285.869 180.56L287.767 180.705C287.913 180.716 288.028 180.838 288.028 180.986V182.776C288.028 182.923 287.916 183.045 287.769 183.056L285.871 183.207C285.778 183.8 285.621 184.384 285.404 184.945L286.975 186.018C287.097 186.102 287.136 186.264 287.061 186.393L286.166 187.944C286.092 188.07 285.934 188.119 285.801 188.056L284.081 187.238C283.704 187.705 283.28 188.128 282.816 188.505L283.634 190.223C283.697 190.356 283.648 190.514 283.522 190.588L281.971 191.483C281.842 191.557 281.68 191.521 281.596 191.397L280.523 189.826C279.962 190.042 279.38 190.198 278.787 190.293L278.636 192.193C278.625 192.34 278.503 192.453 278.354 192.453H276.564C276.418 192.453 276.294 192.34 276.283 192.193L276.138 190.297C275.545 190.205 274.961 190.047 274.4 189.831L273.32 191.4C273.237 191.521 273.074 191.557 272.948 191.483L271.397 190.588C271.269 190.514 271.219 190.356 271.284 190.223L272.11 188.509C271.641 188.133 271.215 187.707 270.836 187.238L269.118 188.056C268.985 188.119 268.825 188.07 268.753 187.944L267.858 186.393C267.783 186.264 267.822 186.102 267.943 186.018L269.515 184.945C269.298 184.384 269.143 183.802 269.048 183.209L267.147 183.058C267.001 183.047 266.888 182.925 266.888 182.776V180.986C266.888 180.84 267.001 180.716 267.15 180.705L269.046 180.562C269.138 179.967 269.296 179.386 269.512 178.824L267.943 177.744C267.822 177.661 267.785 177.499 267.86 177.37L268.755 175.819C268.829 175.691 268.987 175.641 269.12 175.706L270.824 176.531ZM274.285 180.053C273.275 181.802 273.875 184.037 275.622 185.047C277.369 186.057 279.606 185.457 280.616 183.71C281.626 181.962 281.026 179.726 279.279 178.716C277.532 177.706 275.295 178.303 274.285 180.053Z" fill="#3090D7"/>
<path fill-rule="evenodd" clip-rule="evenodd" d="M284.02 135.703H270.245C268.401 135.703 266.893 137.211 266.893 139.055V152.83C266.893 154.674 268.401 156.183 270.245 156.183H284.02C285.864 156.183 287.373 154.674 287.373 152.83V139.055C287.373 137.211 285.864 135.703 284.02 135.703Z" fill="#3090D7"/>
<path fill-rule="evenodd" clip-rule="evenodd" d="M286.152 152.724V139.157C286.152 137.928 285.147 136.923 283.918 136.923H270.351C269.122 136.923 268.117 137.928 268.117 139.157V152.724C268.117 153.953 269.122 154.958 270.351 154.958H283.918C285.147 154.961 286.152 153.955 286.152 152.724Z" fill="#F6F4FF"/>
<path fill-rule="evenodd" clip-rule="evenodd" d="M274.015 143.307L269.698 151.263C269.504 151.62 269.513 152.019 269.72 152.368C269.928 152.715 270.275 152.914 270.68 152.914C274.982 152.914 279.284 152.914 283.585 152.914C283.991 152.914 284.338 152.715 284.545 152.368C284.753 152.021 284.76 151.62 284.568 151.263L282.214 146.926C282.014 146.556 281.653 146.342 281.231 146.342C280.81 146.342 280.449 146.556 280.251 146.926L279.489 148.328C279.41 148.477 279.263 148.563 279.096 148.563C278.927 148.563 278.785 148.477 278.704 148.328L275.981 143.31C275.78 142.94 275.419 142.726 274.998 142.726C274.578 142.721 274.218 142.938 274.015 143.307Z" fill="#3090D7"/>
<path fill-rule="evenodd" clip-rule="evenodd" d="M282.095 138.99C281.028 138.99 280.165 139.854 280.165 140.92C280.165 141.986 281.028 142.85 282.095 142.85C283.161 142.85 284.025 141.986 284.025 140.92C284.025 139.854 283.161 138.99 282.095 138.99Z" fill="#3090D7"/>
<path d="M244.808 137.214H227.873V157.617H244.808V137.214Z" fill="#D2E7FC"/>
<path d="M242.958 135.74H226.022V156.143H242.958V135.74Z" fill="white"/>
<path fill-rule="evenodd" clip-rule="evenodd" d="M226.021 135.615H243.083V156.271H225.897V135.615H226.021ZM242.831 135.865H226.145V156.018H242.831V135.865Z" fill="#3090D7"/>
<path fill-rule="evenodd" clip-rule="evenodd" d="M234.562 137.635H241.354V138.305H234.562V137.635ZM227.625 144.685H241.354V145.354H227.625V144.685ZM233.689 143.594H232.465L231.98 142.318H229.73L229.264 143.594H228.062L230.24 137.985H231.439L233.689 143.594ZM231.613 141.369L230.833 139.292L230.075 141.369H231.613ZM227.625 151.735H241.354V152.404H227.625V151.735ZM227.625 149.974H241.354V150.643H227.625V149.974ZM227.625 148.211H241.354V148.88H227.625V148.211ZM227.625 146.448H241.354V147.117H227.625V146.448ZM234.562 142.922H241.354V143.591H234.562V142.922ZM234.562 141.159H241.354V141.828H234.562V141.159ZM234.562 139.398H241.354V140.068H234.562V139.398Z" fill="#1A1840"/>
<path fill-rule="evenodd" clip-rule="evenodd" d="M238.313 172.505H240.788L230.735 191.255H228.26L238.313 172.505ZM223.535 177.104C223.535 177.925 223.708 178.705 224.06 179.437C224.412 180.172 224.948 180.736 225.672 181.128C226.391 181.525 227.243 181.721 228.233 181.721C229.683 181.721 230.826 181.304 231.662 180.468C232.498 179.631 232.913 178.511 232.913 177.106C232.913 175.713 232.496 174.597 231.662 173.761C230.826 172.924 229.683 172.507 228.233 172.507C227.243 172.507 226.391 172.703 225.672 173.1C224.948 173.492 224.412 174.056 224.06 174.791C223.708 175.519 223.535 176.295 223.535 177.104ZM226.856 177.129C226.856 178.114 227.013 178.829 227.327 179.271C227.532 179.566 227.836 179.713 228.231 179.713C228.623 179.713 228.921 179.566 229.119 179.271C229.435 178.829 229.592 178.114 229.592 177.129C229.592 176.157 229.435 175.443 229.119 174.992C228.921 174.705 228.623 174.563 228.231 174.563C227.834 174.563 227.532 174.705 227.327 174.992C227.011 175.434 226.856 176.148 226.856 177.129ZM236.063 186.611C236.063 187.432 236.236 188.21 236.584 188.94C236.931 189.67 237.467 190.234 238.191 190.635C238.917 191.032 239.767 191.233 240.748 191.233C242.206 191.233 243.351 190.811 244.188 189.97C245.024 189.129 245.439 188.009 245.439 186.611C245.439 185.213 245.024 184.095 244.188 183.252C243.351 182.411 242.204 181.99 240.748 181.99C239.767 181.99 238.917 182.19 238.191 182.587C237.467 182.988 236.931 183.552 236.584 184.282C236.236 185.013 236.063 185.788 236.063 186.611ZM239.384 186.64C239.384 187.628 239.541 188.347 239.857 188.794C240.055 189.08 240.353 189.222 240.75 189.222C241.142 189.222 241.444 189.08 241.649 188.794C241.965 188.349 242.123 187.628 242.123 186.64C242.123 185.655 241.965 184.934 241.649 184.478C241.444 184.192 241.14 184.05 240.75 184.05C240.353 184.05 240.055 184.197 239.857 184.492C239.541 184.936 239.384 185.655 239.384 186.64Z" fill="#3090D7"/>
<path fill-rule="evenodd" clip-rule="evenodd" d="M178.709 239.841C183.117 242.328 186.56 241.388 189.695 239.629C193.488 241.843 196.772 240.177 198.253 237.887C200.364 234.625 200.519 226.901 197.85 225.571C196.811 224.863 195.864 224.939 195.005 225.113C193.143 224.044 191.896 223.276 189.671 223.129C184.97 223.296 183.827 227.467 179.62 228.175C165.679 229.396 150.865 229.791 139.737 231.755C139.737 231.755 138.348 225.893 134.43 213.762C134.43 213.762 129.655 183.029 113.79 185.522C113.79 185.522 102.182 187.664 116.878 219.089C116.878 219.089 124.499 242.071 128.929 246.959C137.408 248.753 174.717 238.694 178.709 239.841Z" fill="url(#paint1_linear)"/>
<path fill-rule="evenodd" clip-rule="evenodd" d="M111.362 179.742C96.6067 199.919 120.824 228.33 127.119 248.715C144.406 247.502 160.6 244.307 177.262 241.636C177.975 237.492 178.376 232.697 177.005 227.875C165.165 229.254 153.742 228.107 141.067 230.217C139.182 224.879 137.298 219.54 135.413 214.201C135.415 214.199 128.893 176.166 111.362 179.742Z" fill="#7BABE3"/>
<path fill-rule="evenodd" clip-rule="evenodd" d="M111.362 179.742C110.972 180.274 110.616 180.815 110.28 181.358C104.944 200.623 124.276 224.7 129.801 242.594C146.381 241.431 161.954 238.446 177.9 235.846C177.988 233.27 177.776 230.576 177.008 227.875C165.167 229.254 153.744 228.107 141.069 230.217C139.184 224.879 137.302 219.54 135.417 214.201C135.415 214.199 128.893 176.166 111.362 179.742Z" fill="#7898C8"/>
<path fill-rule="evenodd" clip-rule="evenodd" d="M169.861 394.574C169.861 394.574 168.61 403.265 169.66 409.709C170.713 416.15 171.173 419.223 171.173 419.223L173.851 419.252L174.041 411.079C174.041 411.079 178.108 417.552 183.823 418.328C183.823 418.328 202.751 419.038 207.725 418.866C207.725 418.866 209.749 415.374 203.008 410.967C199.358 409.977 185.205 404.553 182.168 395.968C182.17 395.965 172.05 392.32 169.861 394.574Z" fill="#1A1840"/>
<path fill-rule="evenodd" clip-rule="evenodd" d="M219.445 394.482C219.445 394.482 218.102 403.82 219.231 410.741C220.361 417.662 220.857 420.963 220.857 420.963L223.736 420.992L223.941 412.211C223.941 412.211 228.31 419.166 234.451 419.998C234.451 419.998 254.789 420.834 260.132 420.65C260.132 420.65 262.307 416.898 255.066 412.162C251.145 411.097 235.939 405.197 232.675 395.972C232.672 395.977 221.799 392.061 219.445 394.482Z" fill="#1A1840"/>
<path fill-rule="evenodd" clip-rule="evenodd" d="M154.014 331.673C151.976 349.632 163.797 359.17 167.23 397.825C167.23 397.825 176.692 400.549 182.617 395.965C179.08 374.352 175.781 327.741 176.246 316.302C174.688 301.235 163.914 305.135 153.052 302.507L147.107 290.048L109.464 291.092C104.91 317.23 108.81 337.131 154.014 331.673Z" fill="#2B2468"/>
<path fill-rule="evenodd" clip-rule="evenodd" d="M154.014 331.673C151.976 349.632 163.796 359.17 167.232 397.825C167.232 397.825 171.809 399.142 176.588 398.402L161.783 324.084C141.736 321.866 124.147 318.281 108.851 314.02C111.854 327.515 123.559 335.35 154.014 331.673Z" fill="#221E54"/>
<path fill-rule="evenodd" clip-rule="evenodd" d="M144.219 325.894L203.398 327.61C202.627 352.057 213.397 356.677 217.468 397.679C217.468 397.679 227.442 400.296 233.572 395.551C229.12 371.187 226.441 325.371 226.921 313.533C225.31 297.939 214.157 301.143 202.916 298.424L164.042 290.889L158.341 284.079L111.236 286.137C108.116 303.156 110.517 326.517 144.219 325.894Z" fill="url(#paint2_linear)"/>
<path fill-rule="evenodd" clip-rule="evenodd" d="M144.218 325.894L203.398 327.61C202.627 352.057 213.397 356.677 217.468 397.679C217.468 397.679 221.269 398.675 225.618 398.324C224.446 382.574 221.501 366.376 216.35 354.357C210.829 341.475 210.705 319.453 210.705 319.453C156.011 314.324 126.397 301.318 112.841 286.069L111.24 286.139C108.115 303.156 110.516 326.517 144.218 325.894Z" fill="#221E54"/>
<path fill-rule="evenodd" clip-rule="evenodd" d="M166.75 137.926C166.75 137.926 172.724 148.986 160.397 174.642C159.242 175.168 152.876 175.204 149.066 175.258C147.104 177.377 146.372 183.401 147.041 186.879C147.041 186.879 125.932 184.729 119.78 177.726C119.78 177.726 123.894 167.435 123.171 164.955C123.171 164.955 112.453 134.867 126.629 123.001C126.629 123.001 136.073 111.24 145.533 116.436C145.531 116.436 172.309 121.41 166.75 137.926Z" fill="url(#paint3_linear)"/>
<path fill-rule="evenodd" clip-rule="evenodd" d="M128.735 114.82C128.735 114.82 167.005 107.053 170.637 131.462C170.637 131.462 172.366 143.941 170.12 147.442C170.12 147.442 161.788 142.816 162.097 152.785C155.949 158.629 152.495 176.078 141.989 173.704C141.989 173.704 121.404 168.792 116.944 162.461C116.944 162.459 104.878 147.291 128.735 114.82Z" fill="url(#paint4_linear)"/>
<path fill-rule="evenodd" clip-rule="evenodd" d="M159.709 149.839C161.56 150.238 162.252 154.289 161.26 158.886C160.266 163.483 157.962 166.887 156.113 166.486C154.264 166.087 153.57 162.035 154.562 157.438C155.554 152.842 157.858 149.44 159.709 149.839Z" fill="url(#paint5_linear)"/>
<path fill-rule="evenodd" clip-rule="evenodd" d="M152.533 120.204C154.655 125.628 152.31 131.616 147.296 133.577C142.282 135.538 136.497 132.732 134.376 127.307C132.255 121.883 134.599 115.895 139.613 113.934C144.625 111.973 150.41 114.779 152.533 120.204Z" fill="url(#paint6_linear)"/>
<path fill-rule="evenodd" clip-rule="evenodd" d="M151.085 120.916C153.624 127.404 151.39 134.346 146.094 136.416C140.798 138.487 134.45 134.905 131.911 128.417C129.373 121.928 131.607 114.987 136.903 112.917C142.198 110.845 148.549 114.425 151.085 120.916Z" fill="url(#paint7_linear)"/>
<path fill-rule="evenodd" clip-rule="evenodd" d="M120.709 177.607C120.709 177.607 136.711 180.163 149.573 178.57C149.573 178.57 150.711 180.684 151.487 182.718C154.88 183.232 158.543 185.77 160.647 187.013C154.021 193.023 155.067 199.879 160.651 204.769C160.71 207.44 162.874 206.994 162.852 209.113C164.401 211.388 168.107 218.841 167.976 223.555C167.119 228.952 162.868 233.182 160.841 238.505C155.417 270.617 178.962 275.962 169.022 291.626C161.851 301.941 113.064 303.571 107.649 288.881C104.107 279.274 113.199 273.762 113.876 259.27C105.861 242.653 91.7391 200.404 108.916 186.611C111.254 184.733 114.225 183.705 118.299 181.178C119.223 180.605 119.697 178.193 120.709 177.607Z" fill="#7BABE3"/>
<path fill-rule="evenodd" clip-rule="evenodd" d="M120.709 177.607C120.709 177.607 136.711 180.163 149.573 178.57C149.573 178.57 150.711 180.684 151.487 182.718C154.88 183.232 158.543 185.77 160.649 187.013C154.023 193.023 155.069 199.879 160.654 204.769C160.712 207.44 162.877 206.994 162.854 209.113C164.403 211.386 168.109 218.841 167.978 223.555C167.122 228.952 162.87 233.182 160.843 238.505C156.354 265.078 171.703 273.322 171.5 284.252C155.746 290.089 118.116 289.291 113.641 277.155C110.1 267.549 115.05 264.404 115.727 249.91C105.809 239.848 99.2938 208.651 111.991 184.652C113.759 183.696 115.826 182.713 118.301 181.18C119.223 180.605 119.697 178.193 120.709 177.607Z" fill="#97BBE5"/>
<path fill-rule="evenodd" clip-rule="evenodd" d="M145.161 143.204C147.729 140.577 156.695 130.52 149.301 122.742C145.752 105.962 98.8547 87.6988 98.4782 153.002C98.4151 163.837 102.162 180.995 82.7624 170.014C82.1356 191.404 135.064 221.032 145.161 143.204Z" fill="url(#paint8_linear)"/>
<path fill-rule="evenodd" clip-rule="evenodd" d="M240.214 227.165C248.731 226.353 254.115 220.32 259.143 223.422L265.227 227.174C266.093 227.992 266.711 237.409 258.302 239.724C257.359 240.7 253.452 242.231 251.637 239.611C251.637 239.611 246.522 242.145 241.095 236.854C225.9 235.319 199.62 243.406 183.286 236.205C179.183 232.481 148.408 206.006 149.562 199.543C151.402 183.417 162.191 184.99 167.949 192.36C169.372 194.337 185.153 214.204 191.037 223.596C205.067 220.631 221.653 226.682 240.214 227.165Z" fill="url(#paint9_linear)"/>
<path fill-rule="evenodd" clip-rule="evenodd" d="M153.634 184.007C159.939 182.346 167.776 190.741 174.751 200.717L192.248 220.996L239.391 226.209L239.019 239.835L186.021 240.84C179.028 233.784 160.016 218.846 153.061 210.335C141.759 198.943 142.472 186.947 153.634 184.007Z" fill="#7BABE3"/>
<path fill-rule="evenodd" clip-rule="evenodd" d="M153.633 184.007C159.939 182.346 167.775 190.741 174.751 200.717L192.248 220.996L239.391 226.209L239.147 235.152L190.794 236.07C183.8 229.013 164.788 214.075 157.836 205.564C150.436 198.111 148.186 190.396 150.642 185.132C151.537 184.675 152.533 184.296 153.633 184.007Z" fill="#97BBE5"/>
<path fill-rule="evenodd" clip-rule="evenodd" d="M181.508 412.047C178.498 412.047 176.057 415.588 176.057 419.957C176.057 424.327 178.496 427.868 181.508 427.868C184.518 427.868 186.957 424.327 186.957 419.957C186.957 415.588 184.518 412.047 181.508 412.047Z" fill="#2A4768"/>
<path fill-rule="evenodd" clip-rule="evenodd" d="M90.2855 412.047C87.2758 412.047 84.8364 415.588 84.8364 419.957C84.8364 424.327 87.2758 427.868 90.2855 427.868C93.2952 427.868 95.7345 424.327 95.7345 419.957C95.7368 415.588 93.2952 412.047 90.2855 412.047Z" fill="#2A4768"/>
<path fill-rule="evenodd" clip-rule="evenodd" d="M143.042 386.174C126.819 386.174 113.558 390.539 102.926 399.557C97.9865 403.746 94.2305 408.678 91.6244 414.139C91.0112 415.424 91.178 416.763 92.091 417.913C93.0041 419.06 94.4086 419.694 96.0409 419.694H98.8071C100.561 419.694 102.069 418.952 102.942 417.662C104.745 414.993 106.955 412.547 109.505 410.387C116.868 404.142 131.806 399.068 143.044 399.068C154.283 399.068 169.221 404.142 176.584 410.387C179.131 412.547 181.343 414.993 183.147 417.662C184.019 418.952 185.525 419.694 187.281 419.694H190.048C191.68 419.694 193.084 419.06 193.997 417.913C194.91 416.765 195.075 415.424 194.464 414.139C191.858 408.678 188.102 403.748 183.162 399.557C172.526 390.539 159.265 386.174 143.042 386.174Z" fill="#6498D3"/>
<path fill-rule="evenodd" clip-rule="evenodd" d="M94.2124 419.396C94.7738 419.59 95.3892 419.689 96.0408 419.689H98.807C100.561 419.689 102.069 418.948 102.942 417.656C111.148 405.502 128.954 399.063 143.044 399.063C157.132 399.063 174.938 405.502 183.144 417.656C184.017 418.948 185.523 419.689 187.279 419.689H190.045C190.697 419.689 191.312 419.588 191.874 419.396C181.931 403.852 161.145 393.486 143.044 393.486C124.941 393.486 104.155 403.852 94.2124 419.396Z" fill="#3C6EA6"/>
<path fill-rule="evenodd" clip-rule="evenodd" d="M193.684 412.047C190.674 412.047 188.233 415.588 188.233 419.957C188.233 424.327 190.672 427.868 193.684 427.868C196.694 427.868 199.133 424.327 199.133 419.957C199.133 415.588 196.694 412.047 193.684 412.047Z" fill="#2A4768"/>
<path fill-rule="evenodd" clip-rule="evenodd" d="M102.461 412.047C99.4515 412.047 97.0122 415.588 97.0122 419.957C97.0122 424.327 99.4538 427.868 102.461 427.868C105.471 427.868 107.91 424.327 107.91 419.957C107.913 415.588 105.471 412.047 102.461 412.047Z" fill="#2A4768"/>
<path fill-rule="evenodd" clip-rule="evenodd" d="M151.233 365.453H134.669C128.681 365.453 123.78 360.555 123.78 354.564H162.122C162.122 360.555 157.221 365.453 151.233 365.453Z" fill="#3C6EA6"/>
<path fill-rule="evenodd" clip-rule="evenodd" d="M153.433 365.021H132.467L135.168 372.043H150.735L153.433 365.021Z" fill="#2B4768"/>
<path fill-rule="evenodd" clip-rule="evenodd" d="M142.949 367.158C140.702 367.158 138.864 368.995 138.864 371.241V396.011C138.864 398.256 140.702 400.093 142.947 400.093C145.193 400.093 147.03 398.256 147.03 396.011V371.241C147.032 368.995 145.195 367.158 142.949 367.158Z" fill="#3C6EA6"/>
<path fill-rule="evenodd" clip-rule="evenodd" d="M170.871 369.025C170.871 367.647 169.872 366.47 168.653 366.522L150.527 367.293V370.756L168.653 371.525C169.868 371.574 170.871 370.4 170.871 369.025Z" fill="#2B4768"/>
<path fill-rule="evenodd" clip-rule="evenodd" d="M202.925 348.141H82.9739C81.0193 348.141 79.4209 349.74 79.4209 351.694C79.4209 353.649 81.0193 355.248 82.9739 355.248H202.927C204.882 355.248 206.48 353.649 206.48 351.694C206.48 349.74 204.88 348.141 202.925 348.141Z" fill="#477CB8"/>
<path fill-rule="evenodd" clip-rule="evenodd" d="M202.375 348.59H83.5264C83.5264 333.578 95.8087 321.295 110.821 321.295H175.08C190.09 321.295 202.375 333.578 202.375 348.59Z" fill="#6498D3"/>
<path fill-rule="evenodd" clip-rule="evenodd" d="M144.194 207.44H64.9832C59.1283 207.44 54.3398 212.231 54.3398 218.084V224.254C54.3398 251.889 76.9521 274.502 104.59 274.502C132.227 274.502 154.839 251.889 154.839 224.254V218.084C154.837 212.231 150.046 207.44 144.194 207.44Z" fill="#477CB8"/>
<path fill-rule="evenodd" clip-rule="evenodd" d="M145.36 213.088H63.8156C57.7894 213.088 52.8589 218.018 52.8589 224.044V230.395C52.8589 258.844 76.1363 282.124 104.588 282.124C133.039 282.124 156.316 258.844 156.316 230.395V224.044C156.319 218.02 151.386 213.088 145.36 213.088Z" fill="#6498D3"/>
<path fill-rule="evenodd" clip-rule="evenodd" d="M94.8911 250.363C91.5861 260.673 89.7622 271.954 89.7622 283.774C89.7622 308.242 97.5672 330.394 110.183 346.428C111.513 348.119 112.898 349.74 114.329 351.289C124.797 351.289 136.15 351.289 146.618 351.289C146.618 338.711 134.38 341.078 124.165 328.095C115.242 316.755 109.721 301.084 109.721 283.774C109.721 273.185 111.786 263.211 115.434 254.466C116.124 252.811 116.045 251.003 115.213 249.443C114.381 247.881 113.033 247.004 111.461 247.004H99.0303C97.1523 247.002 95.5517 248.302 94.8911 250.363Z" fill="#3C6EA6"/>
<path fill-rule="evenodd" clip-rule="evenodd" d="M95.083 250.363C91.7825 260.673 89.9541 271.954 89.9541 283.774C89.9541 308.242 97.7591 330.394 110.375 346.428C111.705 348.119 113.089 349.74 114.521 351.289C124.989 351.289 131.033 351.289 141.502 351.289C141.502 338.711 129.265 341.078 119.053 328.095C110.129 316.755 104.608 301.084 104.608 283.774C104.608 273.185 106.675 263.211 110.321 254.466C111.011 252.811 110.93 251.003 110.1 249.443C109.268 247.881 107.918 247.004 106.346 247.004H99.2222C97.3442 247.002 95.7413 248.307 95.083 250.363Z" fill="#477CB8"/>
<path fill-rule="evenodd" clip-rule="evenodd" d="M502.637 238.437C502.637 238.437 536.851 224.441 526.981 204.944C526.51 200.064 526.091 198.197 532.493 190.689C538.107 184.106 533.429 178.409 527.015 172.372C525.879 170.37 524.375 170.041 528.796 155.644C531.853 145.693 518.29 140.708 514.034 150.88C513.425 152.334 513.527 154.611 512.298 157.405C509.685 163.343 508.368 162.028 502.847 164.547C502.847 164.547 498.805 166.639 501.902 175.028C501.902 175.028 505.298 180.961 498.392 186.631C498.392 186.631 489.695 191.424 496.433 202.956C499.247 207.769 496.961 209.69 492.659 216.388C489.456 221.932 505.667 229.493 502.637 238.437Z" fill="#C3E6EA"/>
<path fill-rule="evenodd" clip-rule="evenodd" d="M520.991 158.054C520.978 157.625 521.314 157.269 521.742 157.256C522.17 157.242 522.527 157.578 522.54 158.006C522.54 158.02 522.761 162.378 518.042 172.485C518.333 178.795 518.329 188.597 516.676 199.692C522.572 191.747 524.45 183.022 524.456 182.995C524.549 182.578 524.961 182.314 525.378 182.407C525.795 182.499 526.059 182.912 525.967 183.329C525.96 183.36 523.651 194.089 516.171 202.805C515.353 207.508 514.228 212.4 512.697 217.321V217.324L512.69 217.344C511.822 220.133 510.828 222.931 509.685 225.71C518.728 218.64 521.145 213.054 521.151 213.036C521.325 212.646 521.783 212.47 522.175 212.643C522.565 212.817 522.741 213.277 522.567 213.667C522.558 213.687 519.605 220.514 508.45 228.576C507.027 231.73 505.404 234.845 503.553 237.88C503.33 238.245 502.852 238.36 502.487 238.137C502.121 237.914 502.006 237.438 502.23 237.073C504.076 234.043 505.692 230.934 507.108 227.784C507.117 227.762 507.126 227.742 507.138 227.719C508.734 224.159 510.073 220.55 511.193 216.956C511.198 216.936 511.202 216.913 511.209 216.893C513.432 208.829 503.512 192.132 503.483 192.085C503.264 191.715 503.388 191.24 503.756 191.023C504.126 190.804 504.601 190.928 504.818 191.296C504.84 191.337 511.399 202.372 512.801 211.246C513.552 208.272 514.165 205.332 514.663 202.462C514.663 202.377 514.679 202.291 514.708 202.21C515.524 197.453 516.022 192.894 516.309 188.703C514.999 179.915 506.265 170.539 506.24 170.512C505.949 170.199 505.97 169.709 506.283 169.419C506.597 169.128 507.086 169.148 507.377 169.461C507.397 169.484 513.648 176.196 516.561 183.773C516.71 179.341 516.636 175.481 516.491 172.455C516.482 172.401 516.48 172.345 516.482 172.291C516.27 167.924 515.919 165.327 515.916 165.297C515.862 164.874 516.164 164.486 516.588 164.432C517.012 164.378 517.4 164.68 517.454 165.104C517.456 165.126 517.652 166.578 517.842 169.137C521.16 161.321 520.994 158.063 520.991 158.054Z" fill="white"/>
<path fill-rule="evenodd" clip-rule="evenodd" d="M502.793 235.477C502.793 235.477 517.643 210.319 502.115 202.762C499.486 199.915 498.33 198.939 498.774 191.156C499.161 184.33 493.496 182.979 486.572 182.242C484.9 181.525 483.797 182.037 479.701 170.861C476.871 163.138 465.951 166.479 468.133 174.915C468.444 176.121 469.596 177.505 470.158 179.852C471.35 184.839 469.894 184.641 467.621 188.863C467.621 188.863 466.077 192.112 472.036 195.913C472.036 195.913 477.007 198.025 475.37 204.895C475.37 204.895 472.187 212.066 481.937 216.106C486.009 217.793 485.488 220.094 485.98 226.364C486.611 231.385 500.428 228.398 502.793 235.477Z" fill="#76CAD3"/>
<path fill-rule="evenodd" clip-rule="evenodd" d="M475.812 176.211C475.541 175.88 475.593 175.391 475.924 175.12C476.256 174.85 476.745 174.901 477.013 175.233C477.02 175.242 479.261 177.904 481.128 186.528C484.252 190.272 488.77 196.231 492.937 203.723C492.702 196.242 489.893 190.239 489.884 190.218C489.706 189.831 489.875 189.368 490.263 189.19C490.651 189.012 491.113 189.181 491.291 189.569C491.302 189.592 494.981 197.462 494.449 206.547C496.172 209.889 497.795 213.489 499.179 217.301L499.195 217.346C499.914 219.33 500.568 221.371 501.141 223.46C503.24 215.114 502.153 210.693 502.148 210.678C502.049 210.263 502.306 209.843 502.723 209.746C503.138 209.647 503.557 209.904 503.654 210.319C503.659 210.337 505.07 216.077 501.903 226.495C502.509 229.153 502.976 231.883 503.26 234.667C503.303 235.093 502.994 235.474 502.568 235.517C502.142 235.562 501.761 235.251 501.718 234.825C501.111 228.887 499.668 223.208 497.763 217.935C497.754 217.917 497.745 217.896 497.739 217.878C495.311 211.803 481.155 206.06 481.114 206.045C480.717 205.882 480.526 205.431 480.686 205.032C480.846 204.633 481.299 204.444 481.698 204.604C481.73 204.618 490.497 208.173 495.746 212.864C494.889 210.894 493.978 208.993 493.036 207.172C492.988 207.107 492.95 207.032 492.923 206.953C491.171 203.587 489.318 200.496 487.503 197.735C482.516 192.879 472.601 191.161 472.574 191.156C472.15 191.082 471.869 190.68 471.943 190.257C472.017 189.835 472.419 189.551 472.843 189.625C472.865 189.63 479.471 190.773 484.854 193.873C483.008 191.3 481.29 189.132 479.872 187.436C479.829 187.396 479.791 187.351 479.759 187.303C477.552 184.675 476.1 183.218 476.084 183.2C475.785 182.896 475.789 182.404 476.094 182.104C476.4 181.805 476.889 181.809 477.189 182.114C477.2 182.125 477.843 182.77 478.916 183.969C477.345 178.026 475.816 176.216 475.812 176.211Z" fill="white"/>
<path fill-rule="evenodd" clip-rule="evenodd" d="M502.238 240.01C502.238 240.01 498.847 210.993 516.108 210.373C519.665 208.836 521.115 208.41 523.863 201.114C526.273 194.716 532.002 195.776 538.627 197.906C540.447 197.929 541.249 198.842 549.519 190.281C555.234 184.366 563.866 191.844 558.455 198.673C557.682 199.649 556.068 200.449 554.605 202.368C551.496 206.444 552.907 206.852 553.275 211.636C553.275 211.636 553.372 215.229 546.385 216.293C546.385 216.293 540.983 216.21 539.701 223.156C539.701 223.156 539.707 231.004 529.154 230.749C524.749 230.643 524.293 232.956 521.304 238.491C518.691 242.824 507.265 234.498 502.238 240.01Z" fill="#9EDAE1"/>
<path fill-rule="evenodd" clip-rule="evenodd" d="M550.216 195.358C550.602 195.171 551.066 195.331 551.255 195.717C551.445 196.102 551.282 196.567 550.897 196.756C550.89 196.761 548.766 197.796 544.927 202.582C546.392 201.921 547.24 201.592 547.256 201.588C547.655 201.43 548.106 201.626 548.264 202.025C548.422 202.424 548.225 202.875 547.826 203.033C547.804 203.042 545.883 203.788 542.792 205.303C542.749 205.33 542.706 205.35 542.659 205.368C540.675 206.344 538.222 207.632 535.488 209.239C541.66 208.585 548.16 210.213 548.183 210.22C548.597 210.321 548.854 210.741 548.753 211.156C548.651 211.573 548.234 211.827 547.817 211.726C547.788 211.719 538.035 209.278 531.504 211.692C528.724 213.484 525.775 215.561 522.808 217.932C522.754 217.993 522.689 218.045 522.617 218.086C521.018 219.369 519.418 220.737 517.835 222.191C524.533 220.029 533.986 220.329 534.022 220.329C534.451 220.34 534.786 220.696 534.775 221.125C534.764 221.553 534.408 221.889 533.979 221.878C533.937 221.878 518.663 221.395 513.982 225.967C513.969 225.981 513.953 225.994 513.937 226.008C511.892 228.143 509.92 230.436 508.078 232.884C508.058 232.913 508.037 232.943 508.015 232.967C506.389 235.139 504.863 237.429 503.481 239.848C503.269 240.22 502.796 240.351 502.424 240.139C502.052 239.927 501.921 239.454 502.133 239.082C503.522 236.649 505.05 234.343 506.682 232.158C508.008 221.348 511.62 216.67 511.631 216.656C511.888 216.314 512.375 216.246 512.717 216.505C513.06 216.762 513.128 217.249 512.869 217.592C512.86 217.603 510.073 221.206 508.614 229.687C509.983 228.008 511.41 226.405 512.871 224.883L512.873 224.881L512.887 224.867L512.9 224.854C515.709 221.927 518.649 219.292 521.578 216.936C524.772 208.412 531.321 202.708 531.339 202.692C531.662 202.408 532.153 202.44 532.435 202.762C532.719 203.085 532.688 203.574 532.365 203.858C532.349 203.871 527.351 208.225 524.107 214.966C530.952 209.803 537.496 206.184 541.868 204.025C547.073 196.892 550.207 195.363 550.216 195.358Z" fill="white"/>
<path fill-rule="evenodd" clip-rule="evenodd" d="M503.792 239.334C503.792 239.334 503.03 210.13 485.858 211.963C482.118 210.944 480.621 210.729 476.867 203.898C473.573 197.906 468.054 199.768 461.796 202.816C459.997 203.096 459.334 204.115 449.933 196.815C443.435 191.769 435.953 200.395 442.279 206.39C443.183 207.246 444.894 207.81 446.614 209.501C450.271 213.094 448.932 213.699 449.245 218.485C449.245 218.485 449.66 222.058 456.725 222.119C456.725 222.119 462.062 221.271 464.319 227.963C464.319 227.963 465.423 235.731 475.834 233.982C480.179 233.252 480.959 235.479 484.703 240.531C487.902 244.454 498.032 234.588 503.792 239.334Z" fill="#9EDAE1"/>
<path fill-rule="evenodd" clip-rule="evenodd" d="M449.481 203.416C449.076 203.283 448.855 202.843 448.99 202.438C449.125 202.032 449.563 201.813 449.968 201.946C449.977 201.948 453.296 203.017 459.453 209.334C464.088 210.851 471.082 213.505 478.589 217.644C474.423 211.433 468.856 207.832 468.838 207.821C468.48 207.587 468.378 207.104 468.613 206.746C468.847 206.387 469.33 206.286 469.688 206.52C469.709 206.534 477.002 211.25 481.371 219.233C486.299 222.155 491.347 225.717 496.016 230.019C493.369 221.835 490.1 218.663 490.091 218.654C489.787 218.354 489.782 217.863 490.082 217.558C490.382 217.254 490.874 217.249 491.178 217.549C491.189 217.56 495.43 221.677 498.275 232.187C500.2 234.12 502.042 236.187 503.765 238.399C504.028 238.737 503.965 239.226 503.627 239.487C503.289 239.751 502.8 239.688 502.536 239.35C498.87 234.636 494.634 230.587 490.222 227.128C490.206 227.119 490.188 227.108 490.172 227.095C484.892 223.235 469.842 225.879 469.799 225.886C469.375 225.958 468.976 225.674 468.904 225.25C468.832 224.829 469.116 224.428 469.537 224.355C469.571 224.349 478.887 222.712 485.824 223.905C484.049 222.687 482.268 221.56 480.503 220.516C480.433 220.487 480.365 220.448 480.305 220.399C477.031 218.474 473.816 216.835 470.811 215.455C464 213.985 454.687 217.788 454.66 217.797C454.263 217.957 453.81 217.763 453.652 217.367C453.494 216.97 453.686 216.517 454.083 216.359C454.105 216.35 460.307 213.818 466.507 213.586C463.567 212.382 460.954 211.453 458.851 210.768C458.81 210.759 458.772 210.745 458.736 210.729C455.456 209.665 453.443 209.199 453.42 209.192C453.003 209.093 452.744 208.673 452.843 208.256C452.942 207.839 453.361 207.58 453.778 207.679C453.794 207.684 454.68 207.889 456.227 208.335C451.743 204.142 449.49 203.418 449.481 203.416Z" fill="white"/>
<path fill-rule="evenodd" clip-rule="evenodd" d="M518.135 276.116H485.524L480.28 247.948H523.378L518.135 276.116Z" fill="#3EA4EB"/>
<path fill-rule="evenodd" clip-rule="evenodd" d="M518.133 276.116H515.556L519.553 247.948H523.379L518.133 276.116Z" fill="#6BB8F0"/>
<path fill-rule="evenodd" clip-rule="evenodd" d="M480.645 249.917L480.28 247.948H523.378L523.011 249.917H480.645Z" fill="#3090D7"/>
<path fill-rule="evenodd" clip-rule="evenodd" d="M519.553 247.948H523.378L523.011 249.917H519.273L519.553 247.948Z" fill="#3EA4EB"/>
<path fill-rule="evenodd" clip-rule="evenodd" d="M518.135 276.116H485.524L480.28 247.946H484.881C485.582 259.343 490.946 277.532 518.903 271.981L518.135 276.116Z" fill="#3090D7"/>
<path fill-rule="evenodd" clip-rule="evenodd" d="M518.133 276.116H515.556L516.072 272.472C516.99 272.335 517.93 272.175 518.901 271.981L518.133 276.116Z" fill="#3EA4EB"/>
<path fill-rule="evenodd" clip-rule="evenodd" d="M526.704 237.722H476.955L477.703 247.948H525.953L526.704 237.722Z" fill="#6BB8F0"/>
<path fill-rule="evenodd" clip-rule="evenodd" d="M526.704 237.722H521.005L519.553 247.948H525.954L526.704 237.722Z" fill="#98CBF5"/>
<path fill-rule="evenodd" clip-rule="evenodd" d="M485.132 237.722H476.955L477.703 247.948H485.132V237.722Z" fill="#3EA4EB"/>
<path d="M555.597 276.127H408.84V417.572H555.597V276.127Z" fill="#6895B9"/>
<path d="M545.118 276.625H409.338V417.08H545.118V276.625Z" fill="#9EDAE1"/>
<path d="M536.93 284.07H417.522V321.277H536.93V284.07Z" fill="#79AB9F"/>
<path d="M536.93 328.246H417.522V365.453H536.93V328.246Z" fill="#79AB9F"/>
<path d="M536.93 372.424H417.522V409.632H536.93V372.424Z" fill="#79AB9F"/>
<path fill-rule="evenodd" clip-rule="evenodd" d="M464.131 387.06H490.322C492.504 387.06 494.289 388.846 494.289 391.028C494.289 393.21 492.504 394.996 490.322 394.996H464.131C461.949 394.996 460.164 393.213 460.164 391.028C460.164 388.846 461.949 387.06 464.131 387.06Z" fill="#45766A"/>
<path fill-rule="evenodd" clip-rule="evenodd" d="M464.131 387.06H490.321C492.303 387.06 493.958 388.535 494.244 390.437C493.958 392.342 492.303 393.817 490.321 393.817H464.131C462.15 393.817 460.495 392.345 460.208 390.437C460.495 388.532 462.15 387.06 464.131 387.06Z" fill="#5A9284"/>
<path d="M536.93 284.07H417.522V287.532H536.93V284.07Z" fill="#58758C"/>
<path d="M536.93 328.246H417.522V331.709H536.93V328.246Z" fill="#58758C"/>
<path d="M536.93 372.424H417.522V375.885H536.93V372.424Z" fill="#58758C"/>
<path fill-rule="evenodd" clip-rule="evenodd" d="M464.131 342.884H490.322C492.504 342.884 494.289 344.67 494.289 346.852C494.289 349.034 492.504 350.82 490.322 350.82H464.131C461.949 350.82 460.164 349.034 460.164 346.852C460.164 344.667 461.949 342.884 464.131 342.884Z" fill="#45766A"/>
<path fill-rule="evenodd" clip-rule="evenodd" d="M464.131 342.884H490.321C492.303 342.884 493.958 344.358 494.244 346.263C493.958 348.169 492.303 349.643 490.321 349.643H464.131C462.15 349.643 460.495 348.169 460.208 346.263C460.495 344.356 462.15 342.884 464.131 342.884Z" fill="#5A9284"/>
<path fill-rule="evenodd" clip-rule="evenodd" d="M464.131 298.708H490.322C492.504 298.708 494.289 300.493 494.289 302.676C494.289 304.858 492.504 306.643 490.322 306.643H464.131C461.949 306.643 460.164 304.858 460.164 302.676C460.164 300.493 461.949 298.708 464.131 298.708Z" fill="#45766A"/>
<path fill-rule="evenodd" clip-rule="evenodd" d="M464.131 298.708H490.321C492.303 298.708 493.958 300.182 494.244 302.087C493.958 303.992 492.303 305.464 490.321 305.464H464.131C462.15 305.464 460.495 303.99 460.208 302.087C460.495 300.18 462.15 298.708 464.131 298.708Z" fill="#5A9284"/>
<path fill-rule="evenodd" clip-rule="evenodd" d="M429.042 266.757H480.449C480.823 266.757 481.125 267.028 481.125 267.359V267.443C481.125 267.774 480.821 268.045 480.449 268.045H429.042C426.885 268.045 425.113 269.621 425.113 271.537C425.113 273.455 426.885 275.029 429.042 275.029H480.449C480.823 275.029 481.125 275.3 481.125 275.631V275.714C481.125 276.046 480.821 276.316 480.449 276.316H429.042C426.085 276.316 423.666 274.166 423.666 271.537C423.666 268.908 426.085 266.757 429.042 266.757Z" fill="#FF7200"/>
<path fill-rule="evenodd" clip-rule="evenodd" d="M429.042 266.757H432.539V268.045H429.042C426.885 268.045 425.113 269.621 425.113 271.537C425.113 273.455 426.885 275.029 429.042 275.029H432.539V276.314H429.042C426.085 276.314 423.666 274.163 423.666 271.535C423.666 268.908 426.085 266.757 429.042 266.757Z" fill="#4512B0"/>
<path fill-rule="evenodd" clip-rule="evenodd" d="M478.506 275.029V268.043H429.04C426.883 268.043 425.111 269.618 425.111 271.535C425.111 273.453 426.883 275.027 429.04 275.027H478.506V275.029Z" fill="#F2F8FF"/>
<path fill-rule="evenodd" clip-rule="evenodd" d="M422.707 266.757H484.68C485.089 266.757 485.422 266.446 485.422 266.068V265.975C485.422 265.596 485.089 265.285 484.68 265.285H422.707C420.347 265.285 418.413 263.484 418.413 261.286C418.413 259.088 420.349 257.289 422.707 257.289H484.68C485.089 257.289 485.422 256.978 485.422 256.599V256.504C485.422 256.125 485.089 255.817 484.68 255.817H422.707C419.475 255.817 416.83 258.278 416.83 261.286C416.83 264.296 419.477 266.757 422.707 266.757Z" fill="#FA394B"/>
<path fill-rule="evenodd" clip-rule="evenodd" d="M422.707 266.757H430.675V265.285H422.707C420.347 265.285 418.413 263.484 418.413 261.286C418.413 259.088 420.349 257.286 422.707 257.286H430.675V255.814H422.707C419.475 255.814 416.83 258.276 416.83 261.284C416.83 264.296 419.477 266.757 422.707 266.757Z" fill="#3EA4EB"/>
<path fill-rule="evenodd" clip-rule="evenodd" d="M479.283 257.289V265.285H422.707C420.347 265.285 418.413 263.484 418.413 261.286C418.413 259.088 420.349 257.289 422.707 257.289H479.283Z" fill="#F2F8FF"/>
<path fill-rule="evenodd" clip-rule="evenodd" d="M422.886 260.968H428.296V266.931L425.555 264.498L422.886 266.931V260.968Z" fill="#F51D2D"/>
<path fill-rule="evenodd" clip-rule="evenodd" d="M428.411 247.04H478.537C478.88 247.04 479.159 247.288 479.159 247.592V247.667C479.159 247.971 478.88 248.219 478.537 248.219H428.411C426.429 248.219 424.804 249.664 424.804 251.425C424.804 253.186 426.429 254.633 428.411 254.633H478.537C478.88 254.633 479.159 254.881 479.159 255.185V255.26C479.159 255.564 478.88 255.814 478.537 255.814H428.411C425.697 255.814 423.476 253.839 423.476 251.425C423.476 249.013 425.697 247.04 428.411 247.04Z" fill="#C3E6EA"/>
<path fill-rule="evenodd" clip-rule="evenodd" d="M428.411 247.04H453.569V248.221H452.178C450.196 248.221 448.571 249.666 448.571 251.427C448.571 253.188 450.196 254.635 452.178 254.635H453.569V255.817H428.411C425.697 255.817 423.476 253.842 423.476 251.427C423.476 249.013 425.697 247.04 428.411 247.04Z" fill="#3EA4EB"/>
<path fill-rule="evenodd" clip-rule="evenodd" d="M449.547 253.614C450.207 254.241 451.143 254.635 452.178 254.635H453.569V255.817H428.411C426.592 255.817 424.993 254.928 424.137 253.614H449.547Z" fill="#217DC4"/>
<path fill-rule="evenodd" clip-rule="evenodd" d="M475.919 254.635V248.221H452.216C450.234 248.221 448.609 249.666 448.609 251.427C448.609 253.188 450.234 254.635 452.216 254.635H475.919Z" fill="#F2F8FF"/>
<path fill-rule="evenodd" clip-rule="evenodd" d="M315.987 216.537C312.364 219.813 312.542 225.913 316.384 230.161C320.225 234.408 326.276 235.195 329.899 231.919C333.522 228.643 333.344 222.543 329.502 218.295C325.661 214.048 319.61 213.261 315.987 216.537ZM317.912 218.667C320.737 216.113 325.095 217.705 327.372 220.221C329.647 222.737 330.796 227.234 327.972 229.789C325.147 232.343 320.789 230.751 318.512 228.235C316.235 225.717 315.087 221.222 317.912 218.667Z" fill="#5B9B8C"/>
<path fill-rule="evenodd" clip-rule="evenodd" d="M352.338 212.752H324.495V228.111C324.495 234.564 329.775 239.844 336.227 239.844H340.608C347.06 239.844 352.34 234.564 352.34 228.111V212.752H352.338Z" fill="#5B9B8C"/>
<path fill-rule="evenodd" clip-rule="evenodd" d="M352.338 212.752H329.852V226.393C329.852 231.809 332.372 236.665 336.299 239.844H340.605C347.058 239.844 352.338 234.564 352.338 228.111V212.752Z" fill="#9ABDB5"/>
<path fill-rule="evenodd" clip-rule="evenodd" d="M338.331 188.406C342.287 191.061 341.9 197.112 339.494 200.546C338.108 202.525 337.075 205.646 339.532 211.232C336.836 208.227 334.119 204.108 335.799 200.312C337.515 196.429 341.372 193.632 338.331 188.406ZM331.259 194.488C333.804 196.197 333.556 200.091 332.007 202.3C331.114 203.574 330.449 205.583 332.032 209.176C330.296 207.242 328.549 204.593 329.629 202.149C330.733 199.649 333.215 197.85 331.259 194.488ZM345.619 194.488C348.167 196.197 347.917 200.091 346.368 202.3C345.475 203.574 344.81 205.583 346.393 209.176C344.657 207.242 342.91 204.593 343.99 202.149C345.094 199.649 347.576 197.85 345.619 194.488Z" fill="#5B9B8C"/>
<defs>
<linearGradient id="paint0_linear" x1="634.695" y1="485" x2="634.695" y2="256.61" gradientUnits="userSpaceOnUse">
<stop stop-color="#0F6C76" stop-opacity="0"/>
<stop offset="1" stop-color="#0F6C76" stop-opacity="0.42"/>
</linearGradient>
<linearGradient id="paint1_linear" x1="137.593" y1="236.294" x2="144.908" y2="226.2" gradientUnits="userSpaceOnUse">
<stop stop-color="#FAA85D"/>
<stop offset="1" stop-color="#FED7B3"/>
</linearGradient>
<linearGradient id="paint2_linear" x1="196.328" y1="321.828" x2="212.966" y2="308.601" gradientUnits="userSpaceOnUse">
<stop stop-color="#2F2E57"/>
<stop offset="1" stop-color="#33346E"/>
</linearGradient>
<linearGradient id="paint3_linear" x1="125.744" y1="164.287" x2="149.383" y2="143.889" gradientUnits="userSpaceOnUse">
<stop stop-color="#FBB677"/>
<stop offset="1" stop-color="#FFEAD2"/>
</linearGradient>
<linearGradient id="paint4_linear" x1="143.12" y1="139.015" x2="160.316" y2="120.771" gradientUnits="userSpaceOnUse">
<stop stop-color="#0D0726"/>
<stop offset="1" stop-color="#33346E"/>
</linearGradient>
<linearGradient id="paint5_linear" x1="158.094" y1="168.096" x2="157.794" y2="151.92" gradientUnits="userSpaceOnUse">
<stop stop-color="#E49955"/>
<stop offset="1" stop-color="#FFEAD2"/>
</linearGradient>
<linearGradient id="paint6_linear" x1="148.676" y1="121.642" x2="149.959" y2="121.123" gradientUnits="userSpaceOnUse">
<stop stop-color="#F37121"/>
<stop offset="1" stop-color="#F99D2A"/>
</linearGradient>
<linearGradient id="paint7_linear" x1="146.212" y1="121.997" x2="147.392" y2="121.329" gradientUnits="userSpaceOnUse">
<stop stop-color="#F37121"/>
<stop offset="1" stop-color="#F99D2A"/>
</linearGradient>
<linearGradient id="paint8_linear" x1="109.131" y1="166.939" x2="126.786" y2="137.512" gradientUnits="userSpaceOnUse">
<stop stop-color="#0D0726"/>
<stop offset="1" stop-color="#33346E"/>
</linearGradient>
<linearGradient id="paint9_linear" x1="198.989" y1="242.825" x2="205.579" y2="221.313" gradientUnits="userSpaceOnUse">
<stop stop-color="#FAA85D"/>
<stop offset="1" stop-color="#FED7B3"/>
</linearGradient>
</defs>
</svg>
